<svg id="Layer_1" data-name="Layer 1" xmlns="http://www.w3.org/2000/svg" viewBox="0 0 572.32 586.21"><defs><style>.cls-1{fill:#2085bb;}.cls-2{fill:none;stroke:#57a3cc;stroke-miterlimit:10;stroke-width:39px;}</style></defs><title>Untitled-5</title><path class="cls-1" d="M549.55,117c0,.08-.05.28,0,.25l.1-.32Z" transform="translate(-241.53 2.42)"/><path class="cls-1" d="M549.88,117.65a1.32,1.32,0,0,0,.24-.72c-.13.3-.12.17-.26.52-.07,0-.09-.13-.06-.24,0,.08-.09-.09-.15.11s.14.3.29.11A.56.56,0,0,1,549.88,117.65Z" transform="translate(-241.53 2.42)"/><path class="cls-1" d="M555.65,119.82l0-.05A.07.07,0,0,0,555.65,119.82Z" transform="translate(-241.53 2.42)"/><path class="cls-1" d="M559,121.61a.07.07,0,0,0-.07,0S559,121.64,559,121.61Z" transform="translate(-241.53 2.42)"/><path class="cls-1" d="M559.37,122.24l0,0S559.35,122.25,559.37,122.24Z" transform="translate(-241.53 2.42)"/><path class="cls-1" d="M555.65,119.82l.05.13C555.76,119.86,555.69,119.86,555.65,119.82Z" transform="translate(-241.53 2.42)"/><path class="cls-1" d="M550.88,117a.21.21,0,0,0-.07.07l.06,0Z" transform="translate(-241.53 2.42)"/><path class="cls-1" d="M554,119.5h0l-.07.12Z" transform="translate(-241.53 2.42)"/><path class="cls-1" d="M552.78,119.16s.11-.25.16-.36c0,.11-.08.15-.11.17A1.59,1.59,0,0,0,552.78,119.16Z" transform="translate(-241.53 2.42)"/><path class="cls-1" d="M550.94,118.19l0,0Z" transform="translate(-241.53 2.42)"/><path class="cls-1" d="M554.84,119.85a.68.68,0,0,0,0,.1A.47.47,0,0,0,554.84,119.85Z" transform="translate(-241.53 2.42)"/><path class="cls-1" d="M583.58,140.57l0,0S583.58,140.58,583.58,140.57Z" transform="translate(-241.53 2.42)"/><polygon class="cls-1" points="342.97 144.75 342.94 144.76 342.9 144.91 342.97 144.75"/><path class="cls-1" d="M560.19,123.14h0S560.16,123.15,560.19,123.14Z" transform="translate(-241.53 2.42)"/><path class="cls-1" d="M568.72,129.65c.09-.27.37-.09.43-.42C569.09,129.32,568.72,129.43,568.72,129.65Z" transform="translate(-241.53 2.42)"/><path class="cls-1" d="M550.91,117.06H551A.05.05,0,0,0,550.91,117.06Z" transform="translate(-241.53 2.42)"/><path class="cls-1" d="M569.15,129.23h0v0Z" transform="translate(-241.53 2.42)"/><path class="cls-1" d="M562.52,124.48a.61.61,0,0,0,0-.12A.41.41,0,0,0,562.52,124.48Z" transform="translate(-241.53 2.42)"/><path class="cls-1" d="M561.07,123l0,.06A.09.09,0,0,0,561.07,123Z" transform="translate(-241.53 2.42)"/><path class="cls-1" d="M563.6,124.78s0,.07,0,.06v0S563.6,124.83,563.6,124.78Z" transform="translate(-241.53 2.42)"/><path class="cls-1" d="M564.47,125.44l0-.06h0Z" transform="translate(-241.53 2.42)"/><path class="cls-1" d="M580.89,139.14a1.79,1.79,0,0,1-.12.23C580.89,139.2,581,139.24,580.89,139.14Z" transform="translate(-241.53 2.42)"/><path class="cls-1" d="M550.85,117.17c0-.07,0-.1.06-.11h0A.31.31,0,0,0,550.85,117.17Z" transform="translate(-241.53 2.42)"/><path class="cls-1" d="M565,123l.12.14A.4.4,0,0,0,565,123Z" transform="translate(-241.53 2.42)"/><path class="cls-1" d="M575.51,133.57h.05S575.54,133.56,575.51,133.57Z" transform="translate(-241.53 2.42)"/><path class="cls-1" d="M565.54,123.47a.5.5,0,0,0,0,.22l.06,0Z" transform="translate(-241.53 2.42)"/><path class="cls-1" d="M580.78,139.37h0Z" transform="translate(-241.53 2.42)"/><path class="cls-1" d="M582,139.44c-.12-.09-.26.27-.4.42-.22,0,.08-.27.13-.46-.15,0-.41.24-.48.18a.32.32,0,0,1,.09-.13c-.27.17-.31-.19-.64,0l0-.08a3.27,3.27,0,0,1-.29.42c-.06,0-.25.1-.12-.11,0,0,.09,0,.16-.09l-.12,0c.16-.32.16,0,.31-.23-.18,0-.5.12-.53,0,.2-.28.28.07.35-.25l.06.21c.23-.5.06.09.32-.43-.11-.22-.31,0-.41-.24-.16.11-.17.23-.33.34-.47,0,.36-.81-.11-.63-.2.13-.5.43-.48.15l.3-.24c-.14-.18-.47.32-.46,0,.13-.08.22,0,.22,0,.1-.32-.23.09-.31,0l.22-.26c-.21-.12-.57-.13-.8-.28.08-.06.19-.1.22-.22-.36-.11-.47-.54-.54-.91l-.3.11s.06-.13.12-.14c0-.17-.14.12-.27.15s.06-.18.16-.21c-.33,0-.83-.12-.75-.5l.1,0c0-.22-.59.24-.5-.07H577c-.17-.39-.67-.55-.53-1.08-.36.23-.12-.43-.58-.07.07-.37.2-.38.13-.76,0-.08-.37.14-.48.09l.23-.2-.34.1.23-.3-.13,0s0,.16-.12.21-.09-.44,0-.54l-.45-.12a.44.44,0,0,1,.27-.07c-.37.05.22-.24-.12-.19,0,.06-.15.11-.2.15a.33.33,0,0,0-.22-.42l.18-.12c-.14-.25-.47-.39-.68-.62,0,.15-.29.38-.38.33l.22-.24c-.19.09,0,.15-.29.23-.05-.11.22-.31.35-.33l-.18,0a1.8,1.8,0,0,1,.23-.16c-.19.09.08-.4-.24-.23l.07-.07c-.21-.24-.39-.27-.58-.45-.21.19-.23.07-.45.17-.06-.2,0-.5-.22-.66s-.21.13-.38.19c.18-.18,0-.33.22-.37a1.42,1.42,0,0,0-.67-.33c0,.1-.05.16-.13.21s0-.18.07-.26h0c-.54,0-.09-1.17-.7-1h0l-.43,0c-.07-.14.2-.07.23-.26-.55.06-.35-.44-.75-.44.37-.7-.61-.51-.5-1.06l-.11.14c-.18.07,0-.14,0-.21-.09.11,0,.17-.15.21-.62-.3-.82-1.12-1.23-1.69-.16-.2-.71.6-.67.07l.28-.19c-.63,0-.77-.68-1.37-.73.07,0,.13-.12.17-.09.07-.25-.29-.25-.41-.1,0-.07.1-.15.12-.26s-.39.07-.29-.15c0,0,.07,0,.1,0-.13,0-.23-.22-.35,0-.06-.22-.35-.12-.37-.34-.27.19-.16-.31-.45,0,.29-.35,0-.49-.26-.39.11-.09,0-.17.15-.3-.11-.08-.26-.08-.38.12.12-.58-.65.05-.35-.59a4.9,4.9,0,0,1-1.22-.21c.26-.37.35.19.61-.21-.39,0-.76.17-1-.11,0-.1.15-.14.22-.18-.38,0-.52-.4-.91-.35a.22.22,0,0,1,.12-.07c-.06,0-.08-.13-.19,0l.08,0c-.08.3-.53.4-.62.53.4-.45-.17-.28.36-.83a.36.36,0,0,0-.21.19c0-.06,0-.14.13-.24-.24,0-.29.21-.45.1.05-.08.1-.1.18-.19-.18.11-.37.23-.46.07s.06-.12.1-.1c-.25-.12-.66.2-.84-.11.29-.33,0-.17.15-.51l-.2,0,0,.19c-.12-.08-.37.1-.41-.06l.17-.08-.27-.07.07.2c-.22.1-.21.42-.33.24.05,0-.12-.07-.08-.3h0c-.12.07-.24.15-.29,0s.21-.35.23-.43c-.21.24-.33-.09-.57.17a.91.91,0,0,0,.16-.27l-.17.2c0-.1,0-.14.07-.27-.16-.13-.16.45-.28.17,0,0,0,0,.09-.07-.17-.2-.48-.05-.62-.26.1-.37.21,0,.28-.32-.32-.08-.78.12-1-.09l0,.06c-.25.46-.1-.34-.34-.16a.56.56,0,0,0,.13-.2c-.16-.16-.45,0-.8,0l.09-.11c-.07-.16-.27-.19-.37-.3-.09.11-.15.06-.18.26-.1-.89-.87.11-1-.61,0,0,.14-.08.11-.09l-.34,0c-.05.23,0,.15,0,.34s-.2.19-.27.17c.18-.1.12-.35.1-.49,0,.07-.06.14-.07.21,0-.44-.17.43-.29.1l0-.11c-.1,0-.22.16-.29.1,0-.27.12-.09.19-.3-.12,0-.38.41-.41.12.07-.05.14,0,.22-.09,0-.34-.06-.27-.13-.34h0l-.16-.2,0,.1c-.35.63-.35,0-.67.43.31-.36.1-.23.2-.52,0-.09-.08-.21,0-.28-.16.21-.11-.23-.34.08,0-.1-.1,0,0-.27-.15,0,0,.17-.05.29-.27.27-.36-.51-.75-.14-.28.12-.4.44-.66.56,0-.17.14-.34.14-.34-.09-.16-.19-.15-.33-.07a.43.43,0,0,0,0-.27c-.1,0-.13.34-.23.17a2.23,2.23,0,0,1,.17-.37c-.13.07-.27.23-.4.29,0-.17.12-.24.18-.34-.14.05-.36.09-.45.35l.06.11s0-.23.06-.27.14.12.13.22l-.09,0c0,.58.34,0,.5,0l-.15.4.23-.31c0,.11,0,.34-.1.39.07.22.13-.13.18.12a.08.08,0,0,1,0,.07l.14-.1c0,.08,0,.29-.1.22.15.27.39-.25.39.08l0,0c.3-.07.09-.29.38-.59l0,.77.1-.29s.08.05,0,.17c.15-.18,0-.13.12-.31.07.31.41,0,.32.45.11-.21-.08-.21.1-.33-.09.52.19,0,.25.22-.11.25-.19.08-.13.35.2-.42.21.16.34.1.11-.35.27-.09.47-.15,0,.11.26.3.38.48l0,.06c.14-.34.29-.22.43-.25a.65.65,0,0,1-.22.35l.11,0a.29.29,0,0,1,.2-.17l-.12.25c.15,0,.4-.21.53,0,.1-.24.09-.72.35-.81,0,.13-.11.36-.19.39s.1-.09.12,0l-.16.19c.05.13.11-.17.18-.12s0,.15-.06.29,0-.1-.09,0a.42.42,0,0,1,.1.36c0-.11.09-.25.16-.25s0,.24,0,.37c.08-.11.12.06.23-.22,0,0,0,.15,0,.23.12-.09.36.11.39-.22v0h0c.36-.17.45.36.74.35l0,.09c.19,0,.35.07.54-.07,0,0,0,.21,0,.31.14,0,.2-.11.29.11-.18.1,0,.16-.16.06.11.14.07.3.33.13-.16.2,0,.34.07.3l0-.21a.31.31,0,0,1,.2.11l-.18.28c.1.5.82-.37.73.34.18-.17-.08-.22.11-.43.11.1,0,.61.06.63.09.26.39-.34.52-.13,0-.12.16-.41.35-.43s-.08.52-.21.56,0,0,0-.08a.16.16,0,0,0-.15.17l.07-.1c0,.14.19.23.05.37.15,0,.14-.15.09-.24.08.24.25.15.37.34,0-.07,0-.21.08-.19.18.26.22-.14.42-.09,0,.21-.25.35,0,.32,0,.17-.14.28-.23.34.26-.1.2.3.26.39l-.13,0a.16.16,0,0,1,.15,0l.08-.23c0,.06.06.09,0,.17.13-.1.17-.36.37-.48,0,.14.26,0,.11.29-.14-.21-.14.28-.33.23.05,0,.09,0,.11.08a.1.1,0,0,1-.06.06c0,.35.27-.25.46-.13-.12.14-.13.31-.08.3s.12-.27.26-.34c0,.19.19,0,.25.05l0-.1c.12-.13.17-.08.29-.07-.07.12-.13,0-.13.1.26-.2,0,.4.29.31,0,.14-.18.28-.17.39.27-.09,0,.31.28.26.09-.23,0-.19.29-.3l-.34,0,.35-.18c-.07-.06-.24,0-.27-.05.18-.11.14-.07.22-.26-.09.37.32,0,.31.25l-.33.49c0,.34.49,0,.64.25l0-.14c.17-.17.16.07.29,0a.86.86,0,0,0-.15.37c.08-.12.16.13.41-.18l0,.28c.12.22.54-.3.68-.11-.18.13-.18.31-.39.34.06,0,.09.11.17,0,0,.13.32-.09.26.1.08-.05.21-.21.27-.15a.31.31,0,0,1-.06.08c.06-.08.18,0,.26-.25-.19.63.54.35.37.89a1.78,1.78,0,0,1,.48.2s-.06.08-.07,0c0,.27.45-.36.5-.06-.11.32-.2.06-.22.2-.38.52.27.11.15.5h-.05c0,.24.38,0,.5.15a.34.34,0,0,0-.06.07,1,1,0,0,1,.78,0c-.21.15-.15,0-.29.27.09,0,.25-.33.42-.28a1.3,1.3,0,0,1-.21.53l-.13-.09c-.17.32.16.12.18.23l-.11.11c.21.12.47-.17.65,0l.06-.11c.36-.2-.06.24.24.12l-.23.32a2.29,2.29,0,0,1,.68,0,2.18,2.18,0,0,1-.72.18.35.35,0,0,0,.42.07c-.05,0-.15,0-.14,0,.29-.16.51-.17.64,0-.54.54.22.47-.09,1,.43,0,.39.53.69.75.32-.52.09.06.5-.39.09,0,.11.07.09.1l-.07.45c-.08.17-.15,0-.24.14.1.17-.12.24-.15.45.14-.17.27-.18.29,0l.09-.31c.42,0-.2.53.22.49l-.2.08c.18,0,.36.36.81.12,0,.07-.13.21-.2.19.18.28.89.17.85.57l-.13.08c.07,0,.28-.12.22,0s-.13.08-.11.11.3-.06.3.06l-.17.06c.08.37.64.08.91.21a.68.68,0,0,0-.22.73l0,0c.21.32.7.23,1.07.38-.21.48.35.68.38,1.13a.45.45,0,0,1,.34-.2c0,.12.38,0,.07.23v0c-.26.31-.07.37,0,.47l.41-.33c-.36.76.81.5.41,1.1.16,0,.22.06.38,0l-.22.18a1,1,0,0,0,.38.52l-.19.09c.09.14.76-.37.87-.27l-.29.31c.19.21.1.68.58.64,0,0-.15.11-.19.09s.13.59.54.17c-.28.25.17.25.4.26l-.22.17c.35-.14.43-.2.63-.13,0,.06-.14.18-.13.09,0,.21.27-.09.28.14l-.18.07c.09.13.15.05.36,0s.14.26,0,.44c.13-.09.33-.17.34-.06a.28.28,0,0,1-.16.1c0,.31.49,0,.41.36a.4.4,0,0,0-.1.14c-.14-.15-.24-.28-.21-.28-.19.18-.1.33-.45.48.23,0,.69-.17.72,0l0,.08h0s0,.05.1,0a.25.25,0,0,0,0,.15c-.14.16.05.22.11.28.19-.21.24-.1.33-.34,0,0,0,0-.08,0h0l-.16-.13c.15-.06.28-.1.23.08l.4-.25c-.19.36-.18.66-.32.86.29.06.51.33,1,0,.1,0,0,.17-.07.25s-.1,0-.16,0c.2,0,.36.24.62,0,0,.24-.29.2-.07.31l-.1.07c0,.77,1.19-.25,1.17.66a.21.21,0,0,1,0-.14c.32.64,1.21.42,1.49,1.17.11.18.23,0,.41-.14l-.1.29.31-.24c.32-.13.12.87.61.53l0-.21c.1.08.38,0,.29.23,0,0,.1-.19.11-.07l0,.15.36-.18c.18.17-.22.59.1.71.14,0,.45-.35.43-.47s-.1-.13-.06-.28l.12-.05a2.15,2.15,0,0,0,.17-1.27l-.23.23v-.23l.13,0c0-.23-.11-.06-.2.05a.59.59,0,0,0,0-.26l-.28.38c0-.18.18-.33.11-.45-.13.18-.06.41-.22.5,0-.23.07-.38-.07-.24a.36.36,0,0,1,.12-.22c-.12.11-.22,0-.34.2,0-.27-.28,0-.11-.44-.06.09-.26.26-.34.25.33-.43-.24-.15,0-.64-.29.39-.41,0-.69.19,0,0,.08-.09.08-.06s0-.22,0-.33c-.2.34-.38.34-.58.51.08-.39.3-.36.45-.69-.15.28-.34.17-.44.41a1,1,0,0,1,.12-.44c-.27.41-.12,0-.34.24,0-.28.22-.41,0-.36C581.82,139.51,582,139.44,582,139.44Zm-3.36-1.71h0l.07,0Zm-.23-.23a.45.45,0,0,0,.09.11c-.06.08-.14.14-.16.11S578.42,137.6,578.44,137.5Zm-.88,1.87c-.07,0,0-.06,0-.11l.09,0,0,0Z" transform="translate(-241.53 2.42)"/><path class="cls-1" d="M577.89,139.18h0l0-.07-.08,0Z" transform="translate(-241.53 2.42)"/><path class="cls-1" d="M555.63,119.76h0a.14.14,0,0,1,0,0Z" transform="translate(-241.53 2.42)"/><polygon class="cls-1" points="334.33 136.18 334.28 136.23 334.35 136.21 334.33 136.18"/><path class="cls-1" d="M554.25,118.23a.18.18,0,0,0,0-.08A.24.24,0,0,0,554.25,118.23Z" transform="translate(-241.53 2.42)"/><path class="cls-1" d="M553.5,117.91l-.08-.13A.46.46,0,0,0,553.5,117.91Z" transform="translate(-241.53 2.42)"/><path class="cls-1" d="M552.94,117.61l0,.11h0Z" transform="translate(-241.53 2.42)"/><path class="cls-1" d="M562.05,121.41h0C562.16,121.4,562.11,121.4,562.05,121.41Z" transform="translate(-241.53 2.42)"/><path class="cls-1" d="M559.2,120.5l.14-.07S559.27,120.36,559.2,120.5Z" transform="translate(-241.53 2.42)"/><polygon class="cls-1" points="323.42 125.43 323.42 125.44 323.44 125.45 323.42 125.43"/><path class="cls-1" d="M559.46,120.5c0-.07-.06-.08-.12-.07S559.4,120.52,559.46,120.5Z" transform="translate(-241.53 2.42)"/><path class="cls-1" d="M550.33,116.89l0,0v0Z" transform="translate(-241.53 2.42)"/><path class="cls-1" d="M550.3,116.92l0,0S550.29,116.95,550.3,116.92Z" transform="translate(-241.53 2.42)"/><path class="cls-1" d="M550.18,117l.08-.06S550.21,116.93,550.18,117Z" transform="translate(-241.53 2.42)"/><path class="cls-1" d="M551.12,117.17l0-.1A.51.51,0,0,0,551.12,117.17Z" transform="translate(-241.53 2.42)"/><path class="cls-1" d="M551.38,117.19c-.05,0-.1-.24-.2-.19l0,.08C551.22,116.93,551.28,117.35,551.38,117.19Z" transform="translate(-241.53 2.42)"/><path class="cls-1" d="M552.08,118.66l-.17-.13c0,.11,0,.27-.08.27C552,119.18,551.83,118.55,552.08,118.66Z" transform="translate(-241.53 2.42)"/><path class="cls-1" d="M552.64,119c-.12,0,0,.15-.06.21S552.69,119.08,552.64,119Z" transform="translate(-241.53 2.42)"/><path class="cls-1" d="M556.83,120.52l-.12.23C556.81,120.75,556.76,120.66,556.83,120.52Z" transform="translate(-241.53 2.42)"/><polygon class="cls-1" points="316.66 122.12 316.66 121.94 316.52 122.13 316.66 122.12"/><polygon class="cls-1" points="316.31 123.97 316.26 123.99 316.43 123.97 316.31 123.97"/><path class="cls-1" d="M564.17,125.52l.17-.26C564.26,125.26,564,125.53,564.17,125.52Z" transform="translate(-241.53 2.42)"/><path class="cls-1" d="M566.88,127.36c-.08.14-.08.28.07.2C566.91,127.49,566.93,127.35,566.88,127.36Z" transform="translate(-241.53 2.42)"/><polygon class="cls-1" points="331.84 137.16 331.71 137.18 331.86 137.22 331.84 137.16"/><path class="cls-1" d="M583.58,105c-2.29,2.45-7.44,8.06-6.39,7L586,102.5Z" transform="translate(-241.53 2.42)"/><path class="cls-1" d="M567.59,122.76c4.28-4.56,11.8-12.59,19.82-21.32l-15,16.06c-1.06,1.07,2.75-3.1,6-6.58-2.26,2.42,1.87-2.14-3.64,3.8-6.73,7.39-7,7.73-1.29,1.72Z" transform="translate(-241.53 2.42)"/><path class="cls-1" d="M556.92,140.35l1-1.13Z" transform="translate(-241.53 2.42)"/><path class="cls-1" d="M553.82,147.19c-.23.21-1.13,1.12-1.94,2C552.48,148.55,553,148,553.82,147.19Z" transform="translate(-241.53 2.42)"/><path class="cls-1" d="M544.19,157.67l.6-.64C544,157.88,543.51,158.36,544.19,157.67Z" transform="translate(-241.53 2.42)"/><path class="cls-1" d="M556.92,140.35l-2.75,3A37.45,37.45,0,0,0,556.92,140.35Z" transform="translate(-241.53 2.42)"/><path class="cls-1" d="M589.22,100.35l-2.34,2.46,1-1Z" transform="translate(-241.53 2.42)"/><path class="cls-1" d="M548.92,147.18h0l-3.61,3.8Z" transform="translate(-241.53 2.42)"/><path class="cls-1" d="M547,148.06l10.48-11.11-5.17,5.45Z" transform="translate(-241.53 2.42)"/><path class="cls-1" d="M559.15,133l-1.05,1.1Z" transform="translate(-241.53 2.42)"/><path class="cls-1" d="M547.72,149.3,545,152.15Z" transform="translate(-241.53 2.42)"/><path class="cls-1" d="M625.45,111.4,624,112.69C624.82,112,625.41,111.45,625.45,111.4Z" transform="translate(-241.53 2.42)"/><path class="cls-1" d="M585.38,148l-.45.38-4.63,4Z" transform="translate(-241.53 2.42)"/><path class="cls-1" d="M534.88,168.21l.15-.15C534.14,168.94,534.3,168.79,534.88,168.21Z" transform="translate(-241.53 2.42)"/><path class="cls-1" d="M545.15,167.09c7-6.86,9.14-8.65,16.89-16.3C559,153.78,549.67,162.59,545.15,167.09Z" transform="translate(-241.53 2.42)"/><path class="cls-1" d="M588.26,101.42c.09-.08.17-.14.11-.05C588.6,101.1,588.56,101.12,588.26,101.42Z" transform="translate(-241.53 2.42)"/><path class="cls-1" d="M562,150.79l.06-.06.73-.72Z" transform="translate(-241.53 2.42)"/><path class="cls-1" d="M540.66,164.65l3.37-3.41Z" transform="translate(-241.53 2.42)"/><path class="cls-1" d="M550.73,152.68l-1,1.07C550.42,153,550.65,152.77,550.73,152.68Z" transform="translate(-241.53 2.42)"/><path class="cls-1" d="M552,154.15c-.58.61-1.65,1.68-.59.66l.94-1C551.33,154.91,550.82,155.4,552,154.15Z" transform="translate(-241.53 2.42)"/><path class="cls-1" d="M552.58,154.6l1.55-1.56-.43.39Z" transform="translate(-241.53 2.42)"/><path class="cls-1" d="M619.65,112.8l-7.31,6.6C618.13,114.19,620.3,112.44,619.65,112.8Z" transform="translate(-241.53 2.42)"/><path class="cls-1" d="M585,104.87l3.23-3.44-.42.41Z" transform="translate(-241.53 2.42)"/><path class="cls-1" d="M613.2,93l-1,1.25A6.12,6.12,0,0,0,613.2,93Z" transform="translate(-241.53 2.42)"/><path class="cls-1" d="M614.09,109l1-.87C615.25,108,615,108.18,614.09,109Z" transform="translate(-241.53 2.42)"/><path class="cls-1" d="M613.62,93.43l-5.31,5.41,2-2Z" transform="translate(-241.53 2.42)"/><path class="cls-1" d="M612.25,119.47l.08-.08Z" transform="translate(-241.53 2.42)"/><path class="cls-1" d="M632.33,102.87c.07-.16-2.58,2.17-6,5.23l-10.76,9.57c-3.17,2.6,7.87-7.11,13.34-12-2.92,2.46-12.85,11.2-12.48,10.77l4.63-4.13c-8.62,7.54-.64.13-11.45,9.63l2.66-2.4-14.73,13.2c-.22.12-6.85,6,.15-.3-.18.21,2.65-2.32,4.85-4.27l-3.08,2.68c10-9.06,3.54-3.06,11-9.74-3.37,2.85-11.8,10.22-9,7.6,9.85-8.86,3.46-2.81,12.15-10.77l-3.68,3.49c15.5-14-1,1,15.56-13.95,2.72-2.71-5.18,4.34-2.43,1.61l-13.6,12.17c-10,8.64,24.63-22.42,11.37-10.78-6.6,5.86-19.06,17.06-12.57,11l11.16-10c1-1.14-16.06,14.33-8.71,7.44,4.39-3.92,3.78-3.21,5.09-4.43,4.35-4,2.75-2.6.07-.2L611.6,118l-1.6,1.42-.47.41-.18.14,9.83-8.9c-1.69,1.25-8.94,7.51-10.87,9,2.93-2.64,6-5.4,9-8.16-5.1,4.24.8-1.53,6.42-7l-8.53,7.63c0-.05,1-.93,2.13-2l3.31-3c3.13-3-5.37,4.89-8.73,7.88-.63.5,4.81-4.49,7.37-6.78-7.3,6.4-15.78,13.72-6.87,5.3l2.53-2.27c3.32-3.25-17.41,15.73-9.63,8.42l1.51-1.35c3.43-3.6-4.51,3.25,8-8.66-12.14,11.16,5.17-5.23-11.72,10.37,8.24-7.88,11.29-10.63,16.72-16,.72-.77-10.6,9.69-12.41,11.26l8.81-8.18-9.32,8.5,10.48-9.84-2.32,2c-.49.51-3.9,3.73-6.44,6.08-4.07,3.62,5.91-5.93,10.42-10.13l-7.65,6.71c3.54-3.3,4.79-4.39,7.07-6.46-9.09,8.25,9.24-8.66.91-1.1l-7,6.54c5.26-5,5.19-5.19,2.86-3.19l6.07-5.65c1.37-1.61-3.24,2.36-3.31,2.07-2.75,2.71-13.23,12.53-14.29,13.43l9.23-8.72c-5.75,5.35-3.44,3.34-10.51,9.86,1-1.07,10.48-9.95,13.53-12.74l-3.29,2.94,7.76-7.26c-5.78,5.38,9.14-8.89-.88.45l2.75-2.6c-.11-.27-3.37,2.65-4,2.93-8,7.54-6.26,5.8-12.74,11.85,2.44-2.52,8.58-8.57,7.77-8.06-4,3.66-6.76,6.37-11.52,10.81,7.23-6.88,6.43-6.37,11.69-11.25-1.33,1-1.64,1.16-7.7,6.56-2.94,2.85-4.21,4.1-6.68,6.44-1.22,1.1,3-3,6.43-6.28l.76-.71c-11,10.14,20.53-20.66,5.32-6.44l.75-.7-8,7.33c1.16-1.28,5.46-5.15,9.86-9.5-12.21,11.36,1.42-2-6.73,5.55,21.06-20.61-1.93,1,11.41-12.28l-5,4.85c-4.92,4.69,2.8-2.82,3.9-4-3.86,3.76-4.43,4.39-7.16,7-6.36,5.45,6.5-7.86,10.56-12.66,1.18-1.46-25.7,25.06-14.05,13.28l9.24-9c-11.3,10.54-.21-1-9.82,8l3.24-3.17L611,97.76a5.12,5.12,0,0,1,.46-.42c6.59-6.64.1-.54-5.32,4.83.57-.65,4.89-4.87,7.62-7.63,3.86-4-8.63,8.27-2.05,1.67,1.07-1.08,2.17-2.12,2.7-2.62-3.25,3.15.64-1-7,6.65,3.55-3.74-3.6,3.18.85-1.41-8.6,8.47,3.94-4.29-8.17,7.76,12.5-12.46,9.88-10.24,4-4.44,3.79-3.75,3.85-4,9.09-9.16-.25.1-2.64,2.34-9,8.77,14.76-15.08-12.27,11.76,6.74-7.48-6.92,6.49-11.63,10.84-14.73,13.59,12.38-12.49,1.45-1,14.44-14.15-5.3,4.95-16,15.58-13.22,12.38,1.65-1.76,5.39-5.41,7.52-7.52-5.28,5,.75-1.5-6.14,5.16l3.38-3.37c-.43.37,1.73-1.92-3.87,3.78l1.55-1.51c-8.09,8.32-17.12,17.16-21.42,21.53,16.11-16.3,3.88-4.26,24.25-24.85-1.08,1.06-3.76,3.73-7.5,7.55,1.06-1.14,3.23-3.38,7.53-7.69-1.58,1.49-3.85,3.77-5.72,5.64s-3.34,3.34-3.33,3.23l7-7.06c-5.33,5.33-10.67,10.68-8.47,8.26l2.49-2.54.9-.91a3,3,0,0,1,.35-.33c-1,.68-14.31,14.13-9.37,8.75,11.79-12,3.81-4,14-14.46l-3.12,3-4.89,5.1c.09-.26-7.37,7.28-4.11,3.8l4.24-4.24-2.07,1.84-3.77,4c-5.31,5.31-12.83,13.22-10.1,10.22,1.05-1,0-.19,6-6.4l0,0c-3.27,3.29-6.7,6.76-4.24,4.11l13.36-13.79c-8.5,8.7-2.53,2.25-11.59,11.53l8.53-8.8-6.91,7.08c2.16-2.31,3.22-3.42,7.46-7.79,1.15-1.41-12.8,13.32-7.39,7.47l2.65-2.69c2.75-3.11-4.6,4.28-1.34.67,10.13-10.59,2.59-2.49,11.12-11.43-2,1.74-12.53,12.31-10.3,9.67l-1.09,1.2c-14.33,14.91,7-7.5.13-.54l6.36-6.6c2.18-2.51-3.75,3.45-8.41,8l3.69-3.82a47.44,47.44,0,0,0,3.31-4c-3.68,3.82-3.13,3.16-8.43,8.78,20.62-22.15-11.58,11.38,5.57-7.1,0,0,.23-.22.54-.53l1.11-1.14,1.1-1.15.5-.53-3.53,3.4-8.51,9.12-4.68,4.86-1.41,1.43-.39.38-.14.12c4.17-4.27,9.94-10.52,13.36-14.21l-5.92,6.26c10.92-11.74-12.46,13.17-5.16,5.21l3.25-3.44c-1.7,1.72-6,6.23-5.15,5.21,7.13-7.61,3.38-3.5,9.27-9.74-.48.37-13.68,14.26-6.61,6.64l4.1-4.16c8.33-9,6.18-6.72,7.47-8.18l-.18.21,3.68-4.15-2.24,2.44c-18.7,19.73-3.58,3.46-15.87,16.34,11.63-12.19,6.69-7.09,14.78-15.7,2.21-2.42,4.68-5.14,7-7.56-6.57,6.9,5-5.57-4.57,4.53,2.59-2.78.19-.33,6.73-7.29-2.12,2.12-4.5,4.85-7.77,8.33-9,9.39,10.49-11.76-1.83,1.12-5.14,5.24-13.91,14.61-18.37,19.18,4.1-4.49,9.47-10.11,9.47-10.11,3.75-4.16,3-3.46,0-.33l7-7.63c-.73.68-9.45,10.12-5.7,5.94l10.44-11.15-9.73,10.12c4.49-4.88,6.87-7.34,9.84-10.5-2.11,2.13-4.27,4.23-11.42,11.92l-2.5,2.79c-.36.34,6.11-6.63,7.43-8,5.65-6-2.38,2.75-5,5.55l-1.7,1.75c-15.12,16.41,2.6-2.47,1.82-1.43l-11.07,11.86,9.25-9.78c-2.85,3.11-9,9.76-10.7,11.5-5.39,5.92,4-4.18-2.06,2.42L559.15,133l3.35-3.48c-2.33,2.49-7.79,8.4-6.23,6.65-6.28,6.94,8.45-8.75.11.28l-.69.72c3.88-3.88,8.14-8.71,17.78-18.82l-20,21.54,8.14-8.69c-.28.33-.86,1-4.11,4.48,5.62-5.91,3.53-3.79,8.81-9.39-7.33,8,3.67-3.52-9.28,10.34,6.21-6.58,4.7-5.16,9.08-9.68-13.93,14.91,2.48-2.47-3.86,4.42-7.22,7.66-3.47,3.55-9.83,10.45,12.21-12.95-2.55,3-.17.52,9.7-10.33,4.16-4.2,7.49-7.56-3.27,3.46-5.17,5.83-8.61,9.64l-1.63,1.72c9.84-10.4,8.07-8.36,10.17-10.45-5.89,6.23-8.23,8.68-10.89,11.44h.1c3.17-3.32,4.84-5.06,6-6.22l-7.37,7.76c.48-.36,8.82-9,4-3.73,6.88-7.24,19-20.26,23.75-25-3.71,3.92-10.06,10.62-11.61,12.2.49-.5,3.12-3.22,1.55-1.53l-6.29,6.55c-2.7,2.94,5.25-5.48,4.7-4.83l-8,8.44c-.52.53,2.16-2.34.07-.16-.91,1-4,4.39-8,8.64,3-3.18,7.14-7.52,7.86-8.22.46-.34-6.35,6.74-9,9.65,3.7-3.86-.07.2,7.86-8.14l-.17.19-.45.49-1.51,1.6-3.72,3.93c3.54-3.64,1.18-.88,9.58-9.79l.55-.59.35-.36h0c8-8.16-4.23,5-.7,1.53l-2.67,2.79c3.12-3.11,2-1.72,7.76-7.64,0,0-.29.33-.79.87l-2,2.12-5.2,5.44c2.06-2,5.07-5.14.75-.48-4.71,4.79-4.11,4.32-3.47,3.49-2.23,2.47-6.49,6.93.89-.58-6.86,7.08-8.56,9-6.48,6.91l4.84-5.13c1-1,.46-.33-.08.3l-9,9.33c-10.83,11.49,18.92-19.07.67,0,6.35-6.48,4.36-4.67,11.78-12.27-.57.66-4.08,4.36-7.45,7.89l-6.59,6.93c-4.92,5.25,13.28-13.53,10-9.91,3.2-3.33,11.8-12.21,14.91-15.26-1.12,1.3-13.44,14-16.07,16.63-.29.26.73-.8,1.82-1.92-1.19,1.18-2.6,2.58-6.07,6.21L549,152c-3.26,3.42-2.82,3.15-8.13,8.57,3.12-3.11,5.31-5.42,6.95-7.18-4.59,4.89,0,.27-3.06,3.58l3.43-3.56,1.49-1.53.45-.46.16-.16c-3.87,4.23,6.19-6.23,7.69-7.59-4.88,5.1-11.78,12-7.56,7.89-3.28,3.47-8.57,8.8-11.23,11.47,6.31-6.31-4,4.33-5.06,5.54l-2.65,2.63c.79-.78,1.17-1.16,1.36-1.33s.19-.15.19-.13l6.45-6.64c-1.1,1.17-1.11,1.22-3.81,4l16.61-16.89c-3.26,3.39,3.64-3.5-5,5.28,2.82-3.08-8.63,8.82-10.1,10.15,1-1,1-1-.09.21l-2.28,2.31c-7.6,7.93,9.77-9.88,9.67-9.57-4.86,4.93-9.18,9.39-8.13,8.35l.37-.4,1-1,3.18-3.24,7.3-7.35c-3.71,3.91,2.88-2.79,2.48-2.31l1.74-1.85c4.86-4.92,4.26-4.24,5.84-5.74-3.78,3.84-2.64,2.6-4.29,4.31,8.59-8.62-8.72,9.09-2.9,3.32l-11.33,11.55c6.38-6.31-6.58,6.83-1.29,1.63,6.52-6.64,4.91-5,11.34-11.41L545.1,159l9.6-9.54c.05-.14-4.2,4.07-3.11,2.92,5.37-5.36,3.75-3.72,9.15-9.23-9.75,10,5.83-5.67-.72,1.11l-16.2,16.37c-7.13,7.39,8.49-8.23,4.53-4l2.78-2.89c6.47-6.48,1-.83,3.64-3.42L544,161.24c4-4.05-.28.46,10.58-10.43l-7.1,7.24c-2.83,3,15.6-15.42,13.86-13.46-5.94,5.89-9.75,9.8-14,14,0,.09-1,1.11,2.78-2.67-3.39,3.43,7.42-7.25,2.28-2,2.4-2.38,8.11-8.08,7.7-7.58L557.4,149c2.69-2.69,3.72-3.59,9.71-9.65-16.89,17.09,1.55-.93-13,13.74,1.91-1.75,3.75-3.41,4.22-3.74-1.64,1.62-2.72,2.7-2.17,2.13-5,5.14,15.75-15.52,10.18-9.77-8.78,8.82-4.84,4.68-8.15,8-18,17.85,2.58-2.3-7.86,8.18l-1.07,1c-6.07,6.1,7-6.62,5.75-5.26l-2.72,2.69c9.25-9,12.42-11.9,15.06-14.32-7.09,6.92-3.78,3.64-10.94,10.72,1.06-1,11.52-11.36,13.61-13.26-3.84,3.83-7.17,7.22-14.83,14.76l-.48.34c-9.88,9.79.43-.24-1.26,1.49l-4.34,4.25c1.51-1.28,12.45-12,11.79-11.11L564.2,146c10.9-10.55-6,6,2.08-1.79L555.3,155c2.69-2.56,10.79-10.25,12.94-12.19-8.21,7.93-12.48,11.92-17.38,16.6,0,.06.22-.1,1.14-.94s2.54-2.35,5.27-5c-1.08,1-3.8,3.63-2.12,2l9.77-9.36a31,31,0,0,1,3.17-2.85c-21.39,20.81-5.16,5.48-21.72,21.69,8.06-7.54-3.11,3.57-1.68,2.5,16.64-16.2.52-.41,17.66-17,1.14-1,.87-.73-.24.35l-10.13,10c-5,4.85-3.82,3.61-7.67,7.33-1.24,1.35-7.24,7-11.75,11.5,6.13-5.93,8.82-8.45,6.52-6.14l7.86-7.7c9.26-8.68-14.32,14-5.15,5.38l-5.44,5.16c3.25-3,.09.31,14-12.88-2,1.92-6.67,6.44-7.94,7.61-1.95,2.12,15-13.76,6.62-5.5l-4.23,4c1.24-1.14,8-7.51,3.76-3.43l-4.46,4.25c1.47-1.37,7.47-7,5-4.59l-4.78,4.49c-5.4,5.4,11.79-10.79,14.81-13.41-12.46,11.82-16.4,15.76-18.37,17.73L539,176.23c-1.39,1.61,10.59-9.5,15.65-14-13.48,12.87-5.37,5.67-12.85,13,2.26-2.16,9.77-9.14,11.05-10.29-2.5,2.41,8.79-8-2.71,2.71l.2-.22c-11.25,10.58-8.18,7.84-8.44,8.19l15.06-14c-21.77,20.58,8.44-7.08-11.13,11.28l7.62-6.84-8.1,7.51c-2,2-2.94,3-.9,1.34l-5.82,5.33c-.46.55,23.46-21.52,24-21.89l-12.09,11.2c.31,0-10.23,9.88.89-.12-1.78,1.63-5.29,4.85-5.8,5.28-.27.36-8,7.76,8.63-7.55-10.85,10-.94,1.1,3.91-3.21l-8,7.33c10.3-9.32,13.11-11.88,16-14.38-1,1-6.4,5.88-4.37,4-4.14,3.91,7.65-6.89,3.45-2.9l-5.16,4.65c-.56.63,2.19-1.88,8.2-7.3,3.26-2.89-1.9,2-9.16,8.61,4.44-4,10.39-9.37,8.34-7.43l-5.3,4.79c-5.37,5.09,9.51-8.32,1.68-1.07l-4.79,4.37a4.51,4.51,0,0,1,1.08-1.27c-7.41,6.74-8.65,8-18.94,17.24,5.63-5,17.88-16,14.45-12.72l-2.56,2.34-.84.75c-.73.69,0,.07,1.24-1-1.2,1.13-2.09,2-2.18,2.08-6.14,5.57-3.25,3.08-3.52,3.39,8.13-7.36,6.87-6.13,13.55-12.25-.58.53-1,.87-1.34,1.16l-.86.75.72-.64a4.66,4.66,0,0,1-.63.4c4.15-3.71,7.66-6.82,3.18-2.7l13.17-11.81L551.28,172.5c4.66-4,3.24-2.47,18.62-16.17,2-1.74-4.36,4-6.75,6.16-1.56,1.37-1.34,1.13-3.55,3.1,4-3.47,1.7-1.19,12.42-10.78-4.76,4.42-9.9,8.8-8,7.34l-3.29,2.92c-17,15.54,27.7-24.12,5.91-4.2l3.75-3.4c-9.48,8.93,9.67-7.51-5.53,6.46-3,2.83,3.84-3.24,9.13-7.81l-8.82,7.81,10.27-8.9c7.58-6.45-21.51,19.3-7.26,7l5.95-5.26c-1.07,1,3.67-2.91-3.2,3.1,1.09-.95,6.22-5.42,3.13-2.67l-4.63,4.06,8.06-6.82c-3.26,3-18.42,16.09-19.2,17,1.83-1.51,13.65-11.65,16.74-14.38.21-.22,2.84-2.59,7.49-6.65l2.47-2.06c13.69-11.93,27.74-24.11,37.16-32.61l-8.46,7.2,6.6-5.83.5-.27c6.2-5.51.65-.72-3.18,2.56l7.26-6.44-13.14,11.32c5.33-4.69,10.64-9.24,13.53-11.89-6.1,5.26-11.94,10.54-16,13.94,6.16-5.48,11.23-9.91,5.87-5.32,3.51-3.09,5.76-5,7.33-6.37-4.26,3.64-1.91,1.42-9.19,7.76,7.61-6.78-2.15,1.57,10.76-9.78-3.11,2.7-10.22,8.82-10.79,9.24,15.52-13.51.74-1,17.31-15.55-13.94,12.17-6.38,5.18-14.18,11.86,1.1-1,3.35-2.93,2.64-2.28,1.1-1.09,5.26-4.81,7.83-7.17-11.45,10.12-14.16,12.33-21.26,18.53,11-9.86,13.48-11.86,24-21.27-9.27,8.22-9.39,8.06-17.07,14.93,6.77-6.12,3.26-3,12.71-11.44-14.3,12.67-2.48,2.09-11.3,9.83,7-6.35,13.36-11.91,8.93-8.16C627.18,107.27,632.33,102.87,632.33,102.87Zm-26.74,19.67.16-.15.5-.37Zm-.3-.08c-.3.31-.33.39-.24.37-2.79,2.55-5.69,5.16-5.56,5C601.37,126.15,602.94,124.64,605.29,122.46Zm-56,51.38c-1.17,1,.42-.43,2.08-1.94.15-.12.44-.35,1-.84l1-.9Z" transform="translate(-241.53 2.42)"/><path class="cls-1" d="M560,164.24l.6-.53,1.81-1.67-2.56,2.3Z" transform="translate(-241.53 2.42)"/><path class="cls-1" d="M558.13,139l-.17.18,1.07-1.14Z" transform="translate(-241.53 2.42)"/><polygon class="cls-1" points="376.73 107.98 374.7 109.87 376.49 108.24 376.73 107.98"/><path class="cls-1" d="M583.08,110.84l1.91-2.05Z" transform="translate(-241.53 2.42)"/><path class="cls-1" d="M584.33,108.64l2.61-2.9Z" transform="translate(-241.53 2.42)"/><path class="cls-1" d="M587.71,104.36l-3.22,3.42,0,.05Z" transform="translate(-241.53 2.42)"/><path class="cls-1" d="M602.15,100.37l.36-.34C604,98.55,603.43,99.12,602.15,100.37Z" transform="translate(-241.53 2.42)"/><path class="cls-1" d="M582.66,117.13l3.66-3.67C586.87,112.83,587,112.66,582.66,117.13Z" transform="translate(-241.53 2.42)"/><path class="cls-1" d="M613.32,92.86l-.14.13s0,0,0,0Z" transform="translate(-241.53 2.42)"/><path class="cls-1" d="M586.26,113.67c1.5-1.6,1.14-1.28.06-.21C585.83,114,585.07,114.84,586.26,113.67Z" transform="translate(-241.53 2.42)"/><path class="cls-1" d="M589.6,99.31l.29-.34-1.2,1.29Z" transform="translate(-241.53 2.42)"/><path class="cls-1" d="M588.69,100.26l-.9.93S587.87,101.15,588.69,100.26Z" transform="translate(-241.53 2.42)"/><path class="cls-1" d="M585.88,103.18l1.91-2s.06-.09-.15.12Z" transform="translate(-241.53 2.42)"/><path class="cls-1" d="M586.61,103.46l2.71-2.91Z" transform="translate(-241.53 2.42)"/><path class="cls-1" d="M587.54,102.75c.58-.69,5.69-6.28,3.95-4.51l-2.16,2.31C593.37,96.24,582.94,107.63,587.54,102.75Z" transform="translate(-241.53 2.42)"/><path class="cls-1" d="M554.55,139.18l2.07-2.41c-2.87,3.11-6.74,7.29-7.47,8C540.63,154.1,555.58,137.81,554.55,139.18Z" transform="translate(-241.53 2.42)"/><path class="cls-1" d="M550.65,143.94c-1.4,1.39-4.21,4.49-5.85,6.23C547.47,147.39,548.15,146.68,550.65,143.94Z" transform="translate(-241.53 2.42)"/><path class="cls-1" d="M552.76,146l-6.91,7.19C546.87,152.2,548.52,150.4,552.76,146Z" transform="translate(-241.53 2.42)"/><polygon class="cls-1" points="347.43 111.69 351.68 107.18 345.31 113.74 347.43 111.69"/><polygon class="cls-1" points="298.32 163.07 297.32 164.07 299.9 161.53 298.32 163.07"/><path class="cls-1" d="M545.63,161.35l8.69-8.68C552.73,154.2,543,163.94,545.63,161.35Z" transform="translate(-241.53 2.42)"/><path class="cls-1" d="M556,154c-4.37,4.32-7.15,7.12-2.82,2.92C553.73,156.32,557.12,152.94,556,154Z" transform="translate(-241.53 2.42)"/><polygon class="cls-1" points="304.18 174.67 301.15 177.44 303.7 175.16 304.18 174.67"/><path class="cls-1" d="M468.87,536.62c1.81-3.32,1-11-3.93-9.55l-3.77,12.83Z" transform="translate(-241.53 2.42)"/><path class="cls-1" d="M436.72,511.52a44.88,44.88,0,0,0-8.91,11.81c-2.4,4.81-3.78,10.42-2.3,16.51a38.77,38.77,0,0,1,7.65-9.52c2-2,4.18-4.19,7.68-11.42,5-1.23,8.41,4.54,7.4,9.25,1.88-3.23,7.65,3.12,10.5-4.93-3.05-5.07-6.56-7.79-10.39-8.26a12,12,0,0,0-6,.94,26.08,26.08,0,0,0-6.54,4.18C434.16,517.1,436.16,513.87,436.72,511.52Z" transform="translate(-241.53 2.42)"/><path class="cls-1" d="M333.12,149.39l-3,1.24A5.2,5.2,0,0,0,333.12,149.39Z" transform="translate(-241.53 2.42)"/><path class="cls-1" d="M581,85c-2.16,0-3.23,1.12-3.5,2.26C579.55,86.71,581.28,86.18,581,85Z" transform="translate(-241.53 2.42)"/><path class="cls-1" d="M623.28,108a25.38,25.38,0,0,0-2.14-1.49C621.74,107.93,622.46,108.81,623.28,108Z" transform="translate(-241.53 2.42)"/><path class="cls-1" d="M333.12,149.39l3.9-1.52,4-1.39C338.17,143.32,336.09,147.18,333.12,149.39Z" transform="translate(-241.53 2.42)"/><path class="cls-1" d="M360.27,526.85a12.24,12.24,0,0,0,6.2-1.18,40.08,40.08,0,0,1-5.11-.56C361,525.72,360.7,526.24,360.27,526.85Z" transform="translate(-241.53 2.42)"/><path class="cls-1" d="M297,255.87l-.12,2.11a39.07,39.07,0,0,0,5.13,2L299.49,258Z" transform="translate(-241.53 2.42)"/><path class="cls-1" d="M306.5,345.12c0-2.06-10.85-.29-15.71,0,4.68.18,7.14,1.18,8.38,2.76A35.34,35.34,0,0,0,306.5,345.12Z" transform="translate(-241.53 2.42)"/><path class="cls-1" d="M360.24,476.44l2.93.06C362.38,476.56,361.22,476.34,360.24,476.44Z" transform="translate(-241.53 2.42)"/><path class="cls-1" d="M314.23,199.83a17,17,0,0,0,3.83,1.11A11.09,11.09,0,0,0,314.23,199.83Z" transform="translate(-241.53 2.42)"/><path class="cls-1" d="M455.25,41.19a15.41,15.41,0,0,0,.2,1.94C456.2,42,456.4,41.15,455.25,41.19Z" transform="translate(-241.53 2.42)"/><path class="cls-1" d="M561.34,129.71l-1.23-1c-1.78,1-3.52,2-5.17,3.15,0,0,1.57-.59,3.18-1.12S561.34,129.71,561.34,129.71Z" transform="translate(-241.53 2.42)"/><path class="cls-1" d="M669.12,154.63a1.93,1.93,0,0,0-.08-.4C666.73,153.51,667.67,154.24,669.12,154.63Z" transform="translate(-241.53 2.42)"/><path class="cls-1" d="M345.93,357.48c-3.17,5.28-7.15,3.77-11.24,2.42-2-.65-4-1.23-5.89-.7a5.6,5.6,0,0,0-2.7,1.78,12.34,12.34,0,0,0-2.32,4.34c1.8-1.33,6.78-.25,11.61-.55a14.67,14.67,0,0,0,6.63-1.7A8.34,8.34,0,0,0,345.93,357.48Z" transform="translate(-241.53 2.42)"/><path class="cls-1" d="M357.88,524.17a36.42,36.42,0,0,1-4.71-2.08A10.66,10.66,0,0,0,357.88,524.17Z" transform="translate(-241.53 2.42)"/><path class="cls-1" d="M323.79,365.31l-.08,0-.47,1.61Z" transform="translate(-241.53 2.42)"/><path class="cls-1" d="M711.73,308.46a15.39,15.39,0,0,0,5-1.35C715.59,307,714.17,307.32,711.73,308.46Z" transform="translate(-241.53 2.42)"/><path class="cls-1" d="M717,178.42l.46,3.39A6,6,0,0,0,717,178.42Z" transform="translate(-241.53 2.42)"/><path class="cls-1" d="M709.74,380.86c-1.51,1.35-3.14,1.29-2.79,4.15a5.44,5.44,0,0,0,1.53-.15C707.48,383.43,707.3,382.08,709.74,380.86Z" transform="translate(-241.53 2.42)"/><path class="cls-1" d="M670.56,435.22a18,18,0,0,0,2.24,1.05c.38-.56.86-1.15,1.27-1.69Z" transform="translate(-241.53 2.42)"/><path class="cls-1" d="M370.55,325.69a31.14,31.14,0,0,1,5.49-9.45c-2.8,2.82-6.87,1.51-8.88,1.26-1-.11-1.52.06-1.12,1.2S367.78,322,370.55,325.69Z" transform="translate(-241.53 2.42)"/><path class="cls-1" d="M362.64,521.16c-1.65,2.3-3,3.16-4.76,3a24.43,24.43,0,0,0,3.48.93C362.29,523.72,362.94,522.32,362.64,521.16Z" transform="translate(-241.53 2.42)"/><path class="cls-1" d="M787.87,418l-1.28,2.3c-.78,1.38-1.77,3.2-2.86,5-2.17,3.67-4.48,7.29-4.48,7.29.78-.94,1.57-2,2.36-3.11s1.53-2.32,2.28-3.57A74.08,74.08,0,0,0,787.87,418Z" transform="translate(-241.53 2.42)"/><path class="cls-1" d="M640.78,23.63l4.16.1A3.92,3.92,0,0,0,640.78,23.63Z" transform="translate(-241.53 2.42)"/><path class="cls-1" d="M751.1,477.71a32.93,32.93,0,0,0-6.93.72,28.14,28.14,0,0,0-3,.83c-1,.31-1.89.67-2.78,1.06a9.91,9.91,0,0,0,.5,3.53l1.92-.9c1.15-.55,2.72-1.27,4.22-2.05l4.18-2.16Z" transform="translate(-241.53 2.42)"/><path class="cls-1" d="M376.11,316.15a.2.2,0,0,1-.07.09A.2.2,0,0,0,376.11,316.15Z" transform="translate(-241.53 2.42)"/><path class="cls-1" d="M312.89,220.49A17.73,17.73,0,0,0,314.1,226a8.36,8.36,0,0,0,2.14,3.18c1.66,1.46,3.76,1.73,6,1.52,4.58-.44,10-2.64,14.32-1.59,1.9,4.55,2.29,7.45,1.78,9.44s-2,3-3.87,3.83c-3.82,1.58-9.44,1.82-12.2,6.12a30.74,30.74,0,0,0,6.47,7.62c1.24,1.1,2.51,2.15,3.81,3.13s2.63,1.88,3.91,2.77c5,3.61,9.61,6.57,10.89,10.74-2,1.48-2.1,3.39-5.64,2.64,7.72,3.68,11.36,11.91,16.17,19.85s10.37,15.7,20.15,17.43a9.14,9.14,0,0,1-2,3.47,53.06,53.06,0,0,1,15.36-12.61c1.83,2.53,5.31,3.64,7.57,4.93s3.24,2.88.19,6.66c-2.1-3.24-5.31-1.28-8.79-1.08l3.61,1.55,3.65,1.46c-3.55,6.53-5.85,5.43-8.35,3.32s-4.94-5.14-9.08-2.3c5.74,4.43,13.38,8,20.1,11.42s12.53,6.71,15.06,11.7c-1.84,2.81-4.11,3.36-6.43,2.79a13.69,13.69,0,0,1-3.5-1.47c-1.12-.67-2.2-1.44-3.22-2.16-2-1.42-3.67-2.68-4.81-2.37s-1.75,2.14-1.3,6.92c0,0-.55-1-1.28-2.55s-1.76-3.56-2.64-5.6c-1.85-4.07-3.4-8.13-3.4-8.13-2.11,5.74-3.39,8.17-4.43,8.78s-1.78-.53-2.58-1.68-1.65-2.29-2.93-1.7-3,2.9-5.39,8.9a51.51,51.51,0,0,0,4.64,6.88,45.92,45.92,0,0,0,4.72,5,57.07,57.07,0,0,0,9.44,6.65l4.82,2.85c1.66,1,3.29,2.09,5.12,3.33s3.62,2.71,5.72,4.38c1,.85,2.1,1.77,3.2,2.77s2.34,2,3.58,3.21c4.57-1.31,5.61-3.91,6.75-6.43s2.28-5,6.6-6.59a51.59,51.59,0,0,1,6,1.6,26.73,26.73,0,0,1,4.71,2,20,20,0,0,1,6.46,5.16,25.26,25.26,0,0,1,3.75,6.46c1,2.29,1.69,4.73,2.41,7a58,58,0,0,0,2.37,6.65,15,15,0,0,0,3.57,5.16c3,2.62,7.75,3.58,14.87.61A46.92,46.92,0,0,0,478,393.1a52.06,52.06,0,0,1,5.68-6.48c4-3.54,8.57-4.79,15.57.48,0,0-1.71,3.57-3.49,7.12l-2.48,4.88-1.16,2.21c5.2,1,8.58.22,11.07-1.33s4.13-3.84,5.73-5.86c3.27-4,6.26-7,15.68-1.33-1.95,2.84-5.69,3.79-8.64,4.31s-5.09.54-3.74,1.55c11.92,12.76,9.63-7.78,19.36-7.19L533,404.8c10.32-.52,21.43-3.15,32.77-6.33s22.88-6.92,34.53-9.67c-.76,4.08-4.51,8.75,1.76,12,15.14-5.29,31.66-8.46,49.06-12.2,4.43-1.05,8.93-2,13.36-3.16s8.88-2.34,13.33-3.55a247,247,0,0,0,25.92-9l.68-2.67c.4-1.59.91-3.7,1.35-5.87.9-4.32,1.59-8.52,1.59-8.52a4.58,4.58,0,0,1,4.57,0,3.51,3.51,0,0,1,2,4.23c6.63-2.88,5.56-4.4,3.07-6.08s-6.27-3.73-5.45-7.45a8.83,8.83,0,0,1,3.84-2.57,5.61,5.61,0,0,1,3.67.14,5.27,5.27,0,0,1,3.13,6.17l2.11-4.65c.37-.8.75-1.59,1.12-2.44l1.12-2.58c1.51-3.48,3.17-7,4.72-10.87l2.44-5.71q1.15-3,2.35-5.94l1.22-3c.4-1,.75-2,1.14-3q1.14-3,2.34-6c3-8.14,6-16.08,8.9-23.66.74-1.88,1.56-3.72,2.36-5.51s1.58-3.54,2.4-5.21a66.48,66.48,0,0,1,5.44-9.27s.65,1.32,1.27,2.69,1.23,2.75,1.23,2.75a14.49,14.49,0,0,0,.32-12c-1.44-3.35-3.94-6.13-6.31-8.71-4.76-5.2-8.89-9.53-3.54-17l1,1.44,1,1.47a98.48,98.48,0,0,0,1.05-13.27c0-4.44,0-8.89-.43-13.37-.6-8.94-2-17.87-3.32-26.6q-.55-3.28-1-6.53l-.45-3.24-.5-3.22q-.47-3.22-.79-6.4c-.24-2.12-.52-4.24-.68-6.35s-.23-4.21-.35-6.32-.15-4.21-.1-6.31a101,101,0,0,1,1.06-12.71,8.53,8.53,0,0,1-5.31-1.42,11.84,11.84,0,0,1-3.61-4.06,34.8,34.8,0,0,1-2.52-5.79c-.84-2.1-1.63-4.34-2.46-6.54C732,102.08,727,94,716.71,99.49c-.35-3-.57-5.72-.75-8.09s-.45-4.39-.58-6.27a90.9,90.9,0,0,0-.91-10A44.37,44.37,0,0,0,711,64.09c-1.1-2.2-2.49-4.67-4.3-7.55A84.27,84.27,0,0,0,699.59,47a8.31,8.31,0,0,0-2.86-1.88,9.17,9.17,0,0,0-1.61-.47,12.92,12.92,0,0,0-1.74-.14,32.3,32.3,0,0,0-7.62,1.09c-2.66.63-5.36,1.28-8.05,1.69a17.05,17.05,0,0,1-7.95-.33l5.76-10.56-3,.51c-1.8.27-4.21.89-6.56,1.44-4.72,1.14-9.2,2.43-9.2,2.43l-.12-2.52c-.08-1.5-.2-3.52-.35-5.54-.3-4-.74-8.14-.74-8.14l-1.67-.19c-1-.09-2.33-.29-3.65-.34l-5.24-.28a10.2,10.2,0,0,1,4,5.1c.8,2.14.9,4.42,0,5.9a27.71,27.71,0,0,1-5.9-1,29,29,0,0,1-5.64-2.36,45.56,45.56,0,0,1-10.06-7.08,43.78,43.78,0,0,1-7.25-8c-1.76-2.61-2.68-4.8-2.44-6.34l-5.73.42c-3.45.2-7.88.79-12.29,1.32-2.21.25-4.37.61-6.38.94l-5.49.91c-1.61.25-2.91.53-3.82.71l-1.44.29c.62-2.36,2.33-3.83,4.52-5s4.86-2,7.3-3.19c-4.9,2.45-7.4,2.83-8.71,2.27s-1.5-2.22-1.63-3.89-.21-3.37-1.37-4.05-3.42-.41-7.68,2.07c1.9,2.88-1.77,7-2.3,9.44a19.85,19.85,0,0,0-7.23-4.71,41.19,41.19,0,0,0-9.75-2.36A62.85,62.85,0,0,0,545,4.84a65.8,65.8,0,0,0-10.18,1.49L536,2.2l1.27-4.13c-22.74-2.33-48.73,4.19-76.11,7.65,5.19,1.24,7.53,5.63,7.69,9.87S467,24,463.31,25.22l-2.39-6.09-2.45-6.08c-2,4.24.25,5.13,1.81,6.36s2.44,2.73-1.92,8.22c-5,0-7.2-3.27-7.58-7.2a14.31,14.31,0,0,1,3.85-11l-1.84,1c-1.1.6-2.56,1.36-4,2.18L443,15.84c-1.44-3.59,1.11-6.08,1-11-1,2.18-2.92,2.7-5.47,2.61s-5.65-.94-8.86-1.45a37.05,37.05,0,0,0-4.78-.53,14.64,14.64,0,0,0-4.45.53,8.17,8.17,0,0,0-3.63,2.14,9.85,9.85,0,0,0-2.32,4.45l-1.77-3.43a140.64,140.64,0,0,0-33.54,14.3C370.12,28.75,362,34.2,351.3,41a10.64,10.64,0,0,1,1.55,6.19,13.41,13.41,0,0,1-1.76,5.17c-1.82,3.34-4.36,7.15-4.64,12.77-8.06,3.75-17.29,7.44-26.36,12.9s-17.86,12.76-24,22.25c-1.18,4-1.4,6.58-1.1,8.3a4.85,4.85,0,0,0,2.21,3.32c2,1.37,4.68,2,5.72,6.53a8,8,0,0,0-6.82.17,22.58,22.58,0,0,0-3.28,1.77c-1.06.67-2.08,1.39-3,2.06-3.58,2.65-6.22,4.32-6.71-2.43l-3.73,8.31c-.59,1.27-1,2.51-1.49,3.71l-1.29,3.5c-.81,2.27-1.6,4.44-2.25,6.59s-1.14,4.27-1.65,6.46c-.25,1.09-.5,2.2-.74,3.34s-.48,2.29-.63,3.48c-.35,2.38-.66,4.9-1,7.64s-.47,5.68-.59,8.91-.27,6.75-.14,10.58c4.7-2.09,7.44-5,10.21-2.34a8.85,8.85,0,0,1-4,7.06c-2.34,1.72-5.29,2.57-7.54,1.65l-.66-1.62c.2,1.12.34,2.23.45,3.33s.2,2.19.22,3.28a37.94,37.94,0,0,1-.43,6.47,57.11,57.11,0,0,1-3.41,12.71,120.92,120.92,0,0,1-5.62,12.58c-2,4.15-4.38,8.38-6.46,12.47s-4.21,8.24-5.9,12.22c-.86,2-1.64,4-2.32,6a54.38,54.38,0,0,0-1.61,5.76,36.13,36.13,0,0,0-.8,5.61,26.72,26.72,0,0,0,.24,5.42,23.65,23.65,0,0,0,1.43,5.32,24.64,24.64,0,0,0,2.82,5.14l-.93-1.49s2.23,6.74,4.68,13.66l1.82,5.08,1.65,4.45,1.67,4.34c-.81,6.43-2.68,4.59-5.16,2.2-1.24-1.2-2.58-2.48-4-2.88s-3,.09-4.5,2.59a77.5,77.5,0,0,1,7.93,21.6c1.39,6.68,1.82,13.15,2.46,19.48.13,1.59.29,3.15.48,4.7s.37,3.1.59,4.64a67,67,0,0,0,2,9,39.55,39.55,0,0,0,9.66,16.71c-5,7.42-5.4,15.6-3.12,23.68s7.22,16,12.71,23.35S285.7,449,290.37,456s8,14.2,8.29,22.22l4.59-5.41c4.71.54,5.13,2.7,4.64,5.36s-1.92,5.83-1,8.25c3.71-4,.35-9.51,5.85-8.68,5.15,4.75,10.12,9.65,15,14.7s9.53,10.18,14.5,15.66c9.92,10.87,20.55,22.83,34.2,34.31a171.44,171.44,0,0,0,22.75,16.3,177.33,177.33,0,0,0,25.72,12.57,196.89,196.89,0,0,0,50.64,12.43c5.83.44,9.61-1.52,12.23-4.66s4.24-7.22,6-10.86a29.39,29.39,0,0,1,2.85-5,10,10,0,0,1,3.88-3.33,10.09,10.09,0,0,1,5.86-.59,30.57,30.57,0,0,1,8.8,2.94s-1.52,3.4-3.11,6.81-3.26,6.82-3.26,6.82a198.25,198.25,0,0,1,31.7-11.14c10.44-2.78,20.74-5,30.88-7.3,20.23-4.65,39.55-9.89,55.23-21.78-1.21,3.51-.07,7.21-3.59,8.27,5.23,3.26,12.1,1.18,17.61-2.72a29.14,29.14,0,0,0,3.82-3.22,22.83,22.83,0,0,0,2.95-3.55c1.56-2.37,2.31-4.75,1.72-6.56,3.07-.6,4,.91,4.73,2.87s1.34,4.39,3.86,5.55c2.53.56,4.86-.33,7.08-1.94a44.34,44.34,0,0,0,6.23-6c2-2.14,3.86-4.18,5.75-5.23a4.94,4.94,0,0,1,6,.35c1.43,1-1.22,3.87-2.57,5.25,2-3.34,8.79-6,14-9.35a24.61,24.61,0,0,0,3.43-2.45,8.35,8.35,0,0,0,2.09-2.48c.8-1.64.23-3.24-2.45-4.84,9-2.09,16-8.09,22.19-14.15,1.56-1.49,3-3,4.54-4.51s3-2.9,4.48-4.22a49.21,49.21,0,0,1,4.69-3.64,32.79,32.79,0,0,1,5.24-2.82,12.93,12.93,0,0,1,2.86-9.62,31.17,31.17,0,0,1,3.44-3.89c1.23-1.25,2.52-2.47,3.75-3.68,4.85-4.86,8.46-9.75,2.12-15.66,3.47,2.73,7,3,10.36,1.64a16.05,16.05,0,0,0,4.75-3.27,27.26,27.26,0,0,0,4.06-5.14c4.85-7.8,6.87-18.56,5-24.93,1.74,2.68,3.9,1.2,6.29-.18s5-2.63,7.56.74c.58-1.42,1.14-2.85,1.57-4.26s.75-2.82,1-4.17a26.39,26.39,0,0,0,.51-7.48c-.5-4.44-2.8-7.48-7.39-8a22.77,22.77,0,0,0,7.66-6,19.16,19.16,0,0,0,3.48-7.28c1.37-5.12.62-10.52.06-15.51-.26-2.5-.62-4.88-.7-7.11a16.26,16.26,0,0,1,.78-6.16c1.35-3.73,4.51-6.61,11.72-8.39-1.83-17.46-4.18-33.37-6.45-48.39s-4.49-29.12-6.38-42.8c4.39.3,6.69,2.34,7.92,5.25s1.37,6.7,1.56,10.41.31,7.41,1.6,10.13,3.64,4.53,8.28,4.44c-3-13.73-8.38-24.27-12.45-34.51A78.42,78.42,0,0,1,796.7,231a76.53,76.53,0,0,1-.57-19.18c.92-4,2.9-3.1,5.06-.73s4.37,6,5.91,7.24c-2.08-7.45-3.46-15.41-5.24-23.88-.89-4.21-1.88-8.61-3.11-12.93S796.2,173,794.69,169c-6.11-16-14.68-28.89-26.26-36.57,1.36-.89,4.49.29,7.2,1.85a31,31,0,0,1-2.4-3.44,19.62,19.62,0,0,0-2.27-3.16c-1.61-1.65-3.51-2.15-6.5.51l2.36,1.31,1.62.91.74.43c-1.11,3.41-3.68,4.92-6.91,5.43s-7.14.08-11-.53c-7.78-1.26-15.49-3.15-18.1-1.51,11.26-4.36,8.74-9.69,7.15-15s-2.22-10.56,12.7-15.37c-3-1.24-8.36-1.64-12,2.35-1.69-4.36-.32-7.54,7.3-8a34.49,34.49,0,0,0-4.81-2.82,22.27,22.27,0,0,0-4-1.48,27.19,27.19,0,0,0-6.27-.73c-3.73-.15-6.75-.49-12.29-6.33,2.8-2.68,6.2-1.35,10.65-3.24-5.59-.44-11.22-.78-16.44-2.42s-10-4.58-14.77-10.38c2.13-1.28,2.65-4.76,6.12-1.9a50,50,0,0,0-17-8A106.45,106.45,0,0,0,671.81,58a146.28,146.28,0,0,1-16.68-2.16,49.89,49.89,0,0,1-16.24-6.45c2.88-3.58,4-5.8,3.91-7.42s-1.21-2.57-2.67-3.53c-2.92-1.93-7-3.75-5.94-11l-2.27.16-4.9.43-4.8.5-2.15.25,3.71,8c-11.24-2.64-22.65,6.07-31.3-.16l4.58-2.28,4.62-2.26L598.36,32c-2-.06-4.64-.18-7.29-.23l-7.28-.14-3.31,0,1.72,1.11c1,.66,2.4,1.55,3.75,2.47l5.41,3.62c-6.13,2.86-6.49,7.46-7.1,10.57s-1.41,4.69-8.27,1.69c3.09-1.1-10.65-1.61-15.42-10.72a0,0,0,0,0,0,0c-3,2-5.93,4.11-9.1,5.14a12.41,12.41,0,0,1-10.44-1c-1.75-4.8,2.95-15.93,1.81-19.12-3.21,5.85-9.74,6.21-16.46,6.82a39,39,0,0,0-9.77,1.73,13,13,0,0,0-7.39,6.09c2.33-3,2.68-10.63,2-12.21l-2.4,4.89-2.37,4.89c-5-3.26-5.79-4.77-4.88-10.86-7.79-1-6.55,3.69-5.7,7.51s1.36,6.92-7.74,3c1.42-.82.72-2.29,3.7-3.8-9.16-2.06-18.29-.25-27.2,1.9-4.46,1.08-8.87,2.25-13.31,3.09-2.22.41-4.45.76-6.72,1a42.58,42.58,0,0,1-6.89.21c-2.08-3.31-2.23-5.38-1.31-6.81s2.85-2.22,4.78-2.92c3.86-1.37,7.78-2.21,3.61-7.85a75.74,75.74,0,0,0-10.25,3.5c-1.69.69-3.37,1.4-5,2.17s-3.26,1.7-4.86,2.58-3.2,1.78-4.78,2.69-3.08,2-4.61,3c-3,2-6.05,4-8.89,6.14l-4.28,3.12L400,46.58l-2.07,1.58c-2.73,2.11-5.51,4-8.22,5.93a85.24,85.24,0,0,1-8.2,5.29,60.27,60.27,0,0,1-8.41,4.37l4.82-1c3.73,9.82-1.3,9.7-8.14,9.58-1.72-.05-3.56-.12-5.39-.08a23.46,23.46,0,0,0-5.26.72c-3.3.91-6.13,2.71-7.06,6.6,1.44-3.08-3.67-11.63-3-9.28a40,40,0,0,0-5.63,3.46,39.34,39.34,0,0,0-5.12,4.37,70.16,70.16,0,0,0-9,11.26c-5.66,8.43-10.62,18.72-16.48,30.16L311,113.69a31.06,31.06,0,0,0-7.43,4.65,83.64,83.64,0,0,0-7,6.8C292.1,130,288,135.31,283.76,139c1.2,2.88.75,5.42,1.06,7.43s1.41,3.47,5.61,4.17c-10.83,2.31-17.72,8-22,15s-6,15.44-6.94,23.69-1.08,16.41-2.78,23.86A37.44,37.44,0,0,1,246.5,234c.44-3.57-3.15-9.46-3.68-6.54l0,1.17c0,.74,0,1.8.07,3.06.08,2.53.22,5.87.47,9.16s.56,6.54.82,9l.48,4c4.57-.7,6-1.41,7.18-2.54a24,24,0,0,1,5.93-4.89c5,3.62,8.62,10.45,8.42,16.19-2.76-5.35-6.34-5.62-9.94-3.82s-7.14,5.62-9.69,8c2.78-.73,5.79,1,8.6.63-4.08,3.05-4.91,4.8-4.15,5.87s3.21,1.49,5.8,2,5.35,1.23,6.78,2.8,1.59,4-1,8.3l-4.76-.75c1.32,3.15,3.52,6.1,5.46,9.06s3.27,6,2.9,9.38c-5,1.84-6.47.29-7.58-1.74s-2-4.49-6.33-4.44a13.91,13.91,0,0,0,3.68,7c1.94,2.24,4.29,4.38,6.29,6.48a29.36,29.36,0,0,1,2.65,3.15,10.42,10.42,0,0,1,1.67,3.18c.63,2.16.17,4.4-2.12,6.92a22.66,22.66,0,0,1-3.82-6.55c-.52-1.19-1.07-2.38-1.65-3.52a15.33,15.33,0,0,0-2-3.17c-5.67,5.42-7.46,8.46-8.16,11a14,14,0,0,0-.36,3.73c0,.65,0,1.34,0,2.11s0,1.6-.12,2.54l.16-.76-1.33,8.87c-.36,2.24-.55,4.46-.76,6.15l-.31,2.81,2.38-4.94c7.3,1.81,11.54,4.07,14.14,6.73s3.76,5.67,4.57,8.91a41.45,41.45,0,0,0,3.33,9.95,18.87,18.87,0,0,0,1.57,2.43,19.41,19.41,0,0,0,2.2,2.3,24.93,24.93,0,0,0,6.5,4.09c-5.17-2.39-8.42-3.67-10.53-4.09s-3.09,0-3.78.83c-1.38,1.65-1.57,4.94-7.4,6.11-.91,2.56-1.74,5.73-2.78,8.18s-2.24,4.16-4.13,3.78c5.91,2.34,5.2,6.17,5.37,10.28a11.22,11.22,0,0,0,1.69,6.09c1.33,1.94,3.67,3.74,8.07,5-3.28,2,3.2,8.17-6.24,10.43,1.77,2.2,3.05,2.93,3.92,2.83s1.4-1,1.84-2.29c.9-2.5,1.6-6.18,3.95-6.74a17.49,17.49,0,0,1,8.62,10.49,68.23,68.23,0,0,1,1.88,7.19c.53,2.54,1,5.22,1.5,7.95a82.73,82.73,0,0,0,2.19,8.1c.45,1.34,1,2.67,1.53,4a35.55,35.55,0,0,0,2.06,3.77,26.64,26.64,0,0,0,15.09,11.32c9.3,6.22,17.31,7.53,24.84,8.25s14.71.87,23.36,3.42c.52,4.12-2.36,6.32-5.66,7.27a19.29,19.29,0,0,1-4.6.66,16.42,16.42,0,0,1-2.16,0A23.16,23.16,0,0,0,349,501.53a25.73,25.73,0,0,0,3.09,1.6,31,31,0,0,0,3.4,1,32,32,0,0,0,7.5,1c-3.24,2.14-2.7,5.5-1.56,10.74a6.22,6.22,0,0,0,5.17-.44,31.27,31.27,0,0,0,4-2.82c2.54-1.86,4.84-2.77,8.82,1.45-3,3.45-7.44,9.24-12.91,11.59,1.36.06,2.72.07,4.09,0s2.74-.25,4.11-.44a75.28,75.28,0,0,0,8.13-1.49c2.68-.64,5.31-1.22,7.89-1.85a67,67,0,0,1,7.57-1.49c.55,3.49-1.32,5.69-4,7.35s-6.08,2.92-8.38,4.53c3,0,6.3-.05,9.72-.15a70.11,70.11,0,0,0,10-1.26,28.9,28.9,0,0,0,8.55-3.26,13.46,13.46,0,0,0,5.35-6l-3-2.25c-1.5-1.1-3-2.29-3-2.29,3.7,0,.75,9.23-2.38,10.7-2.54,1.7-4.64,2.19-6.3,1.92a5.79,5.79,0,0,1-3.79-2.79,16.2,16.2,0,0,1-1.93-8.75L406,517c-.69-5.81-2.52-8.75-5.16-10a9.31,9.31,0,0,0-4.5-.89,20.15,20.15,0,0,0-2.63.24c-.91.12-1.85.26-2.82.45-1.94.37-4,.89-6.12,1.39s-4.26.84-6.38,1.13a25.11,25.11,0,0,1-6.14.17,12.83,12.83,0,0,1-5.23-1.45l1.82-2c1.08-1.19,2.52-2.81,3.92-4.44,2.81-3.25,5.45-6.57,5.45-6.57l-2.6,1.24-2.73,1.24c-1,.43-2.07.84-3.16,1.27-2.17.84-4.42,1.65-6.14,2.24-.86.3-1.58.54-2.08.67l-.79.23a15.7,15.7,0,0,1,1.67-8.81c1.46-2.74,3.76-4.71,6.88-4.46-1-2.75-1.93-4.06-3-4.59a5.33,5.33,0,0,0-3.24-.22c-2.07.24-4.19.33-4.65-5.28.17-1.6.9-2,1.84-2.15l-1.42-.08c-.85-.06-2-.13-3.17-.24l-3.2-.38c-.89-.1-1.46-.21-1.46-.21,3.35-1.67,6.22-9.65,8.38-5-1.24-3.86-3.14-6.07-5.5-7.5a17.29,17.29,0,0,0-3.74-1.72c-1.28-.47-2.62-.81-3.88-1.17-5.05-1.39-9.23-2.83-6.16-8.76l.76.14.76.13c-4.13-2.88-6.83-4.15-8.92-4.3s-3.57.79-5.16,2a19.93,19.93,0,0,1-5.91,3.71c-2.62.91-6.15,1.2-11.41-.34l2.84-4c1.72-2.39,4.05-5.55,6.42-8.65s4.8-6.16,6.63-8.42l3.09-3.77-5.59,2.23L318,432.32c-.73-2.09-2.12-6.21,2.41-7.89-2.78-.68-4.38-.84-5.39-.64a2.42,2.42,0,0,0-1.8,1.39c-.72,1.27-1.17,2.93-5.66,2.71a14.2,14.2,0,0,0-.7-9.92,75.82,75.82,0,0,0-4.46-8.67,19.56,19.56,0,0,1-1.75-4.08,9.64,9.64,0,0,1-.4-3.95c.33-2.58,2-5,6.19-7.38-2.43,0-3.82.76-4.69,1.76a8.77,8.77,0,0,0-1.49,3.22c-.64,2-1.37,3.07-6.5-.94,8.82-5.42,6.88-8,3.29-10.88a26.26,26.26,0,0,1-5.23-5,7.24,7.24,0,0,1-1.29-3.3,6.55,6.55,0,0,1,.08-1.92,9,9,0,0,1,.77-2.15c5.4-.23,7.59,2.1,9.09,3.06s2.35.47,5.26-5.34c-9.28.23-9.78-4.54-8.5-9.89s4.43-11.31,2-14.64c-3.46.75-5.8.18-7.48-1.3a9.28,9.28,0,0,1-2.09-2.85,22.38,22.38,0,0,1-1.32-3.9c-1.53-5.74-1.94-13.27-5.2-19.54,1.21,0,2.09-1.56,2.79-4.16.35-1.3.65-2.84.94-4.56s.65-3.62,1-5.61.56-4.06,1-6.16.77-4.21,1.17-6.27l.63-3c.24-1,.5-2,.77-2.88.53-1.86,1.08-3.58,1.68-5.08l2.38.3a14.61,14.61,0,0,1-8-3.27,13.28,13.28,0,0,1-3.63-6c-1.53-4.65-1.41-10.15-2.64-14.83,8.55.84,11.81,2.63,15.49,7.52,0,0,0-2.08.12-4.12s.18-4.08.18-4.08c-4.45-2.2-6.73-5-7.8-10.5l5.22,1.58,5.22,1.53c.22-5.24-2.22-10.79-3.3-16.74s-.78-12.21,4.71-17.29a28.83,28.83,0,0,0-8.59-1.66c-3.25-.26-6.75-.34-10-.78s-6.35-1.26-8.66-3.14a9.81,9.81,0,0,1-2.82-3.72,15.53,15.53,0,0,1-1.13-5.82c5.33,1.23,14.08,4,14.84,8.58-.11-.75-.79-2.26-1-3.83s0-3.18,1.59-4c0,0,1.54,2.34,3.11,4.58s3.22,4.42,3.22,4.42c2.94-2.36,1.52-3.76-.38-5.26s-4.2-3-2.74-5.34c7.06,3.06,6.58-1.44,11.88,1.73.06.73-1.08,1.43-2,2.32s-1.66,2-.57,3.45a21,21,0,0,1,7.26-6.23,16.38,16.38,0,0,1,9.36-2c-4.12-1.56-9.27-4.65-8.17-8.89,2.4-5,4.92-4.59,7.58-3.44s5.54,3,8.78,1.48c-1.6-2.46-.37-4.42.16-6.52s.23-4.4-4.47-7.7c1.9-2.66,6.63-.1,9.89.7-.49-3.75,3.17-9.32,5.42-14.19,1.12-2.45,1.87-4.7,1.5-6.52s-1.89-3.25-5.33-3.9l-1.61.67c0-.37.21-.64.24-1.07l0,0,0,0a27.54,27.54,0,0,1,2.46-7.67,31.24,31.24,0,0,1,4.39-6.26,38.16,38.16,0,0,1,5.7-5.16c1-.79,2.08-1.55,3.15-2.29s2.21-1.4,3.32-2.08c2.26-1.33,4.48-2.68,6.75-3.94s4.49-2.52,6.58-3.88a52.11,52.11,0,0,0,6-4.28c.93-.78,1.79-1.64,2.64-2.49a26.64,26.64,0,0,0,2.41-2.73l2.36,3.05a39,39,0,0,1,2.54-3.76,41.9,41.9,0,0,1,3-3.43c2.1-2.21,4.29-4.4,6.47-6.42,4.25-4.26,8.16-8.31,9.72-14,1.53-.79,4.16-.19,6.46,1.23s4.28,3.66,4.71,6c.76-.8,1.4-1.59,2-2.32s1.14-1.36,1.64-2a19.35,19.35,0,0,1,3.09-3.24,9.72,9.72,0,0,1,1.94-1.17,11.55,11.55,0,0,1,2.57-.67,27.36,27.36,0,0,1,7.81.11c-2.72,4.61-1.44,5.77-1,6.13s.29,0-5,1.52a47.82,47.82,0,0,1,7.06.11,27.41,27.41,0,0,0,5.36.22A8.54,8.54,0,0,0,437,88.83a27.43,27.43,0,0,0,5.28-6.69,8.34,8.34,0,0,0,1.16,6,7.32,7.32,0,0,0,3.92,2.69A10.06,10.06,0,0,0,456.1,89s-2-1.49-4-2.92S448,83.37,448,83.37a21.87,21.87,0,0,1,3.75-1.48,23,23,0,0,1,3.76-.64,49.9,49.9,0,0,1,7.54.07l-.64,6.59c-.3,3.3-.54,6.59-.54,6.59a16.36,16.36,0,0,0,14.89,1.74c4.8-1.57,9.67-4.69,14.58-7.4s9.68-5,14.34-5,9.15,2.5,13.25,9.29c3.27-4.37.21-6.16-3-8.05s-6.52-4-3.55-9.21c5.46,1.06,10.82,6.4,15.07,11.55S535,97.5,536.65,97.65c6.92,4.15,10.64-.24,14.66-4.88,2-2.33,4-4.71,6.54-6.07s5.43-1.76,9.12,0a20.33,20.33,0,0,1,.14-10.83c1.27-4.08,4.29-7.94,10.56-9.24,5.46,1.66,8.11,7,8.41,12.22s-1.65,10.3-5.3,11.63c-2.62,0-3.64-1.65-3.3-3.18-3.73,1.14-8.51,2.5-5,8.06l2-4.39c4.64,5.39,19.18,7.35,14.47,14.27,8.63-2.92,4.76-6.88-.79-10.27a32.26,32.26,0,0,0,8.72,4.53,47,47,0,0,0,8,1.82c5.25.84,10.55,1.48,16.17,5.27-1.3-3-1.9-8.73.13-8.16,4.36,2.59,7,3.56,8.92,3.54a5.45,5.45,0,0,0,4.23-2.34c2.21-2.56,4.14-6.41,10.6-5a8.94,8.94,0,0,1,.52,6.17,31.71,31.71,0,0,1-1.74,4.49c-.49,1.2-.67,2.09.08,2.62a4.25,4.25,0,0,0,1.86.56,33.8,33.8,0,0,0,3.7.1,6.66,6.66,0,0,1,.79,4.93,8.72,8.72,0,0,1-2.22,3.81,35.34,35.34,0,0,1-6.75,5.11c2.88-1,5.16-.72,6.69.42a6.45,6.45,0,0,1,1.91,2.19,12.78,12.78,0,0,1,1.2,3c1.23,4.3,1,9.46,2.35,11.74,0,0-.38,0-.94-.05l-2,0c-.73,0-1.45,0-2,0l-.88,0c3.34-.19,5.07,1.45,6.84,3.11l2.09-4.36c1-2.18,2-4.41,2-4.41.3.81.63,1.52.93,2.18a10.87,10.87,0,0,1,.7,1.92,3.68,3.68,0,0,1-1.29,3.72c3.27-1,5.55-4.19,8.26-7.31s5.88-6.22,11.49-6.44c0,3.38,3.56,5.29,6.16,7.69s4.23,5.25.2,10c-3.88-7.57-5.84-5.06-8.21-2-1.18,1.57-2.46,3.31-4.09,4.13s-3.59.74-6.08-1.21a7.15,7.15,0,0,1,3.53,2.28,13.62,13.62,0,0,1,2.47,4.69c-.65,1.34-2.27,1.26-3.47,1,.82,9.25,4.73,8.55,9.64,6.87,2.47-.82,5.22-1.8,8-1.77s5.72,1.14,8.33,4.36a10.56,10.56,0,0,0-6,6.86c-.77,2.58-.34,4.94,1,5.42-1.88-2.43-.22-4.92,3-6.56A20.74,20.74,0,0,1,705,168a11.48,11.48,0,0,0,2.32,5.69,6,6,0,0,0,1.65,1.3,8.09,8.09,0,0,0,1.79.7c2.49.67,5.08.59,6.21,2.78l-.54-3c-.13-.76-.29-1.53-.43-2.11l-.21-1c6.79-2.44,9,2.13,14.25,6.71-4.36,3.18-6.27-3.15-7.07.08,7.05-.18,6.53,5.25,4.91,10.36l-1.24,3.79a16.61,16.61,0,0,0-.85,3.42,4.57,4.57,0,0,0,.34,2.84,4.9,4.9,0,0,0,2.38,2.25c-1.84,2.3-5,3-8,3.74s-5.78,1.3-7.11,2.8c2.53,1.29,3.29,2.85,3.09,4.32a5.3,5.3,0,0,1-.87,2.15,20.24,20.24,0,0,1-1.63,2.12,12.66,12.66,0,0,0-2.93,4.7c-.48,1.84-.19,4,1.69,7.28,4.63-1.9,6.37-3,8.11-2.53s3.47,2.48,8,7.44l-1-3.56c-.62-2.11-1.47-4.81-2.36-7.33s-1.81-4.87-2.54-6.49-1.24-2.62-1.24-2.62l.62.4,1.63,1.14c1.35,1,3.13,2.35,4.89,3.85s3.5,3.12,4.8,4.36l2.16,2.12c0-3.31-1.56-6.6-3-9.32s-2.79-4.9-2.2-6.56c2,1.1,3.43,2,4.46,2.63a6.17,6.17,0,0,0,2.4,1c1.35.12,2.64-.83,6.33-2.68-3.25,2.44-4.35,4.57-4.27,6.72s1.3,4.34,2.65,6.66c2.7,4.63,5.85,9.89,1.13,15.44l-23-.39c-5.15,8.21-2.3,15.34,1,23.21a68.37,68.37,0,0,1,4.32,12.41,29,29,0,0,1,.56,6.81,23.28,23.28,0,0,1-1.45,7.3l2.24-3.17c1.12-1.59,2.19-3.22,2.19-3.22,4.52,1.67,4.61,4.93,4,8.61s-2,7.75-.51,11.28c-7.62-1.37-10.74,2.51-15.87,4.66,2.85.15,2.31,3.77,2.89,7.8s2.16,8.45,9.62,10.61c0,0-2.9,1.83-5.78,3.58l-5.75,3.44a11.27,11.27,0,0,0-.37,9.82c1.18,3,3.32,5.78,5.54,8.68,1.1,1.44,2.23,2.91,3.2,4.4a24.45,24.45,0,0,1,2.38,4.57,11.53,11.53,0,0,1-.49,10.08c-3.22-3.56-6.71-4-9.68-5.11s-5.35-2.71-6.89-8.31c-.36,1.17-.79,2.29-1.15,3.34a14.76,14.76,0,0,0-.85,2.83c-.25,1.71.33,3.08,2.84,4-1.37.3-1.71,1.45-1.58,3.08a47.33,47.33,0,0,0,1,5.76c.39,2.1.77,4.3.37,6a3.9,3.9,0,0,1-3.53,3.25c2.24,3.24,9.39,7.33,6.25,12.28a7,7,0,0,1-3.39-1.71c1.69.85,1.86,3.42,2.77,5.75s2.57,4.42,7.59,4.08c-7.25.91-12.07,3.54-15.84,7.06s-6.5,7.94-9.4,12.21-6,8.35-9.81,10.84-8.38,3.32-13.85.9a70.27,70.27,0,0,1-11.44,11.54,77.23,77.23,0,0,1-14,9c-.31-2.38-1.45-3.53.58-3.56-7.71-.59-7.68,5.26-8.11,11.24s-1.3,12-10.84,11c-6.2-4.49-4.52-6.82-2.21-8.35s5.27-2.31,1.94-3.65c-5.28-11.58-9.59-9.17-15-5.13s-11.72,9.75-19.49,4.43l2.25-2.27a8,8,0,0,0-7.7.16c-2.4,1.23-4.73,3.43-7.18,5.88-4.86,4.85-10.23,10.73-17.36,11.74a7,7,0,0,0-.93-3.71c-3,7.51-8.72,13.52-15.39,18.28s-14.23,8.35-20.76,11.36c2.49-10.53,5.15-6.32.79-15.73-2.8,1.26-1.66,5.17-1.23,9.37s.15,8.7-5.83,11.12c-2.43-2.34-6-4.46-9.22-7.24a20.81,20.81,0,0,1-7.18-11.7l1.68-.27c1-.16,2.36-.36,3.71-.64l5.4-1c-1.9-3.25-3.68-4.73-5.4-5.15a5.06,5.06,0,0,0-2.54.08,9.7,9.7,0,0,0-2.48,1.08c-1.64,1-3.26,2.28-4.86,3.25s-3.14,1.47-4.59,1l.26-6.11a23.86,23.86,0,0,0-9.36,4,77.1,77.1,0,0,0-6.69,5.84,42.29,42.29,0,0,1-3.36,2.84,20,20,0,0,1-3.85,2.24,18.63,18.63,0,0,1-10.57,1.11l.69,2.38.72,2.38c-2.79,3.56-4.77,4.72-6.19,4.63s-2.32-1.41-3.16-2.85-1.62-3-2.89-3.64a3.19,3.19,0,0,0-2.35-.1,12.39,12.39,0,0,0-3.62,2.05s.09-3.92.29-7.82.49-7.8.49-7.8a90,90,0,0,1-15.46,4.71,48.48,48.48,0,0,1-10.31.83,34,34,0,0,1-9.7-1.65c5.88-3,12.11-4.33,17.73-5.83s10.73-3,14.85-5.3A59,59,0,0,0,432.72,478c-4-.44-8.33-.36-11.54,2.09,1.34,0,3.07-.58,4.52-.73s2.63,0,3,1.58a25.5,25.5,0,0,1-33.79-1.68c5.3-5.29,6.65-9.63,6-13.5s-3.27-7.4-6.3-11.24-6.48-8-8.37-12.58a16.47,16.47,0,0,1,.72-15c-11.4-5-17.42-14.9-22-25.77-2.3-5.46-4.22-11.16-6.3-16.69a100.64,100.64,0,0,0-7.3-16c-4.3,4.45-6.59,6.41-8.06,6.87s-2.07-.51-2.78-1.68-1.54-2.55-3.47-2.93-5,.21-10.3,3c-3.92-5-4.37-7.36-3.13-8.42,0,0,1.58-5.61,3.63-10.81,1-2.61,2.12-5.14,2.94-7,.4-.93.81-1.68,1.06-2.21l.41-.83c2.87-2.7,4.48-1.8,6-.57s3,2.88,5.45,1.88a6.81,6.81,0,0,1,4.49-8.36c1.44-.66,3-1.24,4.57-2.11a14,14,0,0,0,4.31-3.72c-4.08,1.41-7.2,1.27-9.09-.1a4.44,4.44,0,0,1-1.71-2.85,7.64,7.64,0,0,1,.68-4.15L344.84,326c-.92.87-2.15,2-3.39,3.28s-2.39,2.44-3.29,3.39l-1.45,1.6c-3.79-3.08-4.49-5.93-3.64-8.3s3.22-4.33,5.6-6.17c1.21-.94,2.41-1.86,3.44-2.82a10.13,10.13,0,0,0,2.42-3.16c1.05-2.35.68-5.16-2.36-9.58,0,0,1.84,1.42,3.7,2.77l3.74,2.62c-2.25-4.12-2-12.23-3.15-21.36A49.5,49.5,0,0,0,343,274.49a25.69,25.69,0,0,0-9.45-11.26c2.92-1.55,9.65-3.25,10.92,1.35,2.58-12-1-25.49-2.83-38.23-.43-3.14-.8-6.26-1-9.29a52.46,52.46,0,0,1,.28-8.58c.8-5.34,2.73-10.07,6.8-13.22l5.14,3.17c-.26-2.11-2.4-4.54-3.59-6.89s-1.27-4.46,2.29-5.82c2.19,1.05,5,3.38,5.89,1.83-.3-.63-.89-1.8-1.43-3.17a29.37,29.37,0,0,1-1.41-4.71,12.79,12.79,0,0,1-.19-5,5.2,5.2,0,0,1,2.33-3.5l2.11,3.27,2.15,3.17a18.44,18.44,0,0,0,4.09-5.37,16.2,16.2,0,0,0,1.94-5.47,34.76,34.76,0,0,0,.42-5.83c0-1-.08-2-.18-3.09l-.16-1.6-.12-1.55-.62-6.53-.14-1.7,0-1.63c0-1.09,0-2.19,0-3.3.13-4.47,1-8.81,3.29-12.5a25.14,25.14,0,0,0,9.32,6,26.73,26.73,0,0,0,4.65,1.24,33.06,33.06,0,0,0,4.44.42,61.37,61.37,0,0,0,14.57-1.85l1.17,2.14a48.36,48.36,0,0,0,11.43-8.43c3.45-3.3,6.72-7,10.14-11,6.91-7.76,14.43-16.26,25.26-22.11,9.12,7.48,21,7.32,34.63,7s28.89-1,41.51,4.28c-3.85-3.1.54-13.4,5.18-15.09,3,1.73,7.15-1.16,10.46-2.55s5.65-1.18,4.93,6.66l-2.07-.37c4,15.54,15.49,11.91,24,13.19l1.71-10.17,1.77-10.17a36.68,36.68,0,0,0,4.06,5.26,29.05,29.05,0,0,0,4.27,4,29.41,29.41,0,0,0,9.16,4.64c6.21,2,13,2,19.2,2.37a77.06,77.06,0,0,1,9,.81,15,15,0,0,1,2,.42q1,.25,1.9.55a17.34,17.34,0,0,1,3.44,1.44,10.69,10.69,0,0,1,4.47,5,14.82,14.82,0,0,1,.12,8.39,11.92,11.92,0,0,1,4.27-.81,32.1,32.1,0,0,1,4,.22,34.33,34.33,0,0,0,3.91.54,25.15,25.15,0,0,0,4.52-.18L639.44,129c.68,1.16,1.32,2.21,1.94,3.19l.46.71.4.77q.39.76.79,1.46c.51,1,1.1,1.78,1.6,2.69a29.7,29.7,0,0,0,1.6,2.71q.44.65.92,1.29c.29.47.58,1,.9,1.43a33.11,33.11,0,0,0,2.16,2.9c1.45,2.21,3.41,4.39,5.56,7.44,0,0-2.1.22-4.17.5s-4.11.6-4.11.6c.67,1.77,3.06,2.26,6.4,2.26s7.46-.33,11.76-.65c2.15-.16,4.32-.3,6.41-.34a39.55,39.55,0,0,1,5.78.31c3.5.5,6.3,1.6,7.23,3.88,0,0-3.68,2-7.38,4s-7.43,3.84-7.43,3.84c.33,1,.61,2,.85,3s.34,2.12.46,3.2a44.66,44.66,0,0,1,.25,6.57l-.12,3.35c0,1.11-.09,2.21-.2,3.35-.19,2.26-.31,4.48-.38,6.7a45,45,0,0,0,.08,6.64,30.63,30.63,0,0,0,1.05,6.57,32.14,32.14,0,0,0,7.24,13.16c-2.43-.21-7.21-.57-8-3.45a29.26,29.26,0,0,1-.4,3.87c-.23,1.48-.52,3.12-.85,4.87a66.07,66.07,0,0,0-1.39,9.88c-.06,2.94.53,5.35,2.54,7.1s5.46,2.94,11.15,3c-3.66-.36-5.7.38-6.61,1.73s-.77,3.27-.09,5.5c.33,1.11.8,2.3,1.31,3.54s1,2.52,1.6,3.88l.45,1,.35,1,.72,2.05a33.27,33.27,0,0,1,1.22,3.93s-2.32-1.44-4.65-2.82l-3.22-1.89-1.49-.85c2.55,2.66,4.55,5,6.19,7a27,27,0,0,1,3.6,5.53,15.38,15.38,0,0,1,1,2.61,10.3,10.3,0,0,1,.4,2.79A19.72,19.72,0,0,1,683,284a18.77,18.77,0,0,1-.95,3.78c-1.38.6-3.42-.32-4.6-1.49s-1.53-2.54.6-3c-2.42.73-3.31,1.75-3.53,3a11.94,11.94,0,0,0,.47,4.27,8.58,8.58,0,0,1,.06,4.67c-.6,1.44-2.07,2.73-4.94,3.56,0,0-.48-2-1-3.89s-1.1-3.79-1.1-3.79c-3.23,2.69-4.29,4.42-4.22,6.84a25.58,25.58,0,0,0,.66,4.18,52.64,52.64,0,0,1,.91,5.94,6.82,6.82,0,0,1-1.3,2.44,8.25,8.25,0,0,1-2.3,1.8A12.71,12.71,0,0,1,655.4,314a17.2,17.2,0,0,1-3.52-.35,16.3,16.3,0,0,1-1.72-.45,16,16,0,0,1-1.69-.69,14.72,14.72,0,0,1-5.61-4.58,18.23,18.23,0,0,1,.4,9.84,8.76,8.76,0,0,1-2.11,3.9,4.92,4.92,0,0,1-3.89,1.4,8,8,0,0,1-.8-7.43,16.24,16.24,0,0,0-5.51.63,13.66,13.66,0,0,0-4.29,1.91c-.32.21-.62.43-.93.66s-.64.44-.94.67c-.62.46-1.21,1-1.78,1.47-1.15,1-2.21,2.16-3.32,3.15-2.19,2-4.31,4-6.81,4.81a8.62,8.62,0,0,1-3.94.44,11.9,11.9,0,0,1-4.57-1.82c-.92-3.49-2-5.12-3-6,12.4-2,21.77-4.68,21.16-3.63-1.58-4.77-4.71-6.8-7-9.71a12.37,12.37,0,0,1-2.57-5.32,17.49,17.49,0,0,1-.35-3.81,44,44,0,0,1,.41-5c-.48,1.18-1.06,2.45-1.7,3.83s-1.33,2.87-2.09,4.4-1.66,3-2.59,4.53a39,39,0,0,1-6.48,8.09,21.12,21.12,0,0,1-3.78,2.73,14.7,14.7,0,0,1-1.95.91,10.66,10.66,0,0,1-2,.48,8.7,8.7,0,0,1-3.95-.32,14,14,0,0,1-1.69-3.3l.88-1.22c-2.35-.76-4.25.36-6,2.24-1.66-.7-3-1.33-4.32-1.76a13.13,13.13,0,0,0-4.13-.69,5.74,5.74,0,0,0-2.61-4.08,6.5,6.5,0,0,0-2.1-.78,12.34,12.34,0,0,0-2.46-.26c-3.4,0-7.41.82-10,.63.2,5.49-1.47,7.77-2.38,9.82s-1.08,3.87,2.28,8.45c-.87-.78,1-1.32,4.69-1.79.82-.33,1.79-.48,2.31-1.15-.1.31-.22.65-.36,1,1.78-.2,3.82-.39,6.07-.57l7.26-.65c-1.93,2.89-4,5.54-6.4,6.77s-5.11.91-8.19-2.11a163.55,163.55,0,0,1-8,17.67c-3.9-7.69-9.41-13.73-14.13-19.12s-8.65-10.08-9.36-14.83a92.06,92.06,0,0,1-13.93,2.51c-4.72.58-9.31,1.06-13.63,1.89A43.73,43.73,0,0,0,490,321.39a39.92,39.92,0,0,0-11.41,9.14c-2.47.62-3.25-1.17-3.32-3.55s.43-5.33.33-7.08c2.76-1.19,5.14-.07,7.15-2.59a13.38,13.38,0,0,1-3.47.63,25.53,25.53,0,0,1-3.68-.12c-2.49-.25-5-.76-7.42-1.12a36.88,36.88,0,0,0-3.72-.32,18.64,18.64,0,0,0-3.76.34,14.46,14.46,0,0,0-7.56,4.45,8.58,8.58,0,0,1-.93-3.66,4.64,4.64,0,0,1,.65-2.46,8.12,8.12,0,0,1,3.14-2.62c1-.59,1.79-1.05,1.55-1.75s-1.51-1.55-4.53-3.34l2.12-1.1,2.09-1.12c-.17-1.08-.36-2.07-.59-3a27.33,27.33,0,0,0-.76-2.64,19.5,19.5,0,0,0-2.1-4.32,16.61,16.61,0,0,0-2.87-3.36,23.54,23.54,0,0,0-3.61-2.7c-5.26-3.23-12.36-5.42-19.46-8.55s-14.06-7.15-18.48-13.32a23.08,23.08,0,0,1-4.24-10.88,28.27,28.27,0,0,1,.11-6.7,37,37,0,0,1,2-7.48c-.89,2.81-1.23,4.24-3.31,5.56-.51-10.5-2.29-20-4.1-29.5s-3.49-19-3.74-28.59c0-.6-.07-1.21-.05-1.81l.05-1.79.12-3.6c.06-1.19.2-2.32.31-3.49s.31-2.31.54-3.46a50,50,0,0,1,4.4-13.28c4.16-8.34,11.2-15.35,20.34-18.3,4.51-2.16,5.26-4.57,5-8-.15-1.68-.57-3.58-.91-5.62a27.55,27.55,0,0,1-.46-6.64s2.25,2,4.45,4,4.32,4.13,4.32,4.13-.06-1-.07-2.57,0-3.65.17-5.72c.08-1,.17-2.11.27-3.11s.24-1.9.36-2.7l.31-1.95.14-.73c2.25-4,6.08-5.05,10-4.3s7.9,3.18,11.59,5.64,7.1,4.9,10.74,5.6,7.58-.35,13-4.64l-1-4.06-1.09-4c3.71.95,9.9.38,15.07.9,2.56.25,4.88.73,6.28,1.7s2,2.41,1.26,4.6c1-1.32,4-7.69,6.15-3.06l-1,6.08,3.09-1c.95-.31,2-.65,3.19-1s2.45-.74,3.68-1.05l3.72-1,3.25-.71c1-.22,1.77-.36,2.33-.45l.88-.15a10.4,10.4,0,0,1,1.76,1.74,7.4,7.4,0,0,1,1,1.87,7.71,7.71,0,0,1,.25,3.8c-.42,2.56-1.79,5.22-2.92,7.83a21.86,21.86,0,0,0-2.18,7.56,7.6,7.6,0,0,0,.12,1.68,7,7,0,0,0,.33,1.56,4.75,4.75,0,0,0,.32.71,5.59,5.59,0,0,1,.37.66,4.05,4.05,0,0,0,.92,1.15,117.9,117.9,0,0,1,11.87-2.51c2.63-.44,5.11-.69,7.23-1.16s3.76-1,4.27-2.17a6,6,0,0,1-.39-2.33c0-.46.05-1,.1-1.49a12.15,12.15,0,0,1,.24-1.6,13.75,13.75,0,0,1,3.8-6.9l.31.14a7.21,7.21,0,0,1,.77.41l2.31,1.35a19.36,19.36,0,0,1,2.23,1.51l1,.74c3.85-2.21,8.06-4.18,12.11-6.12a68.39,68.39,0,0,0,11.32-6.77,21,21,0,0,0,2.42-2.09,20.82,20.82,0,0,0,2.06-2.55,20.28,20.28,0,0,0,2.92-6.52,24,24,0,0,0,.49-8.79q-.13-1.26-.36-2.61c-.16-.9-.41-1.78-.67-2.72a48.24,48.24,0,0,0-2.13-6s-1.55-.55-3.85-1.29c-1.16-.37-2.45-.78-3.92-1.2s-3.14-.84-4.73-1.22a66.83,66.83,0,0,0-8.57-1.5c-1.14-.14-2.08-.26-2.74-.31l-1-.05s-.27-2.73-.68-5.51c-.2-1.39-.44-2.79-.63-3.85l-.31-1.71.7.34c.45.22,1.11.58,1.89,1l2.66,1.46c1,.55,2,1.08,3.06,1.77,2.11,1.33,4.19,2.67,5.75,3.74l2.61,2a20,20,0,0,0-1.91-4.53,14.65,14.65,0,0,0-2.49-3.13,12.73,12.73,0,0,0-2.91-2.08,13.57,13.57,0,0,0-3.11-1c-4.33-1-8.84.29-13.07,1a16,16,0,0,0-.63-6.8,13.6,13.6,0,0,0-1.4-3,14.3,14.3,0,0,0-1-1.36,14,14,0,0,0-1.1-1.2s-1.58.55-3.89,1.42-5.26,2.15-8.1,3.51-5.53,2.85-7.52,4L529,66.36c-.57.33-.88.54-.88.54-.08-3.68,2.62-6.64,4.22-9.42s1.87-5.63-3.54-9A7,7,0,0,0,525,53.74a23.32,23.32,0,0,0,.23,5.88c.19,1.92.22,3.71-.64,5.15a5.25,5.25,0,0,1-2,1.88A12.48,12.48,0,0,1,518.77,68c-2.92-4.85-3.58-8.72-4.8-10.83a2.64,2.64,0,0,0-2.54-1.58,7,7,0,0,0-2.21.52c-.44.17-.93.37-1.44.63s-1,.57-1.63.93a8.57,8.57,0,0,1,1.15-5.73A7.07,7.07,0,0,1,509.12,50a11.74,11.74,0,0,1,2.66-1.31,21,21,0,0,1-3.51,1.18,26.45,26.45,0,0,1-3.52.64c-1.22.15-2.45.24-3.68.32s-2.5.18-3.72.3c-4.92.5-9.59,1.69-12.07,6.35-3.68-5.41-11.09-5.12-17.5-5.18s-11.94-.59-12.34-9.19c-1.4,2.21-5.45,6-10,9.82s-9.65,7.62-13.81,9.38c2.45-6.13,1.88-8.71-1-9.34s-7.71.7-12.78,2.57c-2.57.89-5.13,2-7.66,2.83a37.69,37.69,0,0,1-7.12,2c-4.41.61-8.13-.45-10-5.8a28.66,28.66,0,0,1-2.1,8.1,31.44,31.44,0,0,1-1.84,3.69A40.49,40.49,0,0,1,387,69.88c-3.2,4.66-7.32,9.07-11.43,13.75A113.64,113.64,0,0,0,364,98.49c-3.25,5.26-5.66,10.84-6.22,16.55-.61-1.73-1.88-5.33,0-6.32a39.42,39.42,0,0,1-10.86,8.73c-3.42,1.92-6.77,3.4-10.13,6.23a18.71,18.71,0,0,1,6.88,7.71,31,31,0,0,1,1.88,4.71c.5,1.63.92,3.31,1.32,5,1.51,6.82,2.56,14.06,6,19.54-4.37,2.15-7.53,2.67-10,2s-4.35-2.5-6.06-4.71-3.24-4.77-5.29-6.8a10.54,10.54,0,0,0-8.31-3.35c3,.71,4.79,2.91,6,5.67a32.63,32.63,0,0,1,1.49,4.51c.41,1.58.75,3.22,1.15,4.81.73,3.17,1.58,6.16,2.91,8.12a4.9,4.9,0,0,0,5.87,2.14c-5.2,4.37-6.59,6.61-8.34,8.05s-3.75,2.24-10.29,4.63c4.73.84,7.25,1.87,8.56,3.1s1.36,2.68,1.3,4.32a19.33,19.33,0,0,0,0,5.5c.4,2,1.7,4.09,4.71,6.09a25.92,25.92,0,0,1-6.31,7.48,32.49,32.49,0,0,1-4.84,2.86,3.08,3.08,0,0,0-2,3,10.47,10.47,0,0,0,.65,3.1,47.73,47.73,0,0,0,2.22,4.86c-2.32,4.39-5.68,3.22-8.48.71a25.47,25.47,0,0,1-3.56-4.05A20.91,20.91,0,0,1,312.89,220.49Zm287,164.67,0,.22-3.9.86-2.92.58,2.65-.57C596.82,386,598.17,385.62,599.87,385.16Zm28.14-5.5c-3.53.4-7.81,1.4-12.31,2.31-1.71-3.51-1.39-7.56,1.37-7.91-.49,1.38,1,2.32,3.22,3.11S625.51,378.61,628,379.65Zm-61.33-68.21c1.7-.8,2.82-.71,3.61-.13a5,5,0,0,1,1.53,2.78,45.46,45.46,0,0,0-6,1.53c-.09.41-.29.88-.38,1.35A23.22,23.22,0,0,1,566.68,311.45Z" transform="translate(-241.53 2.42)"/><path class="cls-1" d="M560.6,325.94c-.52.25-.81.7-1.5.8a19.45,19.45,0,0,0,2.2,2.46c.44-1.16.88-2.31,1.25-3.44C561.9,325.84,561.21,325.86,560.6,325.94Z" transform="translate(-241.53 2.42)"/><path class="cls-1" d="M329.58,150.85l.52-.23a4.28,4.28,0,0,1-1.89-.17A8.92,8.92,0,0,1,329.58,150.85Z" transform="translate(-241.53 2.42)"/><polygon class="cls-1" points="435.31 36.34 433.98 38.77 437.81 38.23 435.31 36.34"/><path class="cls-1" d="M246.57,266.72a5.29,5.29,0,0,0-2.85,1.89A7,7,0,0,0,246.57,266.72Z" transform="translate(-241.53 2.42)"/><path class="cls-1" d="M248.33,330.73,246,340.41A41.26,41.26,0,0,0,248.33,330.73Z" transform="translate(-241.53 2.42)"/><path class="cls-1" d="M254.29,380.59a22,22,0,0,0,4.78-.46s0-.07,0-.12Z" transform="translate(-241.53 2.42)"/><path class="cls-1" d="M775.62,134.27a7.19,7.19,0,0,0,1.66,1.53C782,138.95,779.28,136.42,775.62,134.27Z" transform="translate(-241.53 2.42)"/><path class="cls-1" d="M560.61,40.3A37.65,37.65,0,0,1,568.4,36C564.5,34.68,561.4,34.12,560.61,40.3Z" transform="translate(-241.53 2.42)"/><path class="cls-1" d="M788.78,416.42c0-.05-.09,0-.16-.1-.22.61-.49,1.12-.75,1.71Z" transform="translate(-241.53 2.42)"/><path class="cls-1" d="M578.81,37.54A10.49,10.49,0,0,0,568.4,36C571.59,37.14,575.29,38.7,578.81,37.54Z" transform="translate(-241.53 2.42)"/><path class="cls-1" d="M407.89,540.81l2.47.82a3.81,3.81,0,0,1,.54-1.7Z" transform="translate(-241.53 2.42)"/><path class="cls-1" d="M410.9,539.94s.75-.21,1.48-.44l1.46-.48C412.58,538.88,411.47,538.81,410.9,539.94Z" transform="translate(-241.53 2.42)"/><path class="cls-1" d="M419.91,537,413.84,539C415.83,539.28,418.28,539.92,419.91,537Z" transform="translate(-241.53 2.42)"/><path class="cls-1" d="M339.79,511.26l-3,2.83A8.61,8.61,0,0,0,339.79,511.26Z" transform="translate(-241.53 2.42)"/><path class="cls-1" d="M320.58,497.67c1.71,2.2,2.93,6.11,4.91,9.91a24.84,24.84,0,0,0,3.64,5.3,15.25,15.25,0,0,0,2.43,2.06,12.27,12.27,0,0,0,1.37.8,11.48,11.48,0,0,0,1.51.56l2.4-2.21c-1.62.72-3.07,0-4.36-1.63a18.8,18.8,0,0,1-1.87-2.8c-.58-1.07-1.13-2.23-1.69-3.39a35.66,35.66,0,0,0-3.44-6.3C324.22,498.3,322.67,497.34,320.58,497.67Z" transform="translate(-241.53 2.42)"/><path class="cls-1" d="M314.75,403.81l1.77,7.25c.44,1.83,1,3.59,1.38,5l.65,2.26c2.49-4.3,6-9.75,10-4.59.69-5.42.63-7.54.05-8.12s-1.75.51-3.23,1.73C322.36,409.73,318.17,412.78,314.75,403.81Z" transform="translate(-241.53 2.42)"/><path class="cls-1" d="M304.66,359.86c2,3.42,3.54,2.91,4.76,1.58s2.31-3.52,3.52-3.67C308,354.28,306.7,353.3,304.66,359.86Z" transform="translate(-241.53 2.42)"/><path class="cls-1" d="M411.37,94.36l3.77,9.25c2.07-1.76,1.69-2.63.49-3.79S412.42,97.24,411.37,94.36Z" transform="translate(-241.53 2.42)"/><path class="cls-1" d="M462,27.8s-1.86-1.4-3.8-2.77-3.91-2.7-3.91-2.7l-1.18,4.74L452,31.82s2.49-1.07,5-2.06S462,27.8,462,27.8Z" transform="translate(-241.53 2.42)"/><path class="cls-1" d="M502.83,97.8l-2.62,1.39,1.56-.55c.93-.33,2.18-.77,3.44-1.19l5-1.69-3.71,1Z" transform="translate(-241.53 2.42)"/><path class="cls-1" d="M672.47,421l4.73,4,4.8,3.91c.45-2-1.75-5.5-4.16-7.69S672.94,418,672.47,421Z" transform="translate(-241.53 2.42)"/><path class="cls-1" d="M464.43,491.6c-.9-3.16-2.66-5.84-4.61-7.1s-4.15-1.05-6.35,1.64c2.1.79,4.13,2.52,6,3.84S463.15,492.28,464.43,491.6Z" transform="translate(-241.53 2.42)"/><path class="cls-1" d="M581.54,105l-4.69,3.52,4.11-1.18c1-.3,2.08-.59,2.82-.77l1.27-.33-1.73-.65c-.43-.17-.88-.3-1.22-.42Z" transform="translate(-241.53 2.42)"/><path class="cls-2" d="M531.6-15.08" transform="translate(-241.53 2.42)"/></svg>