<svg id="Layer_1" data-name="Layer 1" xmlns="http://www.w3.org/2000/svg" viewBox="0 0 938.38 607.42"><defs><style>.cls-1{fill:#fff;}</style></defs><title>Untitled-7</title><path class="cls-1" d="M380.52-5.23c-2.87,3.14-1.39,10.39,6.43,9.08l5.74-12.15Z" transform="translate(20.59 28.56)"/><path class="cls-1" d="M432.56,18.48c9.29-5.67,20.28-15.77,14.66-27.2-9.51,11.48-11.59,6.49-21.74,20.28-7.84,1.23-13.54-4.24-12.13-8.71-2.82,3.09-12.1-2.93-16.43,4.69,10,9.66,22.78,10.3,36.43,2.81C436.16,13.11,433.27,16.23,432.56,18.48Z" transform="translate(20.59 28.56)"/><path class="cls-1" d="M725.13,476.79l1.92-.67,1.9-.73a6.68,6.68,0,0,0-1.92.46A9.67,9.67,0,0,0,725.13,476.79Z" transform="translate(20.59 28.56)"/><path class="cls-1" d="M295.72,473.66c2.79,1.65,4.56,1.42,5.31.59C298.18,473.19,295.75,472.37,295.72,473.66Z" transform="translate(20.59 28.56)"/><path class="cls-1" d="M256.37,415c.49,1.41,1,2.51,1.53,3.75C258,416.84,257.65,415.25,256.37,415Z" transform="translate(20.59 28.56)"/><path class="cls-1" d="M725.13,476.79l-1.58.48c-.95.28-2.22.63-3.52.93-2.57.63-5.23,1.09-5.23,1.09.7,1.89,2.26,1.87,4.14,1.05S723,478,725.13,476.79Z" transform="translate(20.59 28.56)"/><path class="cls-1" d="M540.14-5.26a18.47,18.47,0,0,0-7.27,2.6c2.25-.33,4.43-.59,6.68-.72A16.75,16.75,0,0,1,540.14-5.26Z" transform="translate(20.59 28.56)"/><path class="cls-1" d="M766.91,293.59l.19-3.7a29.74,29.74,0,0,0-4.84-3.31l2.35,3.51Z" transform="translate(20.59 28.56)"/><path class="cls-1" d="M761.18,145.35c.2,1.25,2.78,1.37,6,1.19s6.94-.64,9.28-.64A18.31,18.31,0,0,1,771,144.4a9.35,9.35,0,0,1-1.83-1.17,7.58,7.58,0,0,1-1.39-1.4A27.08,27.08,0,0,0,761.18,145.35Z" transform="translate(20.59 28.56)"/><path class="cls-1" d="M571.48,40.52l-4.58.9C568.1,41.11,570.08,40.93,571.48,40.52Z" transform="translate(20.59 28.56)"/><path class="cls-1" d="M749.25,400.18a9.52,9.52,0,0,0-3.92.33A6.45,6.45,0,0,0,749.25,400.18Z" transform="translate(20.59 28.56)"/><path class="cls-1" d="M385.59,319.69c.66-.38.8-.92,1.29-1.33C385.15,318.09,384.3,318.29,385.59,319.69Z" transform="translate(20.59 28.56)"/><path class="cls-1" d="M462.84,143.1l-2.28,1.14a41.64,41.64,0,0,0,.84,5.79s.29-1.72.65-3.45S462.84,143.1,462.84,143.1Z" transform="translate(20.59 28.56)"/><path class="cls-1" d="M236.63,295.83a4.22,4.22,0,0,0-.19.59C237.68,299.84,237.44,297.89,236.63,295.83Z" transform="translate(20.59 28.56)"/><path class="cls-1" d="M415.58,473.73c6.73,5.43.47,7.77-4.9,10.22-2.69,1.23-5.17,2.53-5.68,4.32s.92,4.11,6.17,7.35c-.79-2.14,4.75-5.57,8.22-9.51S424.26,477.76,415.58,473.73Z" transform="translate(20.59 28.56)"/><path class="cls-1" d="M544.24-3.53c2.22.11,4.47.25,6.7.58A19.29,19.29,0,0,0,544.24-3.53Z" transform="translate(20.59 28.56)"/><path class="cls-1" d="M411.16,495.62v.08l2.19,1.25Z" transform="translate(20.59 28.56)"/><path class="cls-1" d="M355.79,69.94a12.29,12.29,0,0,0-3.95-3.64C352.23,67.3,353.23,68.39,355.79,69.94Z" transform="translate(20.59 28.56)"/><path class="cls-1" d="M220.86,215.17l2.34-5.41A17.69,17.69,0,0,0,220.86,215.17Z" transform="translate(20.59 28.56)"/><path class="cls-1" d="M466.28,56.24c1.38.77,2.22,1.56,3.27,2.12a7.76,7.76,0,0,0,4.47.88,5.56,5.56,0,0,0-.87-1.58,4.78,4.78,0,0,1-3,.54A7.89,7.89,0,0,1,466.28,56.24Z" transform="translate(20.59 28.56)"/><path class="cls-1" d="M577.87,111.33a21.58,21.58,0,0,0-.64-3.07c-1.14-.58-2.43-1.3-3.59-1.92l2.13,2.49Z" transform="translate(20.59 28.56)"/><path class="cls-1" d="M504.55,41.26a24.28,24.28,0,0,1,3.36,5.55,30.76,30.76,0,0,1,1.77,5.41c-.12-1.94,1.29-3.18,3.06-4a42.69,42.69,0,0,1,5.14-1.6c1.25-.4,1.6-.81-.2-1.64S511.94,42.87,504.55,41.26Z" transform="translate(20.59 28.56)"/><path class="cls-1" d="M539.68.56c1.05-2.54,2.37-3.73,4.56-4.1-1.62,0-3.17,0-4.7.15C539-1.88,538.78-.43,539.68.56Z" transform="translate(20.59 28.56)"/><path class="cls-1" d="M493.13-21.52l3.76,1.34c2.25.81,5.27,1.85,8.21,3s5.92,2.3,8.1,3.22l3.63,1.55c-1.58-.83-3.28-1.69-5.11-2.51s-3.79-1.6-5.81-2.39C501.91-18.89,497.5-20.23,493.13-21.52Z" transform="translate(20.59 28.56)"/><path class="cls-1" d="M663.37,135.69s1.14,1,2.27,2l2.27,2.06A8,8,0,0,0,663.37,135.69Z" transform="translate(20.59 28.56)"/><path class="cls-1" d="M584.36,17.56a37.14,37.14,0,0,0,3.55,7.25,41.41,41.41,0,0,0,4.51,6,10.26,10.26,0,0,0,3.82-.79l-5.86-6.27c-1.46-1.59-3-3.1-4.12-4.27Z" transform="translate(20.59 28.56)"/><path class="cls-1" d="M509.7,52.35a.14.14,0,0,1,0-.12A.14.14,0,0,0,509.7,52.35Z" transform="translate(20.59 28.56)"/><path class="cls-1" d="M655.36,176.14a57.29,57.29,0,0,0-.63-6.06,38.57,38.57,0,0,0-1-4.92,33.88,33.88,0,0,0-1.27-3.82,19.86,19.86,0,0,0-1.49-2.84,8.54,8.54,0,0,0-3.13-3.1,5.93,5.93,0,0,0-3.28-.6c-2.2.19-4.44,1.29-6.72,2s-4.6,1-6.92-.15l-1.17-3.18-1.1-2.81-1.8-4.76a42.35,42.35,0,0,1-2-6.77c-.61-3.53.17-5.41,1.65-6.85s3.56-2.31,5.33-3.78,3.16-3.5,3.06-7.37a61.19,61.19,0,0,0-12.55-12.26c-2.18-1.65-4.41-3-6.59-4.38s-4.34-2.5-6.46-3.56c-8.46-4.35-15.91-7.43-21.27-12.45.66-2.39-1.05-4.91,3.4-4.84A38.18,38.18,0,0,1,587,82.28q-1.1-.41-2.2-.88t-2.24-.95c-1.5-.67-3-1.42-4.52-2.22s-3.09-1.59-4.65-2.47c-6.27-3.44-12.86-7.47-19.84-10.91a100.36,100.36,0,0,0-21.4-8.17c-7.18-1.62-14.23-2-20.56-.27a8.46,8.46,0,0,1-1.9-4.07,30.46,30.46,0,0,1-2,19,24.2,24.2,0,0,0-7.31-.66c-2.37.09-4.62.42-6.59.47-4,.21-6.85-.52-8-5.21,3,.62,4.81.2,6.31-.76s2.68-2.35,4.44-3.36l-1.79.21-3.92.57c-1.42.21-2.82.42-3.88.62l-1.75.32C483.45,60,483.41,58,484.53,57s3.37-1.1,5.91-1c5.09.23,11.31,1.45,12.47-3.16-11.4-.61-23.71,1.12-34.76,3s-21,3.64-29.11,2.26c-1-3.1.83-5,3.9-6.33S450.29,50,454,49.68l2.65-.3c.83-.08,1.6-.17,2.28-.28a5.19,5.19,0,0,0,2.79-1c.84-.93-.55-2.63-6.22-5.58l1.14.22,3,.66,4.21,1,4.79,1.23c3.25.83,6.46,1.83,8.86,2.53l4,1.29c-4.31-5.61-5.69-8.11-5.27-9.21s2.5-.75,4.66-.36,4.36.71,5-.49-.09-4-4.37-9.95A91.47,91.47,0,0,0,458.66,27c-3.14.07-6,.38-8.75.68s-5.32.82-7.89,1.3l-7.8,1.54c-2.66.57-5.46,1-8.48,1.55-1.51.25-3.09.49-4.75.7s-3.39.48-5.22.69L410,34.1l-6.51.63c-3.37,4.23-2.12,6.62-1,9s2.26,4.79-.77,9c-11.15,5.68-19,7.83-25.85,7.9s-12.31-1.76-17.71-3.47-10.59-3.22-16.37-2a22.7,22.7,0,0,0-4.44,1.47,27.32,27.32,0,0,0-4.67,2.81,43.55,43.55,0,0,0-9.84,10.78c-2.23,6.82-1.49,14-3.33,21a31.86,31.86,0,0,1-1.9,5.31,33.18,33.18,0,0,1-3.26,5.39c-2.74,3.65-6.66,7.44-12.34,11.9l-.95-2.5c-.55-1.51-1.32-3.54-2-5.61s-1.27-4.18-1.72-5.77-.71-2.68-.71-2.68a64.72,64.72,0,0,0-4.24,5.51,49,49,0,0,0-2.87,4.87,39.44,39.44,0,0,0-1.8,4.26,27.2,27.2,0,0,0-1,3.71,22.58,22.58,0,0,0-.29,6.17,49.51,49.51,0,0,0,.74,5.15c.54,3.27.94,6.38-.25,10.36s-3.91,8.81-9.25,15.58c-1.48-3.77-.1-10.12,1.52-15.16s3.26-8.65,1.3-6.66c-5.14,4-7.6,7.31-8.53,10a9,9,0,0,0,.55,7.09c1.9,4.35,5.4,8.44,2.56,16l-6.49-.62-6.5-.56c-4.92,16.37-7.59,34.61-8.54,53.6-.48,9.5-.54,19.19-.25,29s1,19.69,2,29.65c-1.91-1-3.89-3.26-5.85-4.06s-3.89-.16-5.65,4.84c1.09,6.63,2.26,13.38,3.61,20.24s3,13.83,4.9,20.84c.5,1.75.94,3.51,1.48,5.27l1.61,5.28c1.17,3.51,2.33,7,3.67,10.55a202.86,202.86,0,0,0,9.07,20.82c.82,1.74,1.73,3.4,2.64,5.07s1.81,3.36,2.75,5l2.92,4.87c.49.81,1,1.63,1.48,2.43l1.54,2.36,3.11,4.71,3.25,4.54,1.63,2.27,1.69,2.19,3.4,4.36a234.17,234.17,0,0,0,29.68,30.39s.36,0,1,.08l2.63.16c2.17.11,5,.31,7.87.35s5.66,0,7.74,0l3.49-.12a6.82,6.82,0,0,1,3.49,4.85c.2,1.7-.78,3.2-3.49,3,4.12,3.17,6.51,4.28,7.8,4.33s1.57-1.08,1.66-2.57c.16-3-.31-7.36,4.8-7.43a17.8,17.8,0,0,1,6,3.28,7.12,7.12,0,0,1,2.52,3.68c.56,2.42-1.12,4.53-5.05,4.77,9,1.09,19.55,2.12,30.67,2.87s22.78,1.17,34.17,1.61,22.54.91,32.8,1.95,19.62,2.71,27.73,5.59l-3.16,1.62-3.16,1.59a26.05,26.05,0,0,0,15.55-1.57c4.25-1.84,7.69-4.57,11-7.19,1.67-1.29,3.32-2.56,5-3.69a25.65,25.65,0,0,1,5.45-2.74,20.21,20.21,0,0,1,6.5-1.08,32,32,0,0,1,8.27,1.21l-2.16,1.26c-1.08.64-2.17,1.24-2.17,1.24a166.94,166.94,0,0,0,43.42-7.63c1.82-.56,3.63-1.13,5.43-1.78s3.6-1.23,5.41-2l5.4-2.14,5.31-2.34a212,212,0,0,0,20.41-10.77,241.48,241.48,0,0,0,36.26-27c5.58-4.9,10.79-10.12,15.92-15.3l3.79-3.93c1.28-1.29,2.45-2.67,3.7-4,2.5-2.63,4.86-5.27,7.25-7.85-2.46-4-1.55-9.48.25-15.76s4.69-13.42,6.81-20.4,3.61-13.73,3.2-19.05-2.65-9.23-8-10.75c3.61-7.4,6.29-12.27,8.65-16.35s4.28-7.19,6.09-10.83a58.84,58.84,0,0,0,2.62-6.05c.42-1.15.84-2.37,1.27-3.7s.8-2.81,1.21-4.4.78-3.34,1.15-5.25.73-4,1-6.32a144.63,144.63,0,0,0,1.32-16.8,18.77,18.77,0,0,0-.93-5,20.82,20.82,0,0,0-2.13-4.35,43.83,43.83,0,0,0-6.48-7.56c-5-4.86-10.48-9.59-14.41-17.36l10.59-4.25-3.12-3c-1.9-1.76-4.43-4-7-6.13-5.16-4.23-10.44-7.72-10.44-7.72l1-2.65c.58-1.6,1.35-3.76,2.05-5.92s1.41-4.38,1.89-6l.81-2.76s-2.73-3-5.51-5.86c-1.39-1.43-2.78-2.8-3.83-3.81s-1.75-1.68-1.75-1.68a18.73,18.73,0,0,1,2.24,8.92c0,2.86-.88,5.15-2.51,5.64-8.5-8.54-15.06-20.28-19.49-30.57a87.46,87.46,0,0,1-4.78-14c-.93-3.85-1-6.73-.07-7.85,0,0-2.74-2.06-7-5l-3.39-2.35-3.85-2.53L625,89.42l-4.3-2.66c-2.86-1.79-5.79-3.48-8.52-5.05s-5.32-3-7.52-4.18-4-2.18-5.36-2.83l-2-1c3.71-3,11.75,1.23,19.06,3.63a74.74,74.74,0,0,1-8.38-3.21,12.86,12.86,0,0,1-4-2.71c-1.52-1.68-1-3.25-.5-4.79s1.17-3.08-.08-4.7-4.44-3.31-11.39-5c.72,2.08-.66,3.19-2.42,4s-3.92,1.31-4.82,2.1c-3.33-6.53-11.46-13.83-21.62-20.13a129.19,129.19,0,0,0-33.24-14.35l3.51-2.8,3.57-2.77c-18.59-9.1-40.11-15.12-62.8-18.2S427.57,1.63,403.7,3.62c4.36.48,7.41,2,9.29,3.65a6.79,6.79,0,0,1,2.41,5.8,8.83,8.83,0,0,1-3.19,5.65,13.44,13.44,0,0,1-3.32,2.1,18.23,18.23,0,0,1-4.33,1.41s-1.56-2.88-3.2-5.76S398,10.73,398,10.73c-4,4.24-.25,4.9,2.21,6,1.24.56,2.19,1.2,1.8,2.37s-2.13,2.83-6.11,5.63c-8.27.4-11.73-2.31-11.92-6.11s3.07-8.51,7.93-11.14l-3.28,1.12c-2,.71-4.58,1.65-7.19,2.68-5.22,2-10.36,4.34-10.36,4.34-2.14-3.19,2.55-6.25,3-11-1.92,2.33-5.42,3.31-9.86,3.88s-9.87.81-15.51,1.57a55.32,55.32,0,0,0-16.39,4.44c-4.91,2.42-8.86,5.84-10.54,10.56l-3.05-2.39a152.06,152.06,0,0,0-29.26,22.14,174.38,174.38,0,0,0-18.31,20.85c-5,6.7-9.35,13.21-13.61,19.91s-8.45,13.58-12.9,21.13c4.23,3.06,4.07,7.17,3.1,12.12-.51,2.46-1.11,5.2-1.47,8.11a30.1,30.1,0,0,0,.12,9.22c-1.94,2.49-3.8,5.07-5.77,7.66s-4,5.21-6.07,7.86l-6,8.24-3.06,4.24c-1,1.42-2,2.91-2.94,4.38-1.94,3-3.86,6-5.75,9.08s-3.55,6.34-5.24,9.62A134.8,134.8,0,0,0,203,208.11c-.86,11.07.82,13.17,3,14s4.94.23,6.47,5.6c-4.79-.66-9,6.34-12.28,11.45-1.69,2.54-3,4.65-4.15,5s-2.11-.94-2.75-5.22c-1,4.51-1.76,8.62-2.52,12.44-.36,1.91-.77,3.74-1,5.54l-.82,5.23c-.52,3.39-1,6.62-1.41,9.8s-.6,6.36-.85,9.59c-.92,12.91-1,27.26,1.38,50.34,4.2-4.72,6.25-10,9.28-7a20.16,20.16,0,0,1-2.77,12c-1.89,3.39-4.46,5.64-6.73,5l-.92-2.23a102.22,102.22,0,0,1,2.5,20c.29,7,.14,14.32,0,22.15s-.15,16.15.45,24.92c.14,2.19.35,4.41.57,6.65s.6,4.47.92,6.72c.55,4.55,1.59,8.92,2.54,13.39,4.14,17.68,11.64,34.14,21.28,46.91S236.61,502.2,249,505.51l-2.7-.89,1.94,1,2.23,1.1c.86.42,1.86.84,2.92,1.32,2.15.94,4.63,2.06,7.3,3.17l8.42,3.22c2.89,1,5.78,1.93,8.46,2.81s5.25,1.52,7.4,2.14l2.94.81,2.29.55,2,.47A34.54,34.54,0,0,1,297,524.3c.89.73,1.18,1.26,1,1.65-.3.77-2.31,1.06-4.59,1.23-4.52.4-10.21.82-4,7.07l2.52.4,2.43.33q2.4.34,4.7.72c3.06.55,6,1,8.83,1.52s5.55,1.07,8.18,1.64l7.64,1.77c4.94,1.26,9.59,2.48,14.08,3.85s8.8,2.67,13,3.92,8.38,2.48,12.56,3.62,8.33,2,12.54,2.7a81.34,81.34,0,0,0,26.56.26c6.17,7.8,15.64,12.25,26.48,14.7s23.54,3,36.69,3.11,26.81-.45,39.6,0c3.21.1,6.36.28,9.44.56s6.12.58,9.05,1.06a74.43,74.43,0,0,1,16.51,4.41l-2.49-6.53c5-3.3,8.14-2.59,11-.75s5.47,4.67,9.4,5.12c-1.47-5-11.56-5.31-5.37-9.18,21.6-3.16,43.75-6.24,66.38-10.37l8.5-1.7,4.27-.83,4.33-.94c5.78-1.24,11.62-2.68,17.51-4.22a282.53,282.53,0,0,0,35.8-11.94,208,208,0,0,0,36-19A173,173,0,0,0,759,489.64a175.58,175.58,0,0,0,25.1-36.9A191,191,0,0,0,799,412.61a54.73,54.73,0,0,0,1.16-6.89,34,34,0,0,0,0-5.81,29.23,29.23,0,0,0-.82-4.87,25.14,25.14,0,0,0-1.56-4.06,30.33,30.33,0,0,0-4.28-6.42c-1.63-1.86-3.35-3.54-5-5.25a36.83,36.83,0,0,1-4.35-5.45,19.77,19.77,0,0,1-2.8-7A32.19,32.19,0,0,1,781,357a98.1,98.1,0,0,1,2.48-14.51s3.38,2.81,6.72,5.83,6.55,6.31,6.55,6.31q-.92-3.57-1.77-7.12l-1.83-6.88c-.56-2.3-1.24-4.53-1.84-6.79s-1.2-4.51-1.85-6.71c-2.45-8.92-5-17.58-7.63-26.09s-5.26-16.86-8-25-5.59-16.18-8.57-24-6-15.42-9.23-22.82-6.52-14.57-10.17-21.72a208.08,208.08,0,0,0-26.47-40.61c4.31,2,7.59.27,10.59,5.84.66-8.1-5.58-19.43-13.23-28a76.48,76.48,0,0,0-5.81-5.81,49.26,49.26,0,0,0-5.64-4.26c-3.49-2.24-6.49-3.11-8-2.12-2.64-4.45-1.67-5.9-.12-7.16s3.72-2.31,3.23-6a22.55,22.55,0,0,0-6.85-9.89,55.18,55.18,0,0,0-5.12-4.15c-1.82-1.3-3.68-2.54-5.48-3.74s-3.58-2.36-5.21-3.5a36,36,0,0,1-4.32-3.48c-2.47-2.34-4-4.83-3.77-7.76.05-1,1.29-.74,2.82-.06a39,39,0,0,1,4.52,2.6c-4.87-2.16-12.54-10.33-19.31-15.9s-12.36-8.67-12.33-1.91c-7.9-10.12-18.09-16.58-27.62-22.27s-18.61-10.7-25.3-18.47c-4.24.75-8.34-.55-12.45-2.6-2.05-1-4-2.33-6.08-3.61s-4-2.67-6-4c-3.95-2.59-7.81-4.84-11.33-5.68s-6.75-.14-9.41,3.07c2.2-3.57,1.3-7.34-1.78-10.83a29.82,29.82,0,0,0-6-5.09,63.69,63.69,0,0,0-8.28-4.41,90.88,90.88,0,0,0-9.63-3.43,95.39,95.39,0,0,0-10-2.23c-6.58-1-12.65-1.22-17-.39,3.27-1.68.34-3.9-2.5-6.34s-5.62-5-1.59-7.55a100.38,100.38,0,0,0-13.29-2.51c-2.11-.24-4.13-.39-6-.46a39,39,0,0,0-5.31.2c-3.25.35-5.83,1.08-7.49,2.31a4.89,4.89,0,0,0-2,5.22,41,41,0,0,0-24.52-9.4c-2.11-.12-4.21-.16-6.3-.08s-4.17.33-6.22.58c-4.09.46-8.1,1.34-11.94,2.14s-7.55,1.73-11.09,2.33a58,58,0,0,1-10.18,1,31.5,31.5,0,0,1-4.78-.45,22.3,22.3,0,0,1-4.62-1.26,27.4,27.4,0,0,1-8.88-6,313.17,313.17,0,0,0-39.83,14.78A286.21,286.21,0,0,0,292.11,5.62a267.67,267.67,0,0,0-57.85,49.7,6.72,6.72,0,0,1-1.33-5.51,12.15,12.15,0,0,1,1-3.13,23.69,23.69,0,0,1,2-3.25c.78-1.11,1.68-2.24,2.67-3.39s2.12-2.24,3.28-3.38,2.37-2.29,3.65-3.38L249.38,30l1.95-1.63,2-1.57c1.29-1,2.55-2.08,3.74-3.1a57,57,0,0,0,6.25-5.85c3.36-3.75,4.79-7.33,2-10.78a160.49,160.49,0,0,0-24.16,24.68,259.25,259.25,0,0,0-17,24.6L209,80.9q-1.92,3.17-4,6.35c-1.35,2.15-2.73,4.34-4.2,6.54s-2.89,4.49-4.46,6.78-3,4.68-4.71,7.08c-4,4.68-4.74,2.38-4.52-1.84.11-2.11.48-4.69.81-7.07a49.5,49.5,0,0,0,.66-5.82c-4.91,11.35-9.85,22.11-14.1,32.8-.55,1.33-1.13,2.65-1.65,4l-1.53,4c-1,2.64-2.11,5.26-3,7.89l-2.8,7.85c-.95,2.6-1.7,5.22-2.54,7.81-1.72,5.19-3,10.37-4.35,15.53-.59,2.58-1.13,5.15-1.65,7.72-.25,1.29-.51,2.57-.74,3.85l-.58,3.84c-.36,2.56-.7,5.12-1,7.66s-.36,5.08-.46,7.62-.1,5.06,0,7.57.21,5,.47,7.52c-1.56-.3-2.62-4.73-3.31-8.92-.67,7.81-4.71,17.68,2.9,17.63L153,219.55c6.21-5.39,10.93,3,15,12.43s7.94,20.11,10.8,20.92c-5.23-3.38-8.34-2.89-10.45-.45s-3.21,6.76-4.42,10.85-2.56,8-5.27,9.56-6.87.9-13.55-4.4c1.24,5,4.76,11.27,9.84,10.22-1.55,7.24-4.53,9.65-10.23,2.08,1.94,13.64,5.17,18,7.78,22s4.63,7.63,5.43,20c-3.67.2-5.44-4.73-9.91-7.1,4,6.2,8,12.26,11.12,19.39s5.22,15.3,5.79,26.12c-2.42-.85-4.81,2.2-5.92-4.21a98.12,98.12,0,0,0,9.19,25.06c3.93,7.64,8.83,14.63,13.43,21.53,2.48,3.38,4.91,6.75,7.23,10.22l.86,1.3.93,1.27L192.6,419q1.81,2.6,3.53,5.32.86,1.36,1.69,2.77l1.77,2.76c1.18,1.87,2.31,3.79,3.41,5.8,2.1,4.08,4.45,8.19,6.54,12.81-4.94-.16-7.25.56-8,2s0,3.62,1.08,6.13,2.64,5.24,3.28,8a8.58,8.58,0,0,1-1.93,8.23l2.71,2.44c1.65,1.44,4,3.24,6.22,5.07l6.22,5c.84.68,1.61,1.17,2.11,1.55l.81.58-.23-1.73-.22-1.77-.19-2.08-.45-5.6a46,46,0,0,0,5,5.11c1.82,1.51,3.69,2.92,5.59,4.25s3.81,2.59,5.71,3.81,3.94,2.23,5.86,3.33c3.86,2.17,7.43,4.45,10.9,6.75a41.51,41.51,0,0,1,4.81,3.86A48.15,48.15,0,0,1,263,508l-.64-.16c-.4-.11-1-.23-1.67-.44l-5-1.51-7.36-2.29,4.66,3.24,4.77,3.3c1.74,1.21,3.72,2.33,5.63,3.54l5.66,3.46,2.6,1.58,2.41,1.3,5,2.66-2.24-2.39-2.28-2.44-1.28-1.37c-.43-.48-.84-1-1.26-1.49l-6.62-8c9.82,2.66,11.78-1.32,13.69-3.63.94-1.17,1.84-2,3.55-1.39s4.39,2.23,8.88,6.21c-1.2-.34-.87.09.37,1.12.63.5,1.44,1.22,2.48,1.93s2.21,1.58,3.47,2.53,2.59,2,3.92,3.13c.66.57,1.33,1.16,2,1.76l1,.93,1,.89a26.32,26.32,0,0,1,6.17,8s-.06,0-.07,0l3.77,0c1.25,0,2.56-.09,3.83-.09a51,51,0,0,1,7.7.42,35.21,35.21,0,0,1,3.89.76,33.43,33.43,0,0,1,4,1.06,36.3,36.3,0,0,1,8.39,4.09c1,2.64-.75,6.09-2.66,9.3s-4,6.14-3.25,7.93a14.75,14.75,0,0,1,5.44-2,33,33,0,0,1,6.74-.28c2.42.08,5,.37,7.66.72s5.42.69,8.19,1.06c11.07,1.42,22.43,2,28.64-3.49-4,2.43-5.19,9.58-4.14,11.21l4.29-4.21,4.2-4.22c7.9,3.83,9,5.38,7.15,11,12.56,1.93,10.82-2.7,9.71-6.4-.56-1.87-1-3.54.52-4.16s4.92-.11,12.1,2.13c-2.33.63-1.3,2.11-6.19,3.25,14.66,2.86,28.9,1.7,42.55.48,6.83-.6,13.57-1.26,20.26-1.42a103.58,103.58,0,0,1,20,1.15c4,6.9-1.85,7.85-7.53,8.42s-11.24.88-6.73,6.75c19.3-1.23,39.42-5.68,59.23-10.09s39.31-8.8,58.32-9.72c0,0-1.81-.11-3.61-.3l-3.6-.34c.7-5,2.83-7.1,5.93-7.7s7.18.34,11.8,1.54c2.31.63,4.74,1.19,7.24,1.69a53.16,53.16,0,0,0,7.61,1,28.24,28.24,0,0,0,3.8,0,24.25,24.25,0,0,0,3.7-.66,19,19,0,0,0,6.86-3.32c-4.3,2.39-3.87,11.94-3,9.53a86.8,86.8,0,0,0,10-1.46c3.33-.75,6.67-1.66,10-2.7a99.57,99.57,0,0,0,10.15-3.75q2.56-1.07,5.15-2.22c1.73-.76,3.48-1.55,5.22-2.47q5.24-2.67,10.68-5.63c3.63-2,7.28-4.3,11.07-6.55s7.66-4.7,11.75-7.42,8.33-5.66,12.66-9c0,0-.54,1.77-1.13,3.51s-1.22,3.5-1.22,3.5a53.82,53.82,0,0,0,14.23-5.72,76.1,76.1,0,0,0,7.65-4.94,80.81,80.81,0,0,0,7.5-6.27A109.33,109.33,0,0,0,771,488.08c3.6-4.82,6.63-9.44,9.38-13.41-1.73-7.4,3-16.16-6.2-13.6a62.67,62.67,0,0,0,8.11-7.38,59,59,0,0,0,6.27-8,69.37,69.37,0,0,0,8.37-17.28c1-3,1.81-6,2.53-9s1.1-6.12,1.52-9.18.78-6.12.94-9.19.28-6.12.38-9.15c.39-12.15,0-24,1.31-35.33.39-2.84.72-5.66,1.3-8.45a69.38,69.38,0,0,1,2.19-8.31,64.72,64.72,0,0,1,7.72-16.28c-.47,5.37,3.12,13.31,3.56,9l-.13-6.1c0-3.66-.34-8.51-.52-13.36s-.51-9.66-.74-13.27l-.39-6c-8.71,2.57-5.45,4.75-12.54,12.26-4.8-5.11-8.05-15.84-7.76-25.07,2.5,8.5,5.93,8.65,9.37,5.73s6.91-8.94,9.39-12.55c-2.65,1.15-5.47-1.45-8.15-.91,7.85-9.63,3.58-10.6-1.3-12.4s-10.38-4.49-5.09-17.75l4.48,1.45c-1.11-5-3.15-9.82-4.73-14.71s-2.77-9.86-2.13-15.23c9.89-4.48,4.62,10.6,12.76,11.3-.28-7.57-5-15-8.39-22.26s-5.49-14.27-.73-21.28c1.46,3.22,2.2,7.17,2.93,11.1a52.77,52.77,0,0,0,2.81,11c5.78-7.45,7.93-11.64,8.83-15.42s.58-7.1,1.28-13.05l-.22,1.17s1.1-6.85,1.76-14.16c.16-1.83.29-3.68.41-5.43l.21-4.84.06-3.49v-1.33l-.29,1.28-.66,2.79c-.23,1-.5,2-.7,2.74l-.34,1.23c-7.09-4.58-11.44-9.12-14.56-13.95s-5-9.95-7.27-15.3-4.68-10.86-8.66-15.75a33.13,33.13,0,0,0-16.84-11.22c7.18,2.16,11.39,3.71,13.85,4.06s3.19-.36,3.28-1.7-.42-3.27-.35-5.18a5.36,5.36,0,0,1,3.22-5.08c-.3-1-.64-2.07-1-3.17s-.79-2.16-1.19-3.26l-1.18-3.24c-.39-1-.76-2-1.07-3-1.22-3.78-1.68-6.47.7-6.35a21.89,21.89,0,0,1-5.49-2.15,19.53,19.53,0,0,1-4.14-3c-2.47-2.2-4.44-4.91-6.77-7.51-.58-.66-1.17-1.32-1.8-2s-1.3-1.25-2-1.86A23.69,23.69,0,0,0,761.86,53a22.84,22.84,0,0,0-6.19-2.23,27,27,0,0,0-3.73-.54,36.15,36.15,0,0,0-4.19,0c.54-1.81-2.67-3.72-5.15-6s-4.28-4.74-.8-8c-9-2.88-8.58-.89-6.53,2.08s5.74,7.15,4,8.79c-7.5-.49-14.23-3-21.1-6.41s-13.83-7.78-21.31-11.83S681.46,21.13,673,19a63.43,63.43,0,0,0-13.08-1.86,57.88,57.88,0,0,0-6.88.16,55.91,55.91,0,0,0-7.12,1.21c-4,0-7.53.26-10.81.6A86.32,86.32,0,0,0,626,20.57c-2.8.6-5.39,1.28-7.86,2S613.35,24,611,24.86c-4.68,1.6-9.25,3.19-14.41,4.48a100.22,100.22,0,0,1-18,3c-4.24-3.5-1.94-6.5,1.48-8.61A35.06,35.06,0,0,1,588,20.39a64.73,64.73,0,0,0-10.38-4.33,54.56,54.56,0,0,0-9.91-2c-6.56-.75-13.16-.1-20.51,1.21,3.21-2.83.5-5.79-3.51-10.27-5.83-.05-8.06,3.06-10.65,5.34a8.36,8.36,0,0,1-4.68,2.32c-2,.23-4.56-.23-8.25-1.81,1.45-1.91,3.14-4.42,5.21-6.88a30.32,30.32,0,0,1,7.5-6.63c-14,2.11-27.91,8-42.1,10.41-3.39-6.5,9-9,14.28-12.83-16.11,1.77-41.42,3.58-46.62,13.38l9.94,3.94c-5.74.25-2.61-8.66,1.72-10.31C484-5.23,489.44,6.28,490,10c0,0-2.52.43-5,.9l-5,.92c2.3,5.42,5.93,8,10.41,9s9.81.22,15.51-1.11,11.76-3.13,17.67-4.5,11.66-2.11,16.65-1.37l-4.87,7.3-4.81,7.31,10.76-5.48,10.87-5.3c4,4.43,5.94,13.28-4,14.57,6.68,4.52,9.93,3.44,12.95,2.57s5.8-1.72,11.32,3.22c1.17,1.47.47,2.13-.84,2.59l2.23-.45c1.34-.28,3.13-.61,4.92-.93l7.17-1.3c-3.14,2.82.73,11.08-7.31,7.69a38.67,38.67,0,0,0,8.42,3.29A44.33,44.33,0,0,0,594.74,50a64.88,64.88,0,0,0,13.82-.89c8.3-1.08,14.78-2.06,18.19,4.5l-2.2.55c17.16.9,18.64-1.61,19.23-5.43s.28-8.93,14.64-12.26c0,0,2.7,7.81,5.19,15.59s4.73,15.66,4.73,15.66l3.09-5,3.13-5a24,24,0,0,1,5.76,3.07c1.69,1.38,2.62,3.07,1.35,5,7.28-1.77,7.19-3,6.36-4.56s-2.35-3.17,2.44-5.46c6.57,7.5,17.73,10.42,26.9,14.49,4.54,2,8.58,4.26,11,7.13a9.81,9.81,0,0,1,2.37,4.73,10.55,10.55,0,0,1-.7,5.79c4.67-2.09,2.4-5.57.88-8-.73-1.21-1.2-2.17-.34-2.57a5.14,5.14,0,0,1,2.44-.15,32.43,32.43,0,0,1,5.28,1c-3,9.53,1.3,11.43,7.55,13.62l2.41.84c.81.31,1.63.63,2.47,1a26.41,26.41,0,0,1,4.85,2.54,16.38,16.38,0,0,1,4.05,3.8,13.72,13.72,0,0,1,2.36,5.45,12.28,12.28,0,0,1-6.78.17,44,44,0,0,1-4.56-1.55c-1.1-.36-1.81-.3-1.95.79a10.86,10.86,0,0,0,.12,2.56c.14,1.19.47,2.67.75,4.65a12.12,12.12,0,0,1,5.8-.64,8.5,8.5,0,0,1,4.23,2c2.31,2.1,3.75,5.42,4.49,9s.94,7.48,1.3,10.81.75,6.25,2.35,8.41c3.19-1,5.67-.26,7.58,1.94a15.17,15.17,0,0,1,2.5,4.24,37.68,37.68,0,0,1,1.72,5.9,137.27,137.27,0,0,1,2,15,137.06,137.06,0,0,0,2.3,16.52c-1.14-.32-2.12,2.07-3.06,6.21s-1.87,10.09-2.79,16.72-1.88,13.91-2.91,20.84-2.16,13.45-3.47,18.54l-2.24-.63c13.54,4.12,10.71,25.33,12.75,40.79-8.1-1-11.2-3.88-14.51-12.22l-.51,14.26c4.14,3.55,6.25,8.15,7.17,17.52l-9.88-4.24a81.09,81.09,0,0,0,.93,14.32c.64,4.87,1.36,9.84,1.91,15a82.31,82.31,0,0,1,0,15.88,55.39,55.39,0,0,1-1.63,8.22,47.43,47.43,0,0,1-3.1,8.37c2.27.73,5.26.22,8.46-.61a82.46,82.46,0,0,1,9.79-2.39c3.2-.41,6.19-.09,8.51,2.06a11.49,11.49,0,0,1,2.91,4.76,31.32,31.32,0,0,1,1.33,8.34c-5.22.06-14-.68-14.81-7.77.24,2.3,2.74,8.68-.28,12.71,0,0-.37-.75-1-1.87l-2.25-4.1-3.29-5.88c-2.87,5.11-1.36,6.86.55,8.45s4.22,3,2.86,7.29c-7.11-1.7-6.51,5.32-11.89,2.78-.22-2.32,4.63-6.83,2.5-10.71a59.94,59.94,0,0,1-7.13,13.83c-3,4.06-6.42,7.19-9.57,8.31a10.64,10.64,0,0,1,6.23,2.27c1.71,1.49,2.9,3.91,2.27,7.46-2.44,9-5,9.81-7.76,9.55s-5.8-1.58-9.29,2.71c1.67,2.85.35,6.6-.18,10.05s-.31,6.51,4.68,8.74c-2,4.76-7.11,3.45-10.53,3.85.21,2.37-.69,5.76-2.06,9.17a92.79,92.79,0,0,1-4.74,9.66c-1.54,2.87-2.82,5.22-2.89,7.23s1,3.62,4.63,4.22l2-.89c-.11.43-.43.75-.6,1.26l0,0,0,0c-2.8,6.62-8.64,11.8-15.5,15.45s-14.88,6-23.09,7.76L686.31,500c-2,.48-4.1.76-6.13,1.16s-4.07.75-6.08,1.16l-3,.62-3,.55c-4,.74-7.94,1.68-11.81,2.72a81.22,81.22,0,0,0-11.4,3.69l-.78-3.58a121.72,121.72,0,0,1-13.87,5.29c-4.85,1.45-9.8,2.75-14.58,4.14A126.2,126.2,0,0,0,601.93,520a44,44,0,0,0-11.31,5.73c-2.83.37-6.38-1-8.92-3s-4.1-4.6-3.1-6.88c-7.09,2.11-11,4-15.87,5a29.89,29.89,0,0,1-3.86.52,37,37,0,0,1-4.59-.06,78.8,78.8,0,0,1-12.87-2.16c14.39-7.07-5.29-5.35,14.79-5.42-4.77-.53-8.62-1.29-12-1.94a69.73,69.73,0,0,0-9.38-1.51c-6-.36-12.09.78-22.26,6,6.8-9.44-14.43-11.6-23.55-8.87l6.71,3.35,6.72,3.33c-10.23,1.42-19.23.55-28.38-.33l5-12.27c-19.68-7.62-36.86-1.56-52.94,2.62-8,2.07-15.78,3.67-23.07,2.91a27,27,0,0,1-19.5-11.31c-5.32,3.34-1,5.79,3.74,8.25s9.72,5,4.66,9.42c-8.43-2-16.12-8.37-21.71-14.47-1.43-1.49-2.69-3-3.87-4.43s-2.26-2.66-3.2-3.83c-1.89-2.3-3.38-3.88-4.53-4.22a20.42,20.42,0,0,0-6-3.31,13.76,13.76,0,0,0-2.7-.6c-.44-.05-.87-.08-1.3-.09s-.84,0-1.26,0c-3.32,0-6.46,1.25-9.75,2.49-.82.31-1.66.62-2.5.92s-1.67.49-2.54.69a21.91,21.91,0,0,1-5.41.61,16.79,16.79,0,0,1-6-1.17,26.24,26.24,0,0,1-6.44-4.13,13,13,0,0,1-3.38,9.8,11,11,0,0,1-6.43,3,15.18,15.18,0,0,1-4.89-.13,34.32,34.32,0,0,1-6.17-1.68,19.22,19.22,0,0,1-6.76-9,13.45,13.45,0,0,1-.37-8.43c1.5-4.87,6-7.91,11.13-6.4,3.34,1.94,4.06,4.18,3.1,5.32,2.65.77,5.69,1.63,7.67,1.39s2.92-1.62,1.58-5.29l-4.11,2.6a21.5,21.5,0,0,0-2.17-3.13c-.84-1.14-1.82-2.31-2.86-3.49s-2.13-2.35-3.21-3.51c-.54-.58-1.08-1.14-1.59-1.72l-1.41-1.78c-3.62-4.67-5.66-8.43-1.41-9.65-.72-.25-1.4-.44-2-.63s-1.13-.36-1.62-.48a8,8,0,0,0-2.41-.29c-1.25.09-1.81.72-1.85,1.74a9.54,9.54,0,0,0,1.24,4.07,44,44,0,0,0,3.46,5.19c-.74-1.11-1.47-2.15-2.21-3.13L287,454.72l-1-1.44a60.72,60.72,0,0,0-4.21-5.09c-.71-.77-1.43-1.51-2.15-2.23s-1.36-1.5-2.05-2.22c-1.38-1.44-2.78-2.82-4.2-4.18-.7-.69-1.44-1.35-2.13-2.06l-2-2.21c-1.35-1.49-2.71-3-4.06-4.66l-1-1.25c-.33-.43-.62-.89-.93-1.35q-.92-1.38-1.82-2.86a58.35,58.35,0,0,1-3.47-6.43c-.08,4-2.21,9.54-4.25,6.88-.45-.87-.93-1.66-1.31-2.46s-.75-1.55-1.11-2.26c-.72-1.41-1.4-2.64-2-3.71a38.59,38.59,0,0,0-3.48-4.83,7.81,7.81,0,0,0-5.66-3c-1.85-.18-3.75,0-6-.86a10.07,10.07,0,0,1-3.5-2.4,29,29,0,0,1-4.06-5.23c0-3.49,1.27-5.43,2.63-6.61a16.58,16.58,0,0,1,4-2.17c1.1-.55,1.74-1.2,1.28-2.74a12.77,12.77,0,0,0-1.62-3.1c-.86-1.34-2.2-3-3.66-5.19,0-6.77,2.55-8.21,5.69-7.75s6.84,2.85,9.25,4.35a26.4,26.4,0,0,1-4.19-5.27,20.35,20.35,0,0,1-2.49-5.75c-.26-1-.47-2-.64-3a30.23,30.23,0,0,1-.28-3c0-1-.06-2,0-3s.13-2,.24-3c.84-7.87,3.58-14.9,3.59-20.1l2.48,4.39,2.57,4.24a29.8,29.8,0,0,1-1.9-3.69,29.41,29.41,0,0,1-1.18-3.62,53.3,53.3,0,0,1-1.21-7.09l-4,3.29-4,3.38c.7-5.93.24-10.86,3.89-11.12-3.19-2.67-6.68-1.23-10.55-.4s-8,.95-12.53-5.14c1.93-4.36.31-10.64-.13-16.44s.09-11,5.92-12.43a40.21,40.21,0,0,0-.54,7.57,6.26,6.26,0,0,0,.9,3.52c1,1.28,2.61.74,4.42.07s3.79-1.44,5.49-.7a4.7,4.7,0,0,1,2.27,2.43,12.83,12.83,0,0,1,.86,2.44,26.57,26.57,0,0,1,.68,3.42,18.5,18.5,0,0,1-.93-3.22,22.84,22.84,0,0,1-.35-3.64,34,34,0,0,1,1-8.47c1.29-.93,2.43.84,3.13,2.49,2.5-6.14,3-9.91,2.3-12.56s-2.65-4.14-4.9-5.7-4.83-3.17-6.73-6.06-3.23-7.08-2.77-13.67c3.19,1.86,6.38.49,8.62-1.82s3.65-5.53,3.09-7.67c-.44,5.13-3.26,6.2-6.52,4.73a15.3,15.3,0,0,1-5-4,23.73,23.73,0,0,1-4.07-6.68,34.08,34.08,0,0,0,2.59-9.88,18.24,18.24,0,0,0-.71-6.56c-1-3.68-2.74-6.56-1.73-10.84l-.64,1.48-1.31,3.3L217,224.77c-3-2.13-4-5.31-4.26-9.48s.34-9.27.57-15.3c2.6,0,2.93,2.84,3,5.16s-.05,4.22,1.39,2.34a12.29,12.29,0,0,1-1-10.83,27.29,27.29,0,0,1,2.67-5.16c.55-.85,1.13-1.7,1.75-2.55s1.31-1.67,2-2.51c1.35-1.68,2.74-3.37,4-5.1a44.31,44.31,0,0,0,3.67-5.27,25.14,25.14,0,0,0,1.4-2.81,19.72,19.72,0,0,0,1.11-2.92,19.26,19.26,0,0,0,.67-6.56c3.56-2.9,6.47-1.89,9.2-.87s5.24,2.07,7.83-.36a24.36,24.36,0,0,1,.56-6.27,14.5,14.5,0,0,1,.77-2.45,15,15,0,0,1,1.11-2,19,19,0,0,1,6-5.55c1.12-.74,2.25-1.47,3.33-2.29q.81-.62,1.57-1.32a16.13,16.13,0,0,0,1.54-1.47c1.94-2.16,3.56-5.06,4.73-9.69-5.13-.53-7.34-.08-8.3-1.64-.46-.77-.63-2-.54-4.06s.29-4.93.76-8.94c0,0-3.82,7.26-6.73,14.72-.7,1.89-1.45,3.72-2.06,5.49L252.13,142c-.47,1.42-.89,2.57-1.1,3.44l-.37,1.33-.1-1c-.06-.65-.17-1.61-.21-2.71-.11-2.22-.25-5.22-.36-8.3s0-6.09.07-8.42l.2-3.87a32.2,32.2,0,0,0-2,3.26c-.57,1.15-1.07,2.36-1.53,3.56a65.7,65.7,0,0,0-2.26,7.3c-.32,1.18-.64,2.33-1,3.41s-.57,2.17-.89,3.15a13.56,13.56,0,0,1-2.4,4.75c-.94-6.07-1-8.79-1.91-9.75s-2.72-.26-7.13.33a20.56,20.56,0,0,0,3.08-1.45,24.78,24.78,0,0,0,2.49-1.7,14.42,14.42,0,0,0,3.53-4.11,20.75,20.75,0,0,0,1.17-2.4,26.26,26.26,0,0,0,1-2.52c.59-1.74,1-3.6,1.57-5.44s1-3.79,1.66-5.64a35.42,35.42,0,0,1,2.39-5.42,21.58,21.58,0,0,1,3.71-4.68,18.41,18.41,0,0,1,5.54-3.37l16.22,14.66a36.72,36.72,0,0,0,12.61-9.71,72.78,72.78,0,0,0,4.67-6.21c.75-1.09,1.52-2.18,2.27-3.32l1.13-1.73,1.18-1.71,2.43-3.5c.86-1.14,1.75-2.29,2.67-3.45s1.91-2.27,2.95-3.38a42.62,42.62,0,0,1,3.28-3.24,41.42,41.42,0,0,1,17.65-9.67l-1.6.1c-1,.08-2.27.11-3.53.27l-5.14.57a6.86,6.86,0,0,1,2.42-5.7,22.27,22.27,0,0,1,6.53-3.59c1.26-.54,2.64-1,4-1.41s2.75-.93,4.08-1.45a25.16,25.16,0,0,0,7.35-3.84c1.56,7.13,8.26,7.74,13.33,10.93-.5-1.27.55-2.22,2.4-3.18.92-.48,2-1,3.27-1.48s2.6-1,4-1.55a36.88,36.88,0,0,0,4.05-2,17.64,17.64,0,0,0,3.66-2.56A12,12,0,0,0,371.88,52a11.64,11.64,0,0,0,1.18-4.8l2.4,1.17c1.43.71,3.31,1.62,5.17,2.6,3.74,2,7.3,4.06,7.3,4.06a31,31,0,0,0,8.27-.34,26.46,26.46,0,0,0,6.77-2,46.73,46.73,0,0,0,5.88-3.19c1.87-1.18,3.69-2.57,5.53-3.8,3.68-2.53,7.47-5.16,12-6.65a30.45,30.45,0,0,1,3.5-1,24.09,24.09,0,0,1,3.8-.45,28.13,28.13,0,0,1,8.66.89c-4.39,3.34-3.82,6.75-4.43,9.68s-2.32,5.44-10.5,7.43c2,.15,3.88.55,5.65.79s3.39.42,4.79.52c2.8.14,4.74-.51,5.21-3a3.49,3.49,0,0,0,2.15,1.24,11.25,11.25,0,0,0,3.3.22c2.51-.14,5.6-.76,8.78-1.11,1.59-.2,3.21-.37,4.79-.46a26.28,26.28,0,0,1,4.53.23,12.49,12.49,0,0,1,3.86,1.15,7.13,7.13,0,0,1,2.73,2.54c2.12-1.05,4-3.33,6.52-4.93s5.63-2.39,10.14-.6c.51,1.76-1.2,3.4-1.2,3.4.6-1.7,4.55-1.59,7.75-2.34,1.6-.39,3-1,3.69-2.1s.65-2.9-.71-5.52A48.66,48.66,0,0,0,503,51a45,45,0,0,0,4.32,4.67A64.83,64.83,0,0,0,517.5,63.5c3.69,2.3,7.57,4.5,11.63,6.5s8.18,4,12.26,6.11,8.15,4.16,12,6.35a88.11,88.11,0,0,1,10.71,7.23c6.47,5.18,11.37,11.23,13.11,18.57A239,239,0,0,1,602.4,124.1a160.87,160.87,0,0,1,21.34,18.23c-2.34.69-2.7,2.4-4.27-.4,2.58,5.35,5.36,7.75,8.31,8.94s6.2.92,9.44.91,6.64,0,9.79,1.88a15.77,15.77,0,0,1,4.6,4.19,31.49,31.49,0,0,1,4,7.92c-1,9.16-4.35,7-7.26,3.88s-5.58-7.13-4.95-2.35c-8.7,8.53-3.6,14.16,3.27,21.29,3.44,3.54,7.34,7.42,10.14,11.89s4.49,9.48,3.49,15.11L657,212.41c-.35,7.95,5.46,14.24,12.44,21.59a155.66,155.66,0,0,1,10.63,12,53.06,53.06,0,0,1,8.3,14.77s-2.4-.18-3.38,1.32c8.76,4.79,17,13.78,23.94,24.22s12.6,22.32,16.87,32.7c-5.42-2.23-7.23-4.26-8.72-5s-2.65-.13-6.78,3c1.82,4.39,5.38,2.81,9.39,2.33a9,9,0,0,1,6.18,1.11c2,1.3,4.11,3.85,5.7,8.64a32.46,32.46,0,0,0-1.34,3.07c-.46,1.11-.9,2.3-1.36,3.52l-1.41,3.74c-.52,1.26-1.08,2.51-1.68,3.72a35.11,35.11,0,0,1-2,3.48,21.24,21.24,0,0,1-2.42,3,13.57,13.57,0,0,1-6.32,3.81l-.36-2.63-.36-2.69-.52-3.09-.52-3.09-.54-2.7-.53-2.63a12.68,12.68,0,0,0-4.33,8,12,12,0,0,0,.29,3.9,23.29,23.29,0,0,0,1.18,3.89c1.07,2.62,2.22,5.13,3.17,7.64a12.88,12.88,0,0,1,.8,7.08l-5.78-1a65,65,0,0,0,2.79,14.58c1.31,4,2.77,7.37,4.16,10.94.62,1.76,1.22,3.56,1.72,5.5a34.23,34.23,0,0,1,.88,6.21,36.06,36.06,0,0,1-.53,7.35c-.28,1.32-.64,2.71-1.07,4.17-.22.73-.43,1.49-.73,2.24s-.62,1.51-1,2.3l2.56-.55,2.59-.6c1.94,4.84,2.13,8.12,1.2,10.17a7.85,7.85,0,0,1-4.45,4.06c-1.89.89-3.79,1.7-5.17,3.38a7.68,7.68,0,0,0-1.64,3.33,18.17,18.17,0,0,0-.38,2.48,25.26,25.26,0,0,0-.16,3.12s-3.69-1.08-7.27-2.3c-1.79-.61-3.56-1.24-4.91-1.76l-2.22-.86c-.33,1.13-.7,2.5-1.12,4.09s-1.08,3.27-1.72,5.2-1.57,3.87-2.47,6l-1.61,3.19c-.56,1.09-1.12,2.23-1.8,3.3l-2,3.33c-.7,1.12-1.5,2.18-2.27,3.29a79.11,79.11,0,0,1-5.08,6.39c-.89,1-1.86,2-2.79,3s-1.88,1.94-2.89,2.79a62.18,62.18,0,0,1-6,4.82c2.42-7.33,7.34-14.86,11.53-22.36s7.71-14.86,8.87-21l-1.1,1.25-1.32,1.38c-.92,1-1.86,2.11-3,3.22s-2.17,2.39-3.41,3.6-2.35,2.55-3.61,3.8q-.91,1-1.78,1.94c-.57.66-1.2,1.27-1.75,1.91-1.14,1.27-2.14,2.6-3.11,3.81a21.22,21.22,0,0,0-2.3,3.68,9.46,9.46,0,0,0-1.12,3.41,28.71,28.71,0,0,0,2-2.68c.64-1,1.29-2,2-2.88,1.44-1.75,2.89-3.25,5.08-3.34a39.79,39.79,0,0,1-11.69,21.72c-6.33,6.3-15,11.3-25.43,14.52-1.29-7-5.34-9.83-10.89-10.68a33.52,33.52,0,0,0-4.47-.28c-1.6,0-3.22.15-5,.27s-3.6.36-5.49.62-3.8.62-5.81.85l-6,.82c-1,.13-2,.28-3.06.4l-3.09.27c-2.05.16-4.1.29-6.1.36a53.83,53.83,0,0,1-5.93-.15,49.21,49.21,0,0,1-5.58-.71,28.71,28.71,0,0,1-5.09-1.5,19.17,19.17,0,0,1-8-5.66q-3.36,1.22-6.76,2.16c-1.14.31-2.27.62-3.41.87s-2.3.46-3.46.66q-3.47.6-7,1c-2.35.2-4.7.33-7.06.41a135.44,135.44,0,0,1-14.31-.38c-2.41-.19-4.84-.46-7.27-.73s-4.87-.57-7.34-1l-7.42-1.14L488,482.43c-5-.84-10.19-1.83-15.39-2.65a305.48,305.48,0,0,0-32.82-4c7.09,11.73,3.75,11.58-1.34,11.33s-11.82-.64-11.58,10.75a68,68,0,0,1-11.63-.37c-2.46-.37-3.66-1-4-1.78,0,0-7.66-4.31-15-8.81S382,477.7,382,477.7c-2.94-3.9-.35-4.68,2.91-5.15s7.33-.72,7.28-3.3c-5.32-1.3-8.34-2.71-10.15-4.15a7.09,7.09,0,0,1-2.76-4.48,25.59,25.59,0,0,0-1.21-5,15.28,15.28,0,0,0-5-5.94c.41,4.24-1.92,6.7-5.74,7.33a16.57,16.57,0,0,1-6.5-.48,27.17,27.17,0,0,1-3.62-1.31q-.92-.41-1.85-.89c-.6-.34-1.2-.71-1.8-1.1,0,0,.71.93,1.85,2.29l4.31,5c1.62,1.79,3.31,3.55,4.57,4.89s2.15,2.21,2.15,2.21c-7.82,1.18-13,0-16.62-2.18a17.69,17.69,0,0,1-4.49-4,47.32,47.32,0,0,1-3.24-4.74c-1-1.6-1.91-3.29-3-4.8a20.88,20.88,0,0,0-1.76-2.17,17.22,17.22,0,0,0-2-2,14.39,14.39,0,0,0-2.54-1.64,19.18,19.18,0,0,0-3-1.29,28,28,0,0,0-3.75-.85,33.87,33.87,0,0,0-4.66-.5s2.62-.63,5.13-1.3c1.25-.31,2.52-.72,3.46-1l1.55-.49a24.91,24.91,0,0,1-2.59-.46c-.91-.24-1.85-.56-2.86-.91s-2.08-.73-3.14-1.2l-3.31-1.53c-4.51-2.21-9.46-5-14.23-7.8a135.69,135.69,0,0,0-14.5-7.52,46.22,46.22,0,0,0-7.45-2.37c-1.33-.25-2.54-.49-3.85-.63a29.12,29.12,0,0,0-4-.14,11.06,11.06,0,0,1,3.11-5.32,5,5,0,0,1,2.59-1.32,3.36,3.36,0,0,1,1.42.1,5.12,5.12,0,0,1,1.57.74c-3.32-5.78-7.2-11-10.91-16.61-.91-1.41-1.73-2.85-2.72-4.29s-1.77-3-2.6-4.75a79.91,79.91,0,0,1-4.59-11.3,95.83,95.83,0,0,1-3.18-13.11c-.38-2.29-.7-4.59-.92-6.93s-.3-4.66-.36-6.93,0-4.51.09-6.69a51.73,51.73,0,0,1,.8-6.37,40.78,40.78,0,0,1,3.64-11.51l5.22,3.31c-.44-3.51-2.72-6.77-4.09-10.23s-1.64-7.07,1.69-11c2.2.78,5.09,3.53,5.85.4-.35-1-1-2.69-1.63-4.86a67.57,67.57,0,0,1-1.62-7.58c-.21-1.4-.38-2.83-.47-4.27,0-.72-.07-1.44-.08-2.15s.06-1.41.13-2.11a18.08,18.08,0,0,1,2.2-7.51l2.24,4.53,2.24,4.47a79.35,79.35,0,0,0,4.05-12.24,66,66,0,0,0,2-11.42,80.94,80.94,0,0,0,.54-10.94q0-1.36-.07-2.71l-.05-2.68c0-1.78-.14-3.57-.24-5.35l-.38-5.38c-.15-1.8-.19-3.57-.29-5.37-.16-3.59-.34-7.23-.33-10.9s.32-7.34.77-11.11c.12-.94.23-1.89.4-2.83s.37-1.88.58-2.82c.42-1.89.92-3.79,1.5-5.71a13.94,13.94,0,0,0,11.29-.17,37.91,37.91,0,0,0,11.23-7.36c1.75-1.62,3.63-3.28,5.35-5s3.4-3.56,5-5.34c3.21-3.52,6.14-6.89,8.42-9.61l1.75,1.59c1.34-2.2,2.79-4.27,4.07-6.39s2.52-4.22,3.67-6.33c2.36-4.12,4.47-8.07,6.4-11.89s3.71-7.44,5.4-11l5-10.27A118.8,118.8,0,0,1,361.89,107l.79-1.07.83-1c.56-.67,1.11-1.37,1.7-2s1.19-1.31,1.83-2,1.29-1.29,2-1.91a55.12,55.12,0,0,1,9.6-7c6.27,2.5,13.34,3.33,21.6,3.68l3.15.11,3.26.08c2.21,0,4.49.15,6.79.13s4.66.13,7,.18l3.61.16,1.82.06,1.83.13c9.78.63,20,1.81,29.75,4.49s18.88,6.53,26.21,11.79c-2-2.25-.81-5.2,1.81-7.48A13.8,13.8,0,0,1,495.59,102c1.72,1.62,4.23,2.31,7,2.76,1.35.25,2.76.41,4.15.56l2.05.23c.66.1,1.31.2,1.94.31,5,.87,8.18,2.68,4.08,9l-1.31-.85c-.65-.43-1.32-.84-1.32-.84a17.85,17.85,0,0,0,2.3,10.08,20.07,20.07,0,0,0,2.87,3.9c.56.6,1.15,1.16,1.77,1.72s1.25,1.12,1.92,1.66c5.34,4.22,12.23,7.69,17.58,11.89l6.69-7.22L552,128c3.45,11.41,9.67,20.35,17.19,28.54s16.24,15.68,24.38,23.39a145.08,145.08,0,0,1,10.81,11.18,49,49,0,0,1,7.22,10.74,19.4,19.4,0,0,1,2.08,10,13.24,13.24,0,0,1-1.31,4.49,15.15,15.15,0,0,1-1.25,2.09,17.42,17.42,0,0,1-1.72,2c3.24,2.37,5.29,5.93,7.08,9.85s3.41,8.18,6.06,12.18l-10.48.09c-.39,5.39-1,10.37-1.65,15.23s-1.29,9.6-1.91,14.69c-.32,2.56-.61,5.2-.91,7.89l-.86,8.16-.92,8.55c-.35,2.9-.72,5.91-1.17,9,0,0-1.52-1.71-3-3.33s-3.11-3.27-3.11-3.27c-.88,3.39.2,6.26,2.25,9.28a47.86,47.86,0,0,0,3.64,4.56l4.28,4.77A45.7,45.7,0,0,1,616,328.25a14.41,14.41,0,0,1,1.44,5.17,10.29,10.29,0,0,1-.18,2.48,6.75,6.75,0,0,1-.89,2.36s-3.89-1.19-7.65-2.57-7.46-2.93-7.46-2.93a41,41,0,0,1-12.44,11.15,111.86,111.86,0,0,1-16.09,7.8c-5.58,2.32-11.18,4.55-16.67,7.37a95.08,95.08,0,0,0-17.4,11.35,15.39,15.39,0,0,1,.39-4.52,5.64,5.64,0,0,1,3.39-4,87.1,87.1,0,0,1-12.91,1.24c-5.24.22-11.07.32-16.44.84s-10.25,1.52-13.49,3.7-4.8,5.6-3.32,10.94c-.42-7-8.27-7.06-18.68-5.12s-22.85,5.9-31.67,8l1.86-5,1.81-5C442,377.39,437.77,381,433,383.31s-10.26,3.26-20.49,2.67c-4.32-2.44-1.94-9,3.37-4.94a20,20,0,0,0-4.57-2.31,11.15,11.15,0,0,0-3.62-.68,19.26,19.26,0,0,0-6.07,1.35,23.59,23.59,0,0,1-3.15.85,13,13,0,0,1-3.6.08,14.42,14.42,0,0,1-2.08-.4,16.69,16.69,0,0,1-2.27-.87,22.84,22.84,0,0,1-5.21-3.33l1.39-.53c.83-.33,1.91-.74,3-1.21l4.35-1.87c-1.74-.79-3.32-1.36-4.64-1.89a27.4,27.4,0,0,0-3.55-1.15,12.86,12.86,0,0,0-5.3-.42,26.82,26.82,0,0,0-4.89,1.39,48.79,48.79,0,0,1-6.81,2,15.41,15.41,0,0,1-4.2-1.14,27.25,27.25,0,0,1-4.22-2.4,33.23,33.23,0,0,1-3.91-3.4,30.45,30.45,0,0,1-3.3-4.08,24.29,24.29,0,0,1-2.42-4.43,18.25,18.25,0,0,1-1.36-4.43,11.33,11.33,0,0,1,.94-7.62,14.12,14.12,0,0,1-4.82,1.55,18.32,18.32,0,0,1-2.92.19,16.36,16.36,0,0,1-3-.37,17.29,17.29,0,0,1-3-.93,13.06,13.06,0,0,1-2.72-1.6,12.55,12.55,0,0,1-2.33-2.24,13.4,13.4,0,0,1-1.65-2.94c2-3.09,5.73-2,7.48-1.5a54,54,0,0,0-8.06-13.37c-2.85-3.53-5.93-6.58-8.74-9.72A34.11,34.11,0,0,1,314,303.54a17.67,17.67,0,0,1,.06-12.53c3.27-1,4.8-2.33,5.59-3.82a115.12,115.12,0,0,0,5.6,22.52c1.92,5.37,3.27,8.36,2.6,7.94a11,11,0,0,0,4.4-4.48c1-1.75,1.88-3.6,2.95-5.13a8.39,8.39,0,0,1,4.54-3.42,12.62,12.62,0,0,1,3.66-.48,33,33,0,0,1,5,.38c-1.23-.61-2.74-1.23-4.22-2.06-.75-.4-1.57-.81-2.36-1.28l-2.43-1.5a46.58,46.58,0,0,1-9.58-8.19,34.64,34.64,0,0,1-6.66-11.19,20.22,20.22,0,0,1-.65-12,10.78,10.78,0,0,1,3.29-2l1.07,1.52a11.25,11.25,0,0,0,.23-4.84,13.34,13.34,0,0,0-.62-2.31,19.12,19.12,0,0,0-.92-2.29c1.84-4.74,3.27-7.67,4-12.33,4-.41,5.64-4.62,6.72-9.78S338,225,339.26,221.09c-5.13-1-6.62-4-8.12-5.84s-3.16-2.56-8.66,1.52c1.08-1.15.74,1.91-.12,7.57,0,1.33-.14,2.84.28,3.79a10.06,10.06,0,0,1-.77-.76c-.87,5.55-2,12.73-2.71,20.74a41.82,41.82,0,0,1-3-5.47,20.26,20.26,0,0,1-1.61-5.78c-.39-3.95.7-8.1,4.58-12.16a118.74,118.74,0,0,1-13.25-16.25c8.66-4.26,16.65-11.22,23.88-16.93s13.6-10.3,18.3-10a96.48,96.48,0,0,1,2.11-9.62c.85-3.16,1.83-6.24,2.9-9.17.52-1.5,1.09-2.89,1.64-4.33s1.13-2.79,1.72-4.09,1.17-2.6,1.73-3.91,1.15-2.51,1.73-3.68l6.73-14.19a75.63,75.63,0,0,0,5.77-16.6c2.62-2.79,5.21-2.43,7.43-1.14s4.19,3.48,6,4.4c-3,3.35-7.18,5.09-7.6,8.52a37.32,37.32,0,0,1,9.59-7.36c4-2.32,8.57-4.44,12.74-6.58,8.41-4.22,15.79-8.33,16.37-15.38,5.06.66,7,1.94,7.47,3.32s-.4,2.82-1.08,4-1.19,2.06,0,2.25a13.19,13.19,0,0,0,3.25-.23c.82-.12,1.79-.3,2.95-.54l4-.76-1.46,2.26-1.42,2.25A83.71,83.71,0,0,0,448,114.6a82.72,82.72,0,0,0,15.62-.12c5.11-.46,10.21-1.31,15.44-2.17s10.56-1.67,16.05-2.18a87.78,87.78,0,0,1,16.74,0,54.63,54.63,0,0,1,16.69,4.37,45.16,45.16,0,0,1,14.88,10.59,42.9,42.9,0,0,1,9.88,17.78c-1.25-3.74-2.1-5.58-1.08-7.78,9.22,12.8,16.68,25.07,19.8,37.07a71.42,71.42,0,0,1,2.17,20.1,128.46,128.46,0,0,1-3.09,23.65A166.42,166.42,0,0,1,564,240.15a88.61,88.61,0,0,1-11.24,20.92A48.4,48.4,0,0,1,537,275.2a15.88,15.88,0,0,1-2.22,1.07l-2.23.95c-.77.25-1.54.47-2.29.69a19.09,19.09,0,0,1-2.28.59,36.47,36.47,0,0,1-9.52.62,28.46,28.46,0,0,0-8.58,1.39,17.34,17.34,0,0,0-5.73,3.47c-3.35,2.92-6.11,7-11.62,10.46,0,0-1-2.78-2-5.57s-1.88-5.59-1.88-5.59-4.47,3.22-9.21,6.08c-2.36,1.43-4.8,2.81-6.65,3.76-.93.49-1.71.88-2.27,1.15l-.87.43a20.17,20.17,0,0,1-17.39-4.85,32,32,0,0,1-5.8-6.72,61.11,61.11,0,0,1-4.13-8c-1.25-2.62-2.18-5.49-3.34-8a33.92,33.92,0,0,0-1.65-3.84c-.33-.58-.59-1.23-.89-1.85s-.63-1.22-1-1.79c-.76-1.12-1.42-2.33-2.28-3.45a313.19,313.19,0,0,0-2.86-3.3,22.76,22.76,0,0,0-1.75-1.61c-.62-.53-1.19-1.11-1.87-1.66s-1.4-1.1-2.19-1.66-1.5-1.16-2.36-1.75c0,0-1.41,1.54-2.78,3.2-.71.83-1.3,1.64-1.79,2.28l-.79,1.06c-.52-1.3-1-2.82-1.66-4.41-.32-.8-.69-1.61-1.05-2.45s-.62-1.73-1-2.62-.7-1.78-1-2.69l-.81-2.76c-.26-.92-.58-1.83-.79-2.74l-.49-2.69c-.15-.88-.3-1.74-.41-2.56s0-1.62,0-2.37,0-1.45.11-2.1q0-.49.12-.93a6.75,6.75,0,0,1,.26-.84c.77-2.11,2-3.12,4.2-2.59-.34-.27-1-.64-1.72-1.11a8.66,8.66,0,0,1-2.08-1.74c-1.11-1.35-1.58-3.21.66-5l5.83.7-.74-4.05a15.24,15.24,0,0,1-.23-2l-.19-2.3a24.65,24.65,0,0,1-.15-2.52l0-2.62,0-2.69.28-2.59a43.5,43.5,0,0,1,.63-4.7l.93-4.65a16.8,16.8,0,0,1,5.41-3.84,7.61,7.61,0,0,1,4.38-.25c2.56.64,4.61,2.57,6.78,4.19s4.37,2.93,7.17,3a8.58,8.58,0,0,0,2.15-.25,9.55,9.55,0,0,0,1.14-.36c.39-.15.83-.26,1.26-.44a15.08,15.08,0,0,0,2.72-1.41,25.29,25.29,0,0,0,3.22-2,48.23,48.23,0,0,0,4.22-6.89l.56-1.09a11.32,11.32,0,0,1,.58-1.09c.41-.69.81-1.42,1.22-2.17l1.22-2.3c.43-.71.85-1.43,1.26-2.16,1.63-3,3.28-5.64,4.22-7.94s1.26-4,0-4.74c-2.21.46-5.26.07-8.1-.52a13.56,13.56,0,0,1-4.06-1.72,7.35,7.35,0,0,1-2.87-3l.42-.33c.27-.2.64-.54,1.12-.84l3.57-2.32c.66-.42,1.32-.88,2-1.24l1.77-.93,1.75-.92a129.14,129.14,0,0,1-.29-13.2,38.35,38.35,0,0,0-1.78-12.39,13.47,13.47,0,0,0-1.28-2.79,14.7,14.7,0,0,0-2.07-2.52,19.63,19.63,0,0,0-6.69-4.13c-5.74-2.2-14.4-3.09-26.55-.43,0,0-1.56,1.56-3.79,3.91a109.67,109.67,0,0,0-7.53,8.91c-1.32,1.6-2.47,3.34-3.55,4.94s-2.05,3.08-2.87,4.35-1.42,2.39-1.86,3.14l-.67,1.2s-3.18,0-6.48.22c-1.67.07-3.24.27-4.48.4l-2,.24,2.89-3.08c1.83-1.75,4.3-4.07,6.81-6.36s5.28-4.3,7.29-5.89c1-.81,1.88-1.41,2.5-1.83l1-.67q-1.63.19-3.14.51c-1,.25-1.89.54-2.78.86a26.72,26.72,0,0,0-4.8,2.31,24.06,24.06,0,0,0-2,1.4q-.92.78-1.74,1.61a27,27,0,0,0-2.92,3.53,24.94,24.94,0,0,0-2.24,3.84c-.62,1.35-1.16,2.73-1.65,4.12-1,2.78-1.83,5.53-2.56,8.38-5-.94-10.44.59-15.54,5.2l-.22,1.56c-.12,1-.36,2.36-.48,4.1s-.28,3.7-.39,5.79-.24,4.27-.17,6.52.11,4.42.2,6.44c.05,1,.09,2,.17,2.9l.28,2.62c.37,3.22.68,5.28.68,5.28-3.82.54-5.74-3.76-8-6.19-1.12-1.19-2.35-1.87-4-1s-3.95,3.19-6.44,8.47c.67,4.4,2.26,5.81,4.12,6s4-.75,6-1.37,3.8-.93,5,.39a6.34,6.34,0,0,1,1.3,3.31,54.65,54.65,0,0,1,.45,6.68c-1.32,1.54-2.57,2.85-3.72,4s-2.08,2.15-3,3a35.85,35.85,0,0,0-4.35,4.52,7.83,7.83,0,0,0-1.41,5.51,23.43,23.43,0,0,0,.71,4.28,26.69,26.69,0,0,0,.79,2.69q.54,1.43,1.26,3.07c-2.15,1.36-4,1.17-5.57-.36A10.94,10.94,0,0,1,350.7,225a30.05,30.05,0,0,1-1.53-5.05q.45,1.64.82,3.38l.36,1.76.42,1.77c.56,2.39,1.05,4.86,1.53,7.38.21,1.26.53,2.5.83,3.75l.91,3.74.92,3.7c.35,1.21.76,2.39,1.14,3.55.8,2.33,1.6,4.58,2.51,6.65a49.36,49.36,0,0,0,3.13,5.58,15.27,15.27,0,0,0,7.65,6.58c-.91,4.46.48,9.59,2.68,14.78,1.2,2.54,2.62,5.09,4.09,7.59s3.24,4.78,4.79,7.05c.75,1.15,1.58,2.21,2.35,3.26s1.49,2.07,2.16,3.07,1.26,2,1.78,2.92a25.25,25.25,0,0,1,1.41,2.68c1.49,3.46,1.38,6.61-1.77,9.22a31.13,31.13,0,0,1,3.16.78c1.31.36,2.83.82,4.49,1.37s3.46,1.17,5.35,1.85l6.08,2c4.08,1.45,8.59,2.67,12.69,4.07.52.17,1,.36,1.53.52l1.55.46q1.54.46,3,1c1.95.63,3.72,1.37,5.41,2-4,.82-6.33,1.62-7.3,2.73s-.52,2.41,1,3.92,4.11,3.06,7.36,4.66c.81.4,1.67.8,2.55,1.2l1.35.61,1.36.54c1.85.73,3.77,1.39,5.75,2.06,7.89,2.6,16.2,4.44,21.88,6.72s9,5.28,6.87,10.36c5.23-3.92,11.74-6.25,18.85-8s15.54-2.78,24.75-4.5c4.6-.87,9.4-1.89,14.27-3.24a111.32,111.32,0,0,0,14.67-5.19,80,80,0,0,0,13.81-7.73c1.07-.77,2.12-1.52,3.12-2.33s2-1.66,2.88-2.5,1.83-1.69,2.7-2.55,1.63-1.79,2.39-2.69a20.16,20.16,0,0,1-2.12,4.47,7.9,7.9,0,0,1-4.08,3.42c2.37-1.22,4.61-2.28,6.64-3.27s3.85-2,5.62-2.78,3.36-1.6,4.91-2.3,3-1.35,4.49-2c2.82-1.26,5.47-2.41,8.24-3.72a67.61,67.61,0,0,0,8.28-4.86c-2.3-2.89-2.94-6.69-2.7-10.93a62.76,62.76,0,0,1,.72-6.68l1.31-7.13c1.95-9.69,3.79-19.93,2.46-27.78a23.47,23.47,0,0,1,6.44-2.7,6.46,6.46,0,0,1,4.2.29,6.35,6.35,0,0,1,2.68,2.61,19.1,19.1,0,0,1,1.65,4.16c.45,1.55.85,3.22,1.29,4.85a27.67,27.67,0,0,0,1.5,4.67c1.28,2.83,3.26,4.93,7.05,4.83-2.76-1.06-3.68-4.11-3.87-7.93a46.08,46.08,0,0,1,.08-6.17l.44-6.54c.56-8.63.38-16-5.29-14.49,6.49-5.57,8.37-8.36,10.44-10.11a13.85,13.85,0,0,1,3.76-2.26c1.66-.72,3.94-1.45,7.36-2.67-8.41-3.68-8.24-7.23-7.07-12.12.3-1.21.66-2.5.94-3.91a24.29,24.29,0,0,0,.58-4.47,18,18,0,0,0-2.93-10.5c2.88-5.79,5.14-9.43,7.13-11.72a38,38,0,0,1,4.85-4.39,5.44,5.44,0,0,0,1.44-1.91,7.57,7.57,0,0,0,.52-3.3,29.61,29.61,0,0,0-.75-5.91c-.27-1.28-.6-2.7-1-4.3s-1-3.42-1.7-5.4c.63-4.15,1.75-5.63,3.23-5.35s3.29,2.31,4.87,5a47.6,47.6,0,0,1,2.24,4.28c.68,1.48,1.23,2.92,1.71,4.22C654.87,174.25,655.36,176.14,655.36,176.14ZM258.8,275h-.21c-.43-4.83-.62-8.94-.74-11.56C258,265.88,258.13,269.21,258.8,275Zm8.61,47.43c-1.55-5.82-3.41-13-5-20.61a5.19,5.19,0,0,1,4.88-.9c1.5.56,2.62,2,3.06,4.26-1.46-1-2.08,1.31-2.46,4.88-.17,1.78-.21,3.88-.3,6S267.58,320.47,267.41,322.46Zm66.33-85.69c.27,2.73-.17,4.41-.91,5.49a4.53,4.53,0,0,1-3,1.75c.1-1.25.17-2.61.2-4.15s.08-3.27.1-5.27c-.35-.23-.72-.63-1.13-.87A16.13,16.13,0,0,1,333.75,236.77Z" transform="translate(20.59 28.56)"/><path class="cls-1" d="M322.37,224.34a9.71,9.71,0,0,1-.19-2.47,23.82,23.82,0,0,0-3.05,2.82c.93.93,1.84,1.85,2.76,2.68Z" transform="translate(20.59 28.56)"/><path class="cls-1" d="M729.6,475.1l-.32.15-.33.14a4.66,4.66,0,0,1,2,.08A6.69,6.69,0,0,1,729.6,475.1Z" transform="translate(20.59 28.56)"/><path class="cls-1" d="M696.29,184.34l-2.45,1,.6.61,1.29,1.36,1.87,2-.64-2.47-.45-1.7Z" transform="translate(20.59 28.56)"/><path class="cls-1" d="M815.08,274.09a5.75,5.75,0,0,0,2.74-2.91C817.13,271.29,816.16,272.55,815.08,274.09Z" transform="translate(20.59 28.56)"/><path class="cls-1" d="M817.65,175.94l.47-2.34c.29-1.39.64-3.3,1-5.22s.62-3.88.86-5.35.34-2.48.34-2.48C818.88,167.5,818.08,172.19,817.65,175.94Z" transform="translate(20.59 28.56)"/><path class="cls-1" d="M795.18,90.44a12.48,12.48,0,0,0-4.62,1.33,1.37,1.37,0,0,1,.05.18l2.28-.77Z" transform="translate(20.59 28.56)"/><path class="cls-1" d="M151.3,209.6a14.93,14.93,0,0,0,0-3.2c-.38-3.85-.57-4.5-.59-3.45A43.28,43.28,0,0,0,151.3,209.6Z" transform="translate(20.59 28.56)"/><path class="cls-1" d="M311.76,528.5c-2.19,0-4.39,0-6.59-.14a34.82,34.82,0,0,1-6.53-.82,29.29,29.29,0,0,0,4.08,2.52,13.86,13.86,0,0,0,3.64,1.37C308.6,531.84,310.43,531.14,311.76,528.5Z" transform="translate(20.59 28.56)"/><path class="cls-1" d="M490.48-22.44c-.06,0,0,.09-.09.16,1,.21,1.8.47,2.75.75L491.81-22Z" transform="translate(20.59 28.56)"/><path class="cls-1" d="M283.3,518.51a32.64,32.64,0,0,0,3.59,3.57,29,29,0,0,0,3.85,2.49,32.3,32.3,0,0,0,7.9,3c-2.29-1.66-4.73-3.51-7.31-5.12-1.28-.82-2.63-1.52-4-2.2A22.28,22.28,0,0,0,283.3,518.51Z" transform="translate(20.59 28.56)"/><path class="cls-1" d="M472.6-10.67,469-11.25a2.6,2.6,0,0,1-.5,1.65Z" transform="translate(20.59 28.56)"/><path class="cls-1" d="M468.48-9.59,464.4-8.52C466.25-8.45,467.86-8.47,468.48-9.59Z" transform="translate(20.59 28.56)"/><path class="cls-1" d="M455.83-6.22l8.57-2.29C461.47-8.66,457.85-9.12,455.83-6.22Z" transform="translate(20.59 28.56)"/><path class="cls-1" d="M572.57,2.08l1.62-3.61A6.63,6.63,0,0,0,572.57,2.08Z" transform="translate(20.59 28.56)"/><path class="cls-1" d="M603.27,5.26c-3.57-1.06-7.85-3.68-12.58-6S580.78-5,575.52-4.39l-1.32,2.86c1.37-1.25,3.4-1.14,5.79-.36a57.77,57.77,0,0,1,7.93,3.8C593.51,4.9,599.32,7.79,603.27,5.26Z" transform="translate(20.59 28.56)"/><path class="cls-1" d="M711.43,81.74l-3.05-1.92c-1.87-1.12-4.36-2.61-6.93-4S696.26,73,694.26,72s-3.33-1.68-3.33-1.68c1.33,2.56,2.72,5.6,2.53,7.62s-1.93,3-7,1.82c5.84,5.17,8.28,7.21,9.54,7.4s1.13-1.38,1.17-3.28.19-4.07,2.08-5S704.8,78.22,711.43,81.74Z" transform="translate(20.59 28.56)"/><path class="cls-1" d="M758.16,127.18c-1.79-1.94-3.07-2.62-3.89-2.62s-1.23.7-1.49,1.64c-.46,1.86-.56,4.66-1.64,5.05,1.62.73,2.83,1.41,3.85,1.83a3.8,3.8,0,0,0,2.34.44c.55-.17.91-.71,1-1.71a11.68,11.68,0,0,0,.07-1.9A17.37,17.37,0,0,0,758.16,127.18Z" transform="translate(20.59 28.56)"/><path class="cls-1" d="M572.85,512.74l.48-9.55C563.6,505.33,573.55,506.88,572.85,512.74Z" transform="translate(20.59 28.56)"/><polygon class="cls-1" points="487.94 592.9 498.1 598.87 503.01 590.24 487.94 592.9"/><path class="cls-1" d="M408.62,494.23l2.09-.47,2.09-.48s-1,.13-2.47.3l-5.44.64-5.4.53c-1.48.16-2.45.23-2.45.23s.71,0,1.8-.09l4-.24c1.44-.08,2.88-.18,4-.28Z" transform="translate(20.59 28.56)"/><path class="cls-1" d="M554.32,106.14l2-5.66,1.95-5.69c-3.3-.93-7,1.32-8.47,4S549,104.74,554.32,106.14Z" transform="translate(20.59 28.56)"/><path class="cls-1" d="M708.78,414.26a16,16,0,0,0-4.9,1.92,14.73,14.73,0,0,0-2.12,1.54,14.26,14.26,0,0,0-1.87,1.76,11.35,11.35,0,0,0-2.29,4.28,9.36,9.36,0,0,0,.23,5.15,37.37,37.37,0,0,1,3.44-4c.65-.62,1.24-1.27,1.83-1.92l1.75-1.88a19.81,19.81,0,0,0,2.8-3.6A6.25,6.25,0,0,0,708.78,414.26Z" transform="translate(20.59 28.56)"/><path class="cls-1" d="M556.68,150.56l-3.88-.74c-1-.19-1.94-.33-2.67-.45l-1.21-.19,1.88.86c1.13.52,2.6,1.27,4.09,2s3,1.47,4.09,2.07l1.85,1-2.05-2.28c-.51-.58-1-1.12-1.44-1.54Z" transform="translate(20.59 28.56)"/><path class="cls-1" d="M917.26,178.77c-1.78-2.69-6.85-7.84-6.94-5.83l7.48,9.74Z" transform="translate(20.59 28.56)"/><path class="cls-1" d="M895,168.28a80.33,80.33,0,0,0,16.45,22.32c-6.54-9.91-3-6.52-11-18.15.09-2,4.45,1.28,7.29,4.79-1.73-2.67,3.45.52-1.15-5.69-7.74-5.8-9.64-4.56-6.26,2.89C898.16,172.77,896.41,170.05,895,168.28Z" transform="translate(20.59 28.56)"/><path class="cls-1" d="M774.79,228.41l1.4.93A2.44,2.44,0,0,0,774.79,228.41Z" transform="translate(20.59 28.56)"/><path class="cls-1" d="M696.26,254c.49-.5.31-1.73-.06-2.78A3.45,3.45,0,0,0,696.26,254Z" transform="translate(20.59 28.56)"/><path class="cls-1" d="M678.08,246.52a7.28,7.28,0,0,0,1.08.48C678.46,246.06,677.93,245.59,678.08,246.52Z" transform="translate(20.59 28.56)"/><path class="cls-1" d="M774.79,228.41l-3.63-2.51C772.77,229.56,773.46,228.09,774.79,228.41Z" transform="translate(20.59 28.56)"/><path class="cls-1" d="M899.84,203.17a8.84,8.84,0,0,0-1.1-3.28,7.58,7.58,0,0,1-.08,1.76Z" transform="translate(20.59 28.56)"/><path class="cls-1" d="M800.86,202.86l.54-.35c-.56-1.29-1.29-2.82-2.14-4.53Z" transform="translate(20.59 28.56)"/><path class="cls-1" d="M822.22,186.73c-.75,0,5,8.63,7.38,12.51-2.14-3.72-2.93-5.65-2.95-6.62C825.53,191,824.11,189.1,822.22,186.73Z" transform="translate(20.59 28.56)"/><path class="cls-1" d="M867.87,175l-.31-1.61C867.69,173.83,867.69,174.36,867.87,175Z" transform="translate(20.59 28.56)"/><path class="cls-1" d="M783.28,210.34c-.77-1.34-1.5-2.49-2-3.15A29.85,29.85,0,0,0,783.28,210.34Z" transform="translate(20.59 28.56)"/><path class="cls-1" d="M4,284.91c.4-.62.6-1,.94-1.6C4.23,284.13,3.81,284.73,4,284.91Z" transform="translate(20.59 28.56)"/><path class="cls-1" d="M2.52,222.81l.7-.2c1.17-1.58,2.33-3.14,3.43-4.71Z" transform="translate(20.59 28.56)"/><path class="cls-1" d="M649.47,243a1.12,1.12,0,0,0,.17.15C649.86,241.79,649.58,242.11,649.47,243Z" transform="translate(20.59 28.56)"/><path class="cls-1" d="M430.28,280.52c2.49,9.35-4.63,11.85-.81,22.25C429.19,298.7,433.49,286.63,430.28,280.52Z" transform="translate(20.59 28.56)"/><path class="cls-1" d="M898.37,202.62a2.34,2.34,0,0,1-.86.87C898.15,203.39,898.41,203.12,898.37,202.62Z" transform="translate(20.59 28.56)"/><path class="cls-1" d="M429.47,302.78v.08l.4,1Z" transform="translate(20.59 28.56)"/><path class="cls-1" d="M598.21,265.62a39,39,0,0,0,1.65,4.29A27.11,27.11,0,0,0,598.21,265.62Z" transform="translate(20.59 28.56)"/><path class="cls-1" d="M642.57,267.74l-1.46-1C641.81,267.53,642.24,267.72,642.57,267.74Z" transform="translate(20.59 28.56)"/><path class="cls-1" d="M580.45,284.55c-.71-.67-1.16-2-1.66-.52a11,11,0,0,0,.47,1.2C579.27,283.78,579.51,283.05,580.45,284.55Z" transform="translate(20.59 28.56)"/><path class="cls-1" d="M557.88,288.35c.23.77.47,1.34.71,2,.2-.23.44-.44.64-.65Z" transform="translate(20.59 28.56)"/><path class="cls-1" d="M79.61,315.76a86.64,86.64,0,0,1,2.25-9.14C79.57,313.65,75,314.72,79.61,315.76Z" transform="translate(20.59 28.56)"/><path class="cls-1" d="M896.06,198.71c1.58,2.1,2.25,3.24,2.31,3.92a3.26,3.26,0,0,0,.29-1A18.91,18.91,0,0,0,896.06,198.71Z" transform="translate(20.59 28.56)"/><path class="cls-1" d="M594.89,365.33s-1.13-.15-2.26-.36l-2.25-.39A6.49,6.49,0,0,0,594.89,365.33Z" transform="translate(20.59 28.56)"/><path class="cls-1" d="M260.72,356.19l-1.06,1.13C260,357.6,260.35,357.34,260.72,356.19Z" transform="translate(20.59 28.56)"/><path class="cls-1" d="M578.08,368.25a24.16,24.16,0,0,0-3.47-6.76,19.56,19.56,0,0,0-.08,2.72Z" transform="translate(20.59 28.56)"/><path class="cls-1" d="M81.9,306.51a.62.62,0,0,1,0,.1A.62.62,0,0,0,81.9,306.51Z" transform="translate(20.59 28.56)"/><path class="cls-1" d="M46.56,318.44c3.67,1.95,7.23-11.43,11.22-18.24,5.92-1.64-2,10.1-3.33,17.17,4.28-2.07,11.29-12.68,13.12-11.38-.72,2.14-.63,3.06-2.19,5.47,3.57-4.41,5.76-3.65,8.16-3.19s5,.66,9.16-5.08a22.53,22.53,0,0,1-.8,3.33,179.71,179.71,0,0,1,6.32-17.67c1.69.39,6.05-6.94,3.45,1.63-.88-.62-2.26,2.72-3.73,5.14l3.08-3c-3.06,12.57-3.9,3.27-7.34,12.13,4.9-2.61,12.44-11.12,13.69-6.76-3.78,12-7.44,1.7-7.9,13.48l-2.3-6c-4,19.71-2-2.22-6.67,18.68,4.17,5.47,8.27-3.67,12.42,1.65,3.55-6.15,3.07-9.88,6.6-16,5.8-4.61,4.65,3.36,3.52,10.78s-2.27,14.25,3.2,7.23c4.11-7.47,9.56-22.41,10.89-13.14l-5.69,13.09c4.84,3,9.1-18.47,11.68-7.72-2.6,5.05-5.48,3.27-5.19,5.12.24,11.79,4.89-6.94,7.57-6.14l-3.07,12.22c3.09-.12,6.81-1.85,10.58-3.71s7.58-3.77,10.93-4c-1.31,3.52-3.4,7-3,11.14,4.73-1.92,8.79-.58,12.44,2.54s6.91,7.76,9.92,12.3l5.33-9.91c.64.28.18,5.08-1,7,2.09,4.71,1.66-6.68,4-10.52,1.83-.37.88,6.57-.9,9.53,3.63-3.93,8.38-8,12.57-9.52s7.86-.6,9.51,5.66l-1.68,3c3.5,5.15,8.91-20.92,11-10.27l-1.1,1.76c4.18,3.11,9.26,2.71,13.81,3.6s8.58,3.16,10.92,11.8c1.83-7.64,3.85-5.59,5.91-4.31s4.15,1.78,5.93-9c3.79,11.46,1.75,15.08,8.34,23.27,1.89,1.25,4.68-13.13,7.39-15.09l-1.31,11.33,4.75-11.5L257,360l2.65-2.64c-.85-.77-1.38-5.31-.86-8.55,4.15-4.73,7.88,8.9,7.37,14.7l9.54-8.72c-.64,4.55-2.23,6-3.66,8.76,5.73-11.12-.36,12,4.9,1.85-.31-2.63,1-6.73,1.28-9,1.41,7.07,6.17,7.55,9.93,5l-1.37,7.77c3.1,1.3,6.54.64,10.07-.27s7.18-2,10.72-1.68c-2.27-3.83-.66-17.38,1.48-18.54L309,360.68c1.87-7.34-1.82-4.68,1.57-13.59,2.51,1.57.79,13.79-1,17.61l3.51-3.95c-.06,3.6-.95,5.44-1.47,10,1.83-7.38,4.76,12.47,7.54-.38l-.05,3.59c7.08.53,10.56-3.37,16.33-3.67.7-10.39,2.81-8,5-16.26,4,3.56,8.25,12,13.35,11.31,3.79-5,1.45-8.76,3.33-14.85-.18,9.48,4.9,8.82,2,15.51,6.11-1.29,7.82-1.55,15.75-8.94-.67-3.91-1.53-5.63-.92-8.85,1.44-1.5,3,4.09,2.6,8.63l-.4,1c4.54-6.94,9.2.16,13.68,6.52s8.81,12,12.53,2.27l-.41,1,7.37-10.07c3.19,1.73-2.16,7.06.07,13,8.08-15.59,12,2.62,18.62-7.77,2.14,14,6.56,13.62,11.18,12s9.49-4.67,12.78,4.3l-.34-6.59c1.77-6.43,2.07,3.78,3.36,5.29-.16-5.11-1.86-5.92-.76-9.5a16.94,16.94,0,0,1,11.17-1.74,38.47,38.47,0,0,1,11.49,4.22c3.86,2.05,7.82,4.42,11.78,6.69,2,1.13,4,2.23,5.94,3.21a52.6,52.6,0,0,0,6,2.46c2.89.77,3.35-7.77,4-14.57s1.56-11.83,5.49-4.2l-1.42,12.32c2.7-3.82,5.48-5.79,8.33-6.78a26.9,26.9,0,0,1,8.69-1.06,33.49,33.49,0,0,0,8.7-.75,14.69,14.69,0,0,0,8.08-5.82c-.39,2.87-.06,6.52-1.17,6.59,3.25,8.61,8.91-.44,8.13-7.64,1.84.62,1.11,6.47,2.61,10,3,4.91,4.72-12,7-3.37a5.48,5.48,0,0,1-.69,3.68c1-4.46,7.48.19,4.65-9.78,2.43,2.17,4.33.7,6.1-.54s3.45-2.36,5.6.39c.24-5.83,2.23-4.7,4-4.21s3.22.44,2.22-7.61c2.43,16.57,9.79,12,11,3.8,0,5.15,3.31,4.68,3.57,11.77,3.08-.86,5.31-4.49,3-12.8,4.81,9.23,6.91,4.72,8.69.92s3.35-6.89,7.89,5.22c7.15-10.83,13.7-19,20.33-25,2.21,8,.14,9.07-1.82,10.18s-3.86,2.25-1.37,10.66c3-4.36,4.45-10.34,6.27-15s3.89-8,8.09-7.18c2.56,1.59,1.11,7.24,1.31,10.16,2.68-4.43,6.29-5.21,9.75-6.23s6.68-2.31,8.36-7.71a10.48,10.48,0,0,1,.12,4.74c1.08-.94,3.73,1.31,1.09-5.8l-.54,2.36c-2.8-4.86-3.43-10.72-3.62-16.05s.05-10.15-.81-12.93c5.18,21.24,7.92,3,13.86,30,.33-1.65.14-5.39-1.76-10.1,1.69,1,3.09,3.6,3.81,9.48,3-5.48-1.3-12.49,2.7-13.77,1.25,3.46.94,5.08,2,9.29-.44-7.46-.93-14.91,3.45-13.23.57,2.15,2,4.71,1,5,5.34-3.17,2.93-21.47,11.52-17.32,3.87,15.6,4,4.11,9.2,16.89l1.83-5.11L706,306.26c3-.88,1.91-11.25,6-8l-.1,6.13,4.45-4.51-4.92-3.73c.36-7.76-6.56-16.2-1.36-14.07-.27,1.61,2.93-1,7.35,6.08,0,0,0,0,0,0-.15-4.65-.35-9.53,3-7.16,2.15,3.91,5.06,14.42,6.48,17-2.76-11.31,5.64-5.62,2.95-17.78a56.64,56.64,0,0,0,3.8,11l-2.24-9.2c2.43,2.27,3.16,3.54,5.06,9,4.68,0-7.7-15.8-.15-10.66-.1.85.6,2.09.34,3.72,6.28,1.76,7.08-9.23,13.22-6.76,6.59,12.33-2.6,4.74,3.34,15,2.76-2.48,4.52-7.72,6.48-12.27s4.13-8.43,7.86-8.3l-1.76-.9c-3.49-9.18-1.4-7.45,1.52-4.67s6.69,6.59,6.35,1.67c-.16,1.66,3.46,10.38,2.77,8.29,2.78.48,4.48-1.61,5.93-4.9s2.64-7.76,4.45-12.06l1.41,4.91c4.45,2.87,7.68-.88,11.4-.18-1.48-4.9.39-4.95-3.87-11,5.3,5.35,8.55,6.63,10.65,5.81s3.06-3.65,3.84-6.66,1.45-6.07,3.08-7.36,4.22-.84,9,3.27c-.82.54.2,5,.89,4.61l1.87-3.78,1.8-3.81c-4.9-7-3.47-3.95-8.13-8.9-1.87-4.8-2.29-9.14-.89-10,.38,6.4,7.17,11.71,10.86,15-1.57-2.11-2.7-4.81-4.2-7,11.09,11-8.59-14.91.9-8.78l2.19,3.93c.3-2.92-1.5-8.76.79-8.75,6.07,7.84.92,4.92,5.22,11.82,1-1-.4-5.68-1.16-9.23s-.87-6,2.9-2.55c.56,2.93-.81,3.89-.28,6.82,8.67,8.19,7.35,5.53,10.08,5.93l-.31-.1,6.91,1.65L849.07,233c-5.82-11.65-5.07-13.57-3.55-14.72s3.81-1.5.76-9.68c5.64,15.6,4.76,8,11,17.27,2.79,1.83,6.35,3.58,7.76,6.44-1.73-4.34.07-3.45,1.68-3.06s3,.27.36-6c2.27,2.82,2.15-1.15,7.15,6.41.67-4.06-4.32-4.61-6.81-8.39-1.89-6.29,2.42-4.86,6.66-4.1s8.33.82,5.62-7.8c0-8.92-6.87-19-6.91-26.81a18.52,18.52,0,0,1,5.5,6.78,27.55,27.55,0,0,1,1.77,4.25c5.48,2.36,6.51.29,5.82-4.55,1.62,2.75,3.74,4.44,7,7,1-2.08-7.4-10.94-1.87-8.64,2.25,3.37,6,8.66,7.78,12.41-.22-4.15-2.75-10.86-3-15,4.63,4.31,5.07,8.22,7.06,11.94.35-4.05,2-9.22-4-17.28l-3.71-1.47c.46-1,6,6.08,6.65,8,3.26,7.5-4.95-.28-7.42-2.94l-.16-2.92c-7.64-7.38-8.41-5.6-7.75-1.75s2.7,9.73.92,10.44l-8.78-12.73L884,188.3c-3.17-2.56-9.07-8.83-9.22-11.72-6.79-4.21,1.77,5.65-5.31.5a4.83,4.83,0,0,1-1.63-2.11l1,5.1c-1.68-2.81-7.2-8.15-4.63-7.38-4.5-2-4,1.3-3.54,4.15s1,5.26-3.28,1.21l-.31-1c-.74,3.92.89,6.24,3.3,9.22s5.61,6.62,7.84,13.29l-9.82-10-9.76-10.06,6.44,9.3c-.75.07-2.25.16-4.82-3.56,2.85,7.56,3.32,3.66,6.67,10.28-4.35-3.16-5.29-.95-6.59.34s-3,1.6-8.57-5.44C846,198,848.1,194,849,200.75c-6.12-7.51-6.37-6.31-6.05-3.89s1.21,6.06-2.52,3.25c-5.12-8.6,0-5.84-7.38-11.45,4.27,7.32,2.62,7.35,0,6s-6.36-4-6.36-2.06c7.58,11.09-.91,7.44-1.62,13.3-2.32-3.89-10.14-2.13-15.71-4.41l-1.12-2c6.7,11.85,2.19,11.67,1.35,15.45-4.14-7-5.4-10-6.11-13.83l-2.06,1.33c1.77,4,2.29,6.39,1.71,8.57l-4.69-9c-1.24,1.09-1.13,4.46-1.62,7.15s-1.57,4.67-5.09,2.72c2.22,4.19,6.2,9.52,9.54,14.76s6,10.39,5.45,14.33c-2.66-4.38-7.07-12-7-14.38,0,.78.83,4.41-.94,2.89l-2.58-8.43c-3.56-2.35,2.6,6.79.81,6.87-3.5-6.41-3.54-4-6.13-9.19,0-.81,2.65,2,1.78-.82-2.17-.28-6.09-3.06-9.32-7.62,2.11,3.59,4.68,8.65,4,10.1-2.68,2-5.13-7.22-8.55-9.65,1.66,4.86-2.62,1.14,2.35,10.87-.89.4-3.38-4.05-5-6.51.71,5.08-6.48,4.77.4,14.34l.74.49c0,.24-.06.29,0,.55h0c-.16,6.16-3.61,6.06-7.28,5.26s-7.66-2.38-9.3.91l-1.5-3.34c-1.37,5.21-5.89,5.32-5,13.52-.94.4-4.85-5.18-6.17-9.35-1.31,3.54,0,7.46-5.82,3.36-.05-6.89-3-4.86.66-5.34-4.34-1.59-7.26-6.72-6.79,3.9-2.43-9.12-6.83-9.95-7.25-6.75l4.72,5.3c-1.16,1.95-2.94,1.78-4.73,1.64l-3.81-11.74c-6-5.67-6.45,1.39-7.31,7.22s-2,10.42-9-.3c1.4,8.7,5.74,4.27,7.86,14.25-3.62-.37-13.14-15.63-14.09-15.3-6.56-4.78,2.61,18.27-3.41,15.59,2.12,3.88,6.86,14.62,5.06,19.74-3.64-.35-10.34-15.76-9.67-19.79.6-.63,1.45.54,2,1.94.42-1.86,1-4.12-1.88-8.1l1.18,4.25c-3.12-3.6-7.14-1.56-8.73-8.66-.81,4.79,1.59,7.1,4.11,8.57-6.18-4.44-6.19,2.17-11.71-.3,1.5,2,3.92,6.61,3.27,6.81-7.81-2.84.38,8.77-2.94,12.08-4.63-5.41-4.85-15.25-6.85-8.5-4-3.33-4.61-10.71-4.92-14.42-.64,9.29-8.67-2.69-11.23-3.4l.64-4c-.39,2.39-1.33,2.67-2.27,3L659,246.4c-1.64-1-2.58-.71-3.82-4.15.85,5.82,5.93,13.39,6.36,21.61-3-3.64-2.91,6.16-7.38-4.62,6,2-4.5-10.81-1.23-14-.28,1.58-1.22,1.87-2.84.81a5.58,5.58,0,0,1-.6-3.06c-7.89-8.24,2.46,13.14-2.22,14.51-1.62-6.39-5.2-11.37-5.47-9.79,1.86-.51,4.53,10,4.48,15.37-4.62-3.8-2,4.7-3.7,4.67l2.55,1.67c1.54,6.4-.23,6.12-1.65,8.78-1.82-4.78.76-4-.71-5.85.71,5.86-1.57,3.46-4.07.66s-5.23-6-5.61-1.83c-2.84-3.75-4-11.69-6.15-14.15-.9,9.24-6.45-7.39-8,.45,3.62,8.12,3.22,6,3.12,15l2.14-3.9,2.11-3.91,0,6.73-.07,6.75c1.92-.47,2.28-6.53,3.84-5.45.3,7.45-.19,5.31,2.93,12-3.3-5.9-4-3.67-4.58-.9s-1.14,6.06-3.93,2.24l-6.19-21c-3.55-4-4.62-.8-5.79,3s-2.41,8.14-6,6.26l2.81,3.18c1.49,8.61-3.22,2.11-4.18,6-1.64-7.13-3.45-9.38-5.32-13.61,1.4,5.24-4.18.47-1.33,14.79l-4.75-8.77c-2.71-1.39-2.85,4-3,9.55s-.36,11.25-2.93,10.5c-.23-8.06-3.31-12.71-1.49-18.88-1.5.23-3.09-.81-2.1,4.16-.89-2.15-1.43.47-2.11,2.81s-1.51,4.43-2.85,1.16c0,3.29,1.16,10.83-.7,10.54a20.1,20.1,0,0,1-.64-3.55c.65,3.54-1.86,5.3,1.11,13-4.46-10.79-7.64-9.82-10.78-8.44s-6.22,3-9.66-6.42c-3,3-6.8,5.77-9.84,6.67-.06-2.19-.43-3.62.25-2.93-5-6.24-.19,21.17-6,14.19-3.77-11.49,1.93-6.62-.12-10.9-1.65-11.91-3-11-4.55-8.73s-3.36,5.74-5.63-1.09l.65-1.48c-1.61-3.95-2.88-1.53-4.32,1.7s-3.06,7.22-5.17,6.52a21.53,21.53,0,0,0-.26-3.62,33.72,33.72,0,0,1-4.66,13.57,35,35,0,0,1-6.18,6.92c.7-9.46,1.53-5.07.2-14.57-1.71,1.45,1.46,15.29-2,18.17-1.48-5.07-4.31-9.42-5.15-19.58l3.31-.74c-2.41-13.09-4.27.72-6.17-1.52l0-5.77c-5,2.07-4.5,16.6-10.14,15.78l.72,4.35c-2.63,14.5-2.82-8-5.57,2.76l-1.31-14.58c-1.9,3.55-6.73,14.33-10.38,17.08,1.93-10.83,6-16.48,8.47-23-2-.06-6.67,1.25-7.61,8.45.78-1.42,1.74-5,2.56-2.77-2.23,11.52-5.45,17.19-9.49,17,.23-14.17-2.37-15.9-5.41-16.89s-6.56-1.21-7.95-12.2c-3.51,5.25-7,4.07-10.62,1.81s-7.32-5.62-11.44-4.87c2.5,22.09-2.41.58-2.36,23.21-2,1.41-2.7,1-2.84-.45l-5.55-13.65c-1.22-6.62,2-4.94,1.9-10-4.17-1.85-1.53-9.63-4.15-15.71.36,8.1-1.76,11.55-4.07,8.4l3.1,10.52c-6.24,11.88-4.54-19.11-10.84-7.37L412,268c-3.18,4.1-11.24-.49-14.87,17.57-.46-2.63-1-8.84.44-10.42-7.22-3-17,18.74-22.27,7.34l.77-5.5c-1.42,1.54-2.79,10.29-4.27,4.65.18-2.28.78-5.49.16-5.84-.79,1.87-4,9.53-5.69,6.23l1.81-6.15c-6.77-7.52-11.55,14.64-17.76,18.15.82-16.25-4.44-21.85-7-24.63l.22-2.3c-4-1.22-7.68,1.94-11.34,6.14s-7.36,9.48-11.37,12.39c-1.75-9-5.58-11.1-9.83-12.3s-8.91-1.49-12.2-6.76c.88,3.06-1.27,12.63-2.76,14.14-1.46-3.44-5.9,10.81-4.26-4l.6.34c0-14.72-3.92-11.12-6.66-11.83l-2.38,19.4c-2.29-14.54-7.31-12.37-12-9.93s-9.12,5.34-9.55-7.54c-2.34,4.63-4.51,4.29-6.87,8.91l1.43-10.38a21.42,21.42,0,0,0-5.81-3.45c-1.89-.62-4-.63-7.14.19l2.27-7.24c-3.18-1.15-8.58,29.31-11.86,29.42l1.42-15.61c-2.95-.34-5.36-4.14-8-6.21s-5.51-2.49-9.62,4c.49-2.24,1.45-6.66,2.49-7.12-1.32-.44-3.48-3.5-5.64-3.8s-4.36,2.12-5.87,12.76c2.53-13.75-5.67-2.47-10.09,2.93l2.53-10c-5.24,12.36-6.08,15.87-10.58,18.63-.61-1.49.95-8.23,1.57-5.4-1.8-5.9-4.36,9.06-6.78,2.93l2.75-6.15c-2.84-1.42-3.35,2-6.72,9.16-2.85,3.59-5.21-3.88-3.47-13C176,273,172.52,280,171.36,277a17.23,17.23,0,0,1,2.33-6.4c-1.66-4-4.22-1.6-6.53.5s-4.36,3.87-4.81-1.46a26.25,26.25,0,0,0,1-6.1c3.88,1.24,6.92,2.59,6.44,3.25,2.29-9.22-.39-11.63,5.3-23.73-2.1,3.16-5.19,8.24-8,11.88s-5.42,5.81-6.36,3.23c.09-.93.19-1.84.46-3.29l.59-.94c-.45-1.11-1.31-.43-2.32,1-.56-1.77-.86-3.06-1.75-3.45,1.77-7.68-2.39-5-3.81-5.88-2.76,10-4.34,7.82-4.83,16.64,0-.79.64-1.1,1.81-1.22a2.35,2.35,0,0,0,1-.85l-.36.85a25.45,25.45,0,0,1,4.11.41c-2.66,4.75-5.21,8.65-5.38,2.62-2.66,6.2-5.48,12.52-6.9,15.46,1.83-14.6,0-23.33,2.06-32.05-3.21,2.11-6.24,2.14-9.6,3.85s-7.07,5.13-11.71,13.89c-2.19,1.94.23-5.85.72-8.92,1.4-1.58,2.23-1,3.55-3.51-4.29,3.85-8.51-.91-13.75,11.72-1.35-7,6.13-11.16.72-10.7l2-3.71c-.42-5.9-2.19-7.22-4.76-6.24s-5.89,4.15-9.25,7.12-6.68,5.65-9.18,5.77-4.13-2.42-3.88-9.89a11.51,11.51,0,0,1-.69,4.9c-1.67-4-4.14-6.08-7.1-7.14a22.71,22.71,0,0,0-4.69-1.07c-1.61-.26-3.27-.44-4.91-.66-3.27-.48-6.52-1.07-9-3.14s-4.25-5.41-4.64-11.1c-1.16-5-5.52,2.43-10.57,7.25l4.69-10.17-4.66,4.79L44,235.21c-2.28,1.44-3.1.39-3.22-1.8a55.88,55.88,0,0,1,.92-8.65c.86-6.23,1.24-11.52-6.13-5.51l-3.19,6.86c-1.26-2.37-8.63-.18-3.69-7.28-.93,1-4.83,6.21-3.5,2.4l3.08-5L23.14,219l-3.55,1.83-1.61.81c-.69-3,2.68-7.75,5.62-12.3s5.46-8.92,3.25-11.11c-1.57.29-5.33,2.88-8.93,5.83s-7,6.26-7.78,8.12c.64.78,0,4.39-3.3,9.24l-3.62,1.22c-5.13,6.93-10.61,13.74-15.08,20.46s-7.89,13.36-8.72,20.08l4.78-3.12,4.73-3.15-3.52,7.71L-17.92,263c-2.7,7.68,2.33,2.68,6.17-.48-2.18,3.89-3.39,6.83-3.58,8.7l6.3-5.69,6.25-5.77c-3.21,5.94-8.89,10.19-8.47,14.87,5.81-5.37,6.59-13.71,12-16.2C-1.71,266-5.59,271.15,0,266.77c-2.07,3.94-4,6.06-5.86,7.19,4.67-3.35,6.06,1.19,11.78-6.07-3.16,9.36,7.46,1.49-1,15.43,2.59-3,9.74-9.12,11.74-8.73-6.39,7.55-5,8.78-3.26,10.23S17,288.05,11.52,297c5.46-7,8.51-7.57,11.33-7.13s5.45,1.75,9.76-1.49c-.87,1.12-2.63,3.39-2.58,2.4,1.69,2.51,0,7.58,0,11.33,6.85-12.8,12-13.84,17.84-21a34.55,34.55,0,0,1-6.43,14c-2.52,3.44-5.3,6.67-7.78,12.93,5-10.62,10.28-8.1,13.49-17.41-1.5,8.87.1,4.7-3.85,16.13,8.09-16.23,3.43-1.78,10-11-.47,9.6-6.19,15.84-.3,12.43a13.7,13.7,0,0,1-3.4,7.31A19.8,19.8,0,0,1,46.56,318.44Zm98.29,1.67-.05.2-1.95.07C143.26,320.35,143.84,320.29,144.86,320.11Zm7.36,1.76a7.21,7.21,0,0,0-3.08-1.2c.65-3.53,1.87-7,2.55-6.68C150.69,316.22,151.88,318.66,152.22,321.87Zm4.22-73.5c1.42-1.13,1.21.93.78,3a5.69,5.69,0,0,0-2.14.7l-.47,1.19C155.25,251.39,155.87,249.64,156.44,248.37Z" transform="translate(20.59 28.56)"/><path class="cls-1" d="M150.83,261c-.22.18-.42.58-.64.61,0,1-.05,1.75,0,2.42l1.27-3C151.23,261,151,260.95,150.83,261Z" transform="translate(20.59 28.56)"/><path class="cls-1" d="M776.43,229.48l-.24-.15a7.65,7.65,0,0,1,.93,1.19C776.81,230.12,776.67,229.82,776.43,229.48Z" transform="translate(20.59 28.56)"/><polygon class="cls-1" points="272.33 388.88 272.64 386.27 271.7 388.47 272.33 388.88"/><path class="cls-1" d="M828.82,241.23a9.84,9.84,0,0,0,1.87,2A13.23,13.23,0,0,0,828.82,241.23Z" transform="translate(20.59 28.56)"/><path class="cls-1" d="M845.26,233.4l4.19,1.62A13.53,13.53,0,0,0,845.26,233.4Z" transform="translate(20.59 28.56)"/><path class="cls-1" d="M859.65,229.69c-.91-1.59-1.67-2.73-2.36-3.78l-.06,0Z" transform="translate(20.59 28.56)"/><path class="cls-1" d="M666,333.26a1,1,0,0,0-.36.62C665.13,336.2,665.69,335.16,666,333.26Z" transform="translate(20.59 28.56)"/><path class="cls-1" d="M717.44,288.23a31.11,31.11,0,0,1-.13,5.31C718.64,293.89,719.53,293.77,717.44,288.23Z" transform="translate(20.59 28.56)"/><path class="cls-1" d="M595.39,365.42l0-.18a2.11,2.11,0,0,1-.47.1Z" transform="translate(20.59 28.56)"/><path class="cls-1" d="M714.51,294.43c1.79,1.54,2.51.78,2.8-.88C716.2,293.23,714.8,292.62,714.51,294.43Z" transform="translate(20.59 28.56)"/><path class="cls-1" d="M909.87,195.85l.78-.12a12.43,12.43,0,0,1-1-1.31Z" transform="translate(20.59 28.56)"/><path class="cls-1" d="M909.62,194.42l-.26-1.41C909.11,193.23,908.94,193.48,909.62,194.42Z" transform="translate(20.59 28.56)"/><path class="cls-1" d="M908.79,190l.57,3C909.78,192.67,910.49,192.47,908.79,190Z" transform="translate(20.59 28.56)"/><path class="cls-1" d="M892.77,204.06l2.24,3A30.7,30.7,0,0,0,892.77,204.06Z" transform="translate(20.59 28.56)"/><path class="cls-1" d="M889.16,208.45c1.56-.17,7.68,4.09,7.63,1.08L895,207.1C897.89,212,886.1,202.72,889.16,208.45Z" transform="translate(20.59 28.56)"/><path class="cls-1" d="M842.77,185.53l5.27-.21c-3-2.73-7.08-6.45-6.12-8.38C830.39,170.62,848.25,183.42,842.77,185.53Z" transform="translate(20.59 28.56)"/><path class="cls-1" d="M828.59,188.65c.78-2.84-3.4-4.74-4.61-6.67C824.93,185.8,825.17,186.77,828.59,188.65Z" transform="translate(20.59 28.56)"/><path class="cls-1" d="M745.51,234.52,742,225.73C740.9,227.67,743.42,229.11,745.51,234.52Z" transform="translate(20.59 28.56)"/><polygon class="cls-1" points="767.16 315.59 771.07 320.36 768.63 311.99 767.16 315.59"/><polygon class="cls-1" points="731.82 257.08 732.05 255.54 730.5 259.84 731.82 257.08"/><path class="cls-1" d="M560.56,278.66l2.25,11.45C563.67,287.87,561.91,274.89,560.56,278.66Z" transform="translate(20.59 28.56)"/><path class="cls-1" d="M493.13,296.39c-1-5.78-3-9.48-4.07-3.73C490.65,293.43,492.38,297.92,493.13,296.39Z" transform="translate(20.59 28.56)"/><polygon class="cls-1" points="301.83 298.09 303.61 294.35 300.67 297.31 301.83 298.09"/></svg>