<svg id="Layer_1" data-name="Layer 1" xmlns="http://www.w3.org/2000/svg" viewBox="0 0 922.67 593.12"><defs><style>.cls-1{fill:#2085bb;}.cls-2{opacity:0.39;}</style></defs><title>Untitled-6</title><path class="cls-1" d="M674.11,56.75a5.78,5.78,0,0,0-3.27,4.72,4.53,4.53,0,0,0,.86,3.06A7.06,7.06,0,0,0,675.17,67s2.5-1.79,5.07-3.53S685.43,60,685.43,60l-5.69-1.65Z" transform="translate(-17.87 30.58)"/><path class="cls-1" d="M699.3,100.65a53.53,53.53,0,0,0,7.5.5c1.31,0,2.65-.08,4-.21a28.49,28.49,0,0,0,3.81-.57c5-1.12,9.38-3.7,11.2-9.29a42.32,42.32,0,0,1-12.92-.4c-3.16-.46-6.52-.89-14,1.27a10.82,10.82,0,0,1-3.49-3.08,9.86,9.86,0,0,1-1-1.82,9.26,9.26,0,0,1-.65-1.82c-.58-2.43,0-4.84,1.74-6.12-1.87.39-3.63-1.73-5.86-3.55s-5.1-3.07-8.57-1.16a26.58,26.58,0,0,0,3,8,20.8,20.8,0,0,0,4.87,6.11,28.74,28.74,0,0,0,3.23,2.31,25.43,25.43,0,0,0,3.68,2,48.69,48.69,0,0,0,9,2.67C704.85,99,701.1,99.49,699.3,100.65Z" transform="translate(-17.87 30.58)"/><path class="cls-1" d="M528,522.53l4,1.33A9.24,9.24,0,0,0,528,522.53Z" transform="translate(-17.87 30.58)"/><path class="cls-1" d="M197.85,420.75c1,2.22,2.33,2.82,3.33,2.6C199.85,421.51,198.63,420,197.85,420.75Z" transform="translate(-17.87 30.58)"/><path class="cls-1" d="M205.85,363.3c-.44,1.27-.67,2.34-1,3.5C206,365.5,206.64,364.19,205.85,363.3Z" transform="translate(-17.87 30.58)"/><path class="cls-1" d="M528,522.53,517.58,519C516.85,522.68,522.89,521.72,528,522.53Z" transform="translate(-17.87 30.58)"/><path class="cls-1" d="M774.49,159.93a15.89,15.89,0,0,0-5.34-4.41c1.27,1.58,2.46,3.14,3.57,4.81A15.45,15.45,0,0,1,774.49,159.93Z" transform="translate(-17.87 30.58)"/><path class="cls-1" d="M683.95,491.3l2.27-1.33a25,25,0,0,0-.49-5s-.09.4-.25,1l-.6,2.16Z" transform="translate(-17.87 30.58)"/><path class="cls-1" d="M739.77,401.25c-.92,2.57,8.2,5.49,12,7.47-3.46-2.4-4.9-4.81-5.15-7.35A20.55,20.55,0,0,0,739.77,401.25Z" transform="translate(-17.87 30.58)"/><path class="cls-1" d="M749.79,202.64l-2.36-3C748.1,200.42,748.95,201.79,749.79,202.64Z" transform="translate(-17.87 30.58)"/><path class="cls-1" d="M603.49,509.88a9.39,9.39,0,0,0-1.36-3.33A6.4,6.4,0,0,0,603.49,509.88Z" transform="translate(-17.87 30.58)"/><path class="cls-1" d="M244.21,173.09a9.49,9.49,0,0,0,1.64.44C245.22,172.24,244.66,171.73,244.21,173.09Z" transform="translate(-17.87 30.58)"/><path class="cls-1" d="M403.51,108.8l-2.11.33a42.71,42.71,0,0,0-.94,5.29l1.49-2.82Z" transform="translate(-17.87 30.58)"/><path class="cls-1" d="M239.82,254.58a3.63,3.63,0,0,0-.32.45C239.71,258.3,240,256.57,239.82,254.58Z" transform="translate(-17.87 30.58)"/><path class="cls-1" d="M621.86,447.1c3,1.18,3.85,2.65,3.68,4.45s-1.49,3.72-2.69,5.68-2.35,3.85-2,5.52,2.13,3.2,6.88,4c-.69-.75-.44-2.32,0-4.25a48.4,48.4,0,0,0,1.34-6.5C629.56,451.52,628.35,447.54,621.86,447.1Z" transform="translate(-17.87 30.58)"/><path class="cls-1" d="M775,163.89a46.85,46.85,0,0,1,2.45,5.47A15.37,15.37,0,0,0,775,163.89Z" transform="translate(-17.87 30.58)"/><path class="cls-1" d="M627.7,466.74l0,.07,2,.26Z" transform="translate(-17.87 30.58)"/><path class="cls-1" d="M355.26,67.4a11.37,11.37,0,0,0-3.32-3.6C352.22,64.74,353,65.81,355.26,67.4Z" transform="translate(-17.87 30.58)"/><path class="cls-1" d="M241.76,181.57l2.77-4.36A14.36,14.36,0,0,0,241.76,181.57Z" transform="translate(-17.87 30.58)"/><path class="cls-1" d="M455.87,45c2.77.7,3.72,2,7.46.67a4.92,4.92,0,0,0-1.15-1.16C460.83,45.85,459,46.49,455.87,45Z" transform="translate(-17.87 30.58)"/><path class="cls-1" d="M563.13,51.51a18.84,18.84,0,0,0-1.55-2.25c-1,0-2.28,0-3.37,0l2.48,1.11Z" transform="translate(-17.87 30.58)"/><path class="cls-1" d="M492.79,448.29a26.44,26.44,0,0,1-4.22-9.29C489.42,446,471.51,445.73,492.79,448.29Z" transform="translate(-17.87 30.58)"/><path class="cls-1" d="M769.64,162.24c2.5-.36,4,.11,5.31,1.65-.71-1.26-1.47-2.44-2.23-3.57C771.28,160.6,770,161.1,769.64,162.24Z" transform="translate(-17.87 30.58)"/><path class="cls-1" d="M459.41-30.44l9.36.63,6.45.45,3,.24a77.26,77.26,0,0,0-8.86-1C466.12-30.37,462.71-30.5,459.41-30.44Z" transform="translate(-17.87 30.58)"/><path class="cls-1" d="M297.85,43.2l3.48-3.86A6.58,6.58,0,0,0,297.85,43.2Z" transform="translate(-17.87 30.58)"/><path class="cls-1" d="M535.45-28.09a30,30,0,0,0,10.38,7.65,8.68,8.68,0,0,0,2.56-2.17l-2-.9c-1.22-.55-2.83-1.24-4.44-1.9Z" transform="translate(-17.87 30.58)"/><path class="cls-1" d="M488.54,438.89a.14.14,0,0,1,0,.1A.14.14,0,0,0,488.54,438.89Z" transform="translate(-17.87 30.58)"/><path class="cls-1" d="M352.46,416.3c4.71,3,8,4.14,10.45,4.14a6.16,6.16,0,0,0,5.09-2.93c2.3-3.31,3.31-8.4,7-10.5a59.8,59.8,0,0,1,6.81,3,14.6,14.6,0,0,1,3.81,2.61,5.22,5.22,0,0,1,1.48,5.24c-.77,3.57-4,7.44-1.41,12.09a44.45,44.45,0,0,0,11.58.93A100.1,100.1,0,0,0,408,429.8c3.42-.51,6.64-.89,9.63-1a20.53,20.53,0,0,1,8.26,1c.15,2.21,2,3.51-1.16,5.31,8.8-2.58,19.48.23,30.58,2.19s22.44,3.14,31.54-1.78a7.28,7.28,0,0,1,1.66,3.41,34.68,34.68,0,0,1,.14-17.42c7.84,1,15.45-5.8,17.32,2.72-4.74-.86-5.58,2.39-8.18,4.6l4.35-1.21,4.33-1.23c6,12.66-11.76,2.6-13,11.18,8.42-.72,17.63-3,26.15-4.66s16.39-2.6,22.46-.55c.93,5.85-6.44,6.34-12.06,6.67s-9.51.59-1.57,6.49l-3-1c-1.79-.59-4.18-1.34-6.55-2.16-4.75-1.59-9.45-3.27-9.45-3.27,3.17,5,4.08,7.27,3.76,8.28s-1.83.72-3.39.46c-3.09-.52-6.45-.92-.62,9.58,12.93,3.15,20.47,2.24,27.89,1.33s14.79-2,27.82.14c3-3.11,2.59-5.52,2.18-7.89s-.82-4.77,2.13-7.91c9.13-2.67,15.38-2.35,20.2-.43s8.17,5.34,11.28,8.63,5.86,6.51,9.92,7.78,9.46.7,17.81-4.3c4.07-4.48,6.28-10.52,10.45-15.3a25.23,25.23,0,0,1,8.43-6.32c3.73-1.81,8.76-3.39,15.43-5.18a80.25,80.25,0,0,1-.87,8c-.3,2-.72,4.07-1.08,5.6l-.62,2.56a46,46,0,0,0,10.91-6.47,37.38,37.38,0,0,0,3.35-3.17,29,29,0,0,0,2.32-3c2.5-3.87,3.05-7.15,3.67-10.22a22.1,22.1,0,0,1,3.44-9.12c2.17-3.2,5.91-6.71,12.25-11.5.46,3.7-2.41,9.09-5.3,13.2s-5.53,6.89-3.15,5.65c5.86-2.24,8.93-4.62,10.54-6.85a8.18,8.18,0,0,0,1.4-3.3,11.11,11.11,0,0,0,0-3.25c-.29-2.18-1-4.39-1.1-6.81a12.2,12.2,0,0,1,.41-3.8,13.86,13.86,0,0,1,2-4.28l5.69,1.88,5.74,1.8a125.63,125.63,0,0,0,9.62-22.3c1.35-3.88,2.33-7.91,3.39-11.9.47-2,.89-4,1.32-6.07l.63-3,.51-3.07c2.83-16.35,3.5-32.85,4-48.89,1.66,1,3.16,3.06,4.86,3.93s3.56.58,5.7-3.16c-.84-21.36-1.46-43.24-3.43-65.3s-5.37-44.14-11-64.53l-.67-.44-1.8-1.14-5.44-3.37c-1.94-1.21-4-2.34-5.49-3.19l-2.5-1.39a5.35,5.35,0,0,1,.22-4.9c.82-1.3,2.29-1.91,4.12-.65-2.35-7.93-3.85-7.32-5.61-5.29s-3.91,5.34-7.45,3.12c-2.6-3.56-2.93-6.77-1.94-8.76s3.33-2.7,6.13-1l-2.11-1.87-2.25-1.92-4.69-4.09c-3.26-2.68-6.57-5.6-10.13-8.5-7-5.87-14.48-12-21.87-18.1s-14.6-12.16-21-18.22S633.42,78.7,629.35,72.43c0,0,1.55.17,3.07.4l3.07.44a26.55,26.55,0,0,0-2.86-2.68,21.3,21.3,0,0,0-2.93-1.91,19.78,19.78,0,0,0-5.86-2.08,41,41,0,0,0-11.35,0c-3.66.34-7.1.57-10.42-.29a14.16,14.16,0,0,1-4.84-2.37,20.91,20.91,0,0,1-4.72-5l4.11.27A174.73,174.73,0,0,0,566,42.67c-10.73-4.6-21.72-8.4-32.42-11.87-21.45-7-41.55-12.67-57.93-22.59-4.35,6.59-15.16,3.54-26.1,1.87s-21.75-1.94-23.15,8.12c-3.26-1.27-6-2.32-8.49-3.3l-6.41-2.68c-3.77-1.62-6.67-3-10-4.17a54.81,54.81,0,0,0-5.43-1.64c-2-.46-4.32-.87-7.06-1.22s-5.94-.5-9.76-.64c-1.91-.06-4,0-6.24.08l-3.52.13c-1.22.07-2.5.19-3.82.3-5.57.85-8.82,5.14-12,9.75-3.17,4.76-6.27,9.83-12,13.32l-4.28-9.58s-.85,1.06-2.06,2.7-2.77,3.89-4.29,6.1-2.94,4.45-4,6.15l-1.7,2.81-2.25-1c-1.36-.63-3.17-1.42-5-2.17-3.64-1.52-7.42-2.94-7.42-2.94l-1.55,1.39c-.92.84-2.09,2-3.28,3.16l-3.22,3.17c-.88.86-1.43,1.46-1.43,1.46A15,15,0,0,1,309,37.89c2.43.19,4.37,1.07,4.84,2.55a40.2,40.2,0,0,1-5.79,5,71.31,71.31,0,0,1-6.61,4.28c-2.34,1.27-4.64,2.57-7,3.67-1.18.56-2.38,1.09-3.57,1.58s-2.31,1-3.46,1.48c-2.27.93-4.56,1.68-6.61,2.37a52.06,52.06,0,0,1-5.72,1.57c-3.47.7-6,.78-7-.1l-4.21,6.14-4,6.4c-1.49,2.32-2.88,4.89-4.34,7.4s-2.78,5.09-4,7.47c-.62,1.2-1.24,2.34-1.78,3.45l-1.5,3.12-2.22,4.66-.79,1.79A5,5,0,0,1,244,97.61a15.11,15.11,0,0,1,.47-4.06c.67-3,1.89-6.33,2.79-9.54-.44,1.62-.87,3-1.27,4.23s-.75,2.25-1.12,3.12a9.73,9.73,0,0,1-2.18,3.46c-1.45,1.29-2.85.89-4.27.4s-2.82-1-4.18.07-2.77,3.83-3.72,9.91c3.62-1.22,4.37,4.75,5.91,6.27-2.85,1.41-5.65,3.92-8.55,7.07a61,61,0,0,0-4.13,5.23c-.67.95-1.35,1.92-2,2.93s-1.26,2.05-1.88,3.12a104.24,104.24,0,0,0-10.94,27.29l-2.68-3-2.66-3c-7.28,14.89-12,31.5-15.47,48.36-1.77,8.44-3.19,17-4.61,25.47s-2.68,17-4.21,25.46c2.73-5.84,7.08-7.38,10.64-6.3s6.35,4.79,6.11,9.75l-5.79,1.06-5.8,1.12c2.86,3.87,4.31,1.31,5.82-.24s3-2.22,6.14,5c-1.6,6.29-4.94,8.24-8.32,7.43a9.88,9.88,0,0,1-4.76-3,14.19,14.19,0,0,1-3.14-5.54s.33,4.24.78,8.63,1,8.89,1,8.89c-3.38.79-4.78-3.56-8.84-5.07,3.07,4-.44,11.53-2.52,20.84a42.8,42.8,0,0,0-1.19,14.23,24.08,24.08,0,0,0,.62,3.35,19.19,19.19,0,0,0,1.15,3.11,13,13,0,0,0,4.06,4.93l-3,1.8c.56,3,1.09,5.87,1.87,8.54s1.44,5.31,2.23,7.79a135.87,135.87,0,0,0,5.27,13.41c.94,2,1.84,4,2.8,5.88s2,3.6,2.93,5.33l1.45,2.57,1.5,2.4,3,4.66c1,1.57,2,2.92,3,4.37l3.07,4.24c2.09,2.69,4.18,5.39,6.33,8.07,4.32,5.25,8.82,10.64,13.76,16.29,7.72-5.59,13.55,4.52,24.84,5.32,1.44,2.1,2.85,4.27,4.26,6.5s2.79,4.42,4.19,6.7l4.2,6.8c1.39,2.25,2.82,4.53,4.32,6.84,6,9.2,13.11,18.77,22.91,27.15,8.33,4.31,10.74,3.59,12.17,2s2-4,6.93-3.6c-2.33,3.75,1.66,9.61,4.74,14,1.52,2.21,2.77,4.07,2.7,5.17s-1.53,1.49-5.29.59c3.38,2.33,6.56,4.43,9.59,6.19s5.81,3.45,8.48,5l2,1.14c.66.35,1.34.67,2,1l3.92,1.9c2.6,1.23,5.17,2.41,7.81,3.57s5.46,2,8.4,3.06l4.56,1.52,2.4.77c.82.24,1.67.44,2.52.66,3.43.88,7.14,1.78,11.21,2.72l1.54.35,1.59.28,3.29.57,7.06,1.18c-2.89-4.8-6.74-7.83-3.44-9.8a16.69,16.69,0,0,1,9.23,5.14c2.33,2.39,3.56,5.17,2.47,7l-2.06.33a91.69,91.69,0,0,1,17,2c2.81.58,5.62,1.31,8.43,2.16s5.62,1.6,8.44,2.56c5.65,2,11.31,4,17,6.23,2.86,1.16,5.7,2.18,8.55,3.26l8.56,3.25c22.71,8.24,45.21,14,61.71,5l-1.85.9,5.32-1.47c3.19-.89,7.44-2,11.61-3.32s8.36-2.48,11.48-3.45l5.19-1.62c7.8.48,5.54,2.19,2.76,4.41s-6.08,4.93-.18,7.44c18.23-7.88,33.21-8.54,48.07-9.55,1.85-.1,3.7-.25,5.56-.42s3.7-.32,5.56-.54A100.39,100.39,0,0,0,622.48,529a70.82,70.82,0,0,0,11.31-3.64c1.89-.8,3.79-1.75,5.67-2.76.94-.52,1.88-1,2.82-1.62s1.87-1.22,2.8-1.87a27.59,27.59,0,0,0,6.74,2,38.19,38.19,0,0,0,7.37.37,53.36,53.36,0,0,0,16-3.74c10.93-4.27,21.33-11.6,30.47-19.25s17.27-15.63,25.07-21.72S747.46,465.1,757,461.88l-2.82-1.53-2.8-1.55c1.44-5.29,4.07-6.64,7.2-7.21,1.56-.26,3.24-.4,4.92-.7a15.08,15.08,0,0,0,2.51-.67,10.58,10.58,0,0,0,2.43-1.35c-4.22-2.26-11.49,4-9.55-2.63a226.26,226.26,0,0,0,19.45-27A183.49,183.49,0,0,0,793,388.28c1.95-5.18,3.52-10.28,5.06-15.37s2.81-10.1,4-15c2.39-9.91,4.21-19.47,5.91-28.74a540.9,540.9,0,0,0,7.55-56.41c.77-9.61,1.06-19.33,1-29.08-.08-4.89-.16-9.77-.48-14.67s-.71-9.8-1.2-14.7c-1.86-14.36-10.66-16.67-17.76-19.9-3.63-1.62-6.93-3.49-9-7.26a20.75,20.75,0,0,1-2.26-7.3,44.93,44.93,0,0,1-.34-5.17c-.05-1.91,0-4,.15-6.42,0,0,3.45,1.46,6.93,3,1.75.77,3.47,1.57,4.74,2.18l2.14,1c-14.9-25.8-27-52.5-43.17-77.58a213.23,213.23,0,0,0-27.71-35.11,132.15,132.15,0,0,0-35.93-26.17c2.16,0,3.78-.63,5.43-.82a6.37,6.37,0,0,1,2.58.17,7.22,7.22,0,0,1,1.44.59,11,11,0,0,1,1.56,1.12,16.33,16.33,0,0,0-3-5.32,36.84,36.84,0,0,0-5-5.1,51.2,51.2,0,0,0-6.43-4.44c-1.14-.68-2.31-1.33-3.48-1.94s-2.4-1.09-3.59-1.59A50.58,50.58,0,0,0,669,14.74c-3.72-.24-6.39.31-7.21,1.75-3.78-2.42-3.56-4-2.81-5.68s2.06-3.44.28-6.27a13,13,0,0,0-4.08-3,26,26,0,0,0-5-1.84,51.74,51.74,0,0,0-5.52-1.09c-1.87-.27-3.77-.34-5.6-.49a47.39,47.39,0,0,1-9.77-1.34c-2.71-.76-4.73-2-5.61-4.43-.62-1.61,4.1-1.43,6.44-1.3-2.23.29-5.51-.35-9.11-1.3-1.8-.47-3.69-1-5.57-1.55s-3.75-.92-5.51-1.31c-3.53-.77-6.64-1.23-8.55-.81s-2.62,1.81-1.43,4.51a61.38,61.38,0,0,0-14.48-4.73c-4.82-.83-9.61-1.29-14.23-1.66A128.64,128.64,0,0,1,557.91-17a38.92,38.92,0,0,1-12.08-3.43,14.94,14.94,0,0,1-10.05,2.91,41.71,41.71,0,0,1-5.68-.6c-1.91-.28-3.81-.62-5.67-.93-3.71-.6-7.25-1.11-10.06-.42s-4.94,2.39-5.89,6.08c.52-3.83-1.3-6.61-4.56-8.52s-7.88-2.83-13-3.11a64.49,64.49,0,0,0-15.5,1.32,41.59,41.59,0,0,0-12.28,4.47c3.94-4.7-10.41-4.7-5.83-11.18C443.69-30,431-26.67,433.76-18.87c-13-8.76-25.9-4.3-37.14-.29s-21,7.57-29.93-3.11c-10.36,3.48-20.4,7.1-30.34,10.87S316-3.38,305.77,1.72A171,171,0,0,0,276,20.28,150.33,150.33,0,0,0,252,44.1a6.22,6.22,0,0,1-1.48-4.94,14.1,14.1,0,0,1,2.44-5.8c2.67-4.08,7.35-8.38,12.3-12.34s10.22-7.58,13.63-10.87,5-6.43,2.73-9.81a107.7,107.7,0,0,0-24,22.29c-1.56,1.9-2.92,3.84-4.31,5.72s-2.62,3.78-3.79,5.67c-2.43,3.74-4.51,7.45-6.57,11.09-4,7.3-7.61,14.38-11.51,21.5-2,3.56-4,7.14-6.18,10.76l-3.46,5.51c-1.18,1.87-2.51,3.73-3.79,5.66-3.19,3.71-4,1.76-4.12-1.72s.76-8.45.46-10.58c-3.62,9.18-7.24,17.8-10.86,26.12l-5.32,12.29c-1.67,4-3.4,8-4.95,12a205.17,205.17,0,0,0-8,23.51,104.54,104.54,0,0,0-3.69,23.43c-1.33-.51-1.87-4.09-2-7.44-1.37,5.93-6.31,12.67.55,14.07l-.08-6.11c6.26-3.06,9.5,4.22,11.89,12.43s3.86,17.44,6.27,18.72c-8.11-7.65-11.45-1-15.2,4.8s-7.91,10.78-17.72-.5c.14,4.12,1.91,9.77,6.63,10.23-2.95,5.16-6.08,6.19-9.5-1-1.2,10.8.54,14.91,1.89,18.63s2.27,7-.35,16.42c-3.25-.94-3.47-5.09-6.76-8.1.93,2.84,1.87,5.66,2.63,8.54a53.56,53.56,0,0,1,1.71,8.92,40.34,40.34,0,0,1-.22,9.67,40.87,40.87,0,0,1-1.15,5.26,47.11,47.11,0,0,1-2,5.65c-1.76-1.43-4.77-.13-3.61-5-2.79,14.14-.95,27.18.45,40.19.3,3.24.68,6.52.87,9.81.11,1.65.16,3.3.2,5s.08,3.36,0,5.07-.12,3.42-.28,5.17-.29,3.52-.54,5.33-.56,3.63-1,5.5-.79,3.79-1.32,5.75c-7-5.2-8.39-2.61-9.61,1.54s-2.15,9.8-8.52,10.55l.53,2.9c.31,1.73.78,4.06,1.26,6.38s1,4.66,1.41,6.4l.49,2.1.2.8.91-1.22,2-2.62,2.05-2.58.94-1.15c0,7.95,2.71,15.47,5.32,22.52s5.09,13.68,4.8,21.09l-.35-.46c-.22-.29-.55-.72-.91-1.22l-2.68-3.77c-1-1.39-1.88-2.79-2.58-3.86l-1.15-1.78,1.26,4.79,1.48,4.9c.53,1.79,1.25,3.7,1.89,5.6s1.44,3.79,2.13,5.56,1.42,3.41,2.06,4.81,1.15,2.56,1.55,3.37l.64,1.27-.12-.82c-.08-.52-.17-1.26-.25-2.15-.16-1.78-.44-4.12-.54-6.44s-.23-4.62-.21-6.33l0-2.84c2.61,3.61,5,4.91,6.95,5.26a10.88,10.88,0,0,0,4.88-.57c1.34-.33,2.41-.42,3.35.82a9.35,9.35,0,0,1,1.4,3c.24.7.42,1.54.7,2.49s.55,2,.84,3.29c-.7-.82-.69-.35-.33,1s1.21,3.47,2,6.08c.44,1.29.95,2.66,1.39,4.12l.65,2.22c.24.73.46,1.48.65,2.23a31.82,31.82,0,0,1,.87,4.55c.07.77.14,1.51.19,2.22a16,16,0,0,1,0,2.14s0,0-.06,0l6,3a45,45,0,0,1,5.89,3.23,30.41,30.41,0,0,1,5.52,4.24c.85.88,1.76,1.74,2.61,2.75a31.71,31.71,0,0,1,2.49,3.35c-.2,2.52-2.87,4.85-5.62,6.88s-5.54,3.79-5.6,5.54a13.94,13.94,0,0,1,5.22.17,26.77,26.77,0,0,1,5.62,2,64.75,64.75,0,0,1,6,3c2.05,1.13,4.21,2.18,6.34,3.33,8.59,4.41,17.71,7.92,24.31,4.74-3.92,1.07-7,7-6.65,8.66,0,0,2.4-1.24,4.73-2.52,1.17-.63,2.33-1.31,3.2-1.81l1.44-.84c5.3,5.37,5.85,6.91,2.73,11.41a20.42,20.42,0,0,0,5.63,2,3.59,3.59,0,0,0,2.85-.55c1.18-1,1.15-3,1.2-4.73s.16-3.34,1.54-3.53,4,1.08,9.26,4.68c-2.06,0-1.59,1.57-5.87,1.45a74.42,74.42,0,0,0,17.23,6.39c2.9.69,5.8,1.29,8.7,1.83s5.77,1.08,8.66,1.43,5.75.78,8.58,1.22q2.12.33,4.22.7l2.09.39,2.09.36A80,80,0,0,1,327.34,540c2,6.86-3,6.79-7.8,6.24s-9.53-1.23-6.92,4.85c16.43,2.54,33.86,1.5,50.73.69,4.22-.25,8.42-.47,12.58-.6s8.27-.33,12.33-.31c8.13.09,16,.37,23.7,1.8l-5.63-1.88c1.43-4.4,3.52-5.93,6.1-5.86s5.68,1.65,9.13,3.59,7.25,4.23,11.2,5.46,8,1.53,12-.41c-3.86,1.15-5.46,9.75-4.33,7.8,21.11,3.87,43.44-2.94,75-8.52l-3.94,4.61c6.17,2.11,14.26,2.67,22.49,3s16.52.37,23.18,1.39c3.92-4.64,11.57-4,6.87-10.66a54.08,54.08,0,0,0,30.82,8.53c10.2-.22,20.22-2.88,29.9-6.1s19-7,28.48-9.54a76.45,76.45,0,0,1,30.47-2.3,18.19,18.19,0,0,0-6,4.39c-1.37,1.56-1.74,2.76.11,2.11l4.92-2.47,5-2.7c1.81-1,3.71-2.15,5.61-3.25,3.78-2.29,7.48-4.69,10.19-6.62,1.36-.94,2.5-1.72,3.27-2.32l1.22-.91c-3.15-2.72-4.67-3.18-6.61-3.28-1,0-2,0-3.39,0a22.37,22.37,0,0,1-2.32-.22,28,28,0,0,1-3-.68,28.08,28.08,0,0,1,5.37-9.4,38.32,38.32,0,0,1,4.14-4.43,31.42,31.42,0,0,1,4.65-3.71c-4.47,5.95-3,8.72.92,9.87a24.2,24.2,0,0,0,7,.71c2.54-.08,5.15-.28,7.17-.43-2.32-1.26-2.07-4.79-4-6.41a21.16,21.16,0,0,0,6.22-.54,3.9,3.9,0,0,0,2.52-1.82c.72-1.49-.22-3.47-1.12-5.66s-1.83-4.64-1.09-7a8.22,8.22,0,0,1,2.49-3.56,29.35,29.35,0,0,1,6.09-3.77l2.25,3.69a52.34,52.34,0,0,0,2.7-6.23c.75-2.13,1.29-4.35,2-6.44.33-1.06.71-2.07,1.06-3.11s.71-2.07,1.14-3.06a28.07,28.07,0,0,1,3.37-5.64c2.42.36,3.59,1.14,4,2.23a5.85,5.85,0,0,1-.22,3.9c-.88,2.88-2.28,6.16.6,8.58a21.31,21.31,0,0,0,2.13-4.77c.27-.84.49-1.7.69-2.58a27.21,27.21,0,0,0,.39-2.7,99,99,0,0,0,.44-10.84,45.16,45.16,0,0,1,.3-5,21.28,21.28,0,0,1,.89-4.57,12.47,12.47,0,0,1,2.12-3.91,12.71,12.71,0,0,1,3.71-3.23,25,25,0,0,1-.25,4.75c-.27,1.63-.68,3.3-1.08,5-.74,3.39-1.78,6.69-2,9.81,7.84-3.4,11.14-6.24,13.33-9a23.33,23.33,0,0,0,2.58-4.4c.77-1.61,1.72-3.41,2.93-5.65l-.55.86,1.9-3.19c1.14-1.92,2.71-4.5,4.08-7.12s2.88-5.25,3.83-7.24l1.65-3.32-4.3,5c-4.63-5.72-6.63-10.49-7.46-15a36.73,36.73,0,0,1,.62-13.07c1.53-8.68,3.91-18.12-2.59-29.53,3.09,5.52,5,8.63,6.48,10.16s2.4,1.5,3.28.83c1.76-1.33,3.3-5.17,8.31-3.74,1.78-2.6,3.65-5.92,5.46-8.28s3.44-3.7,4.76-2.34c-3.62-5.57-1.55-9.66,0-14.43s2.63-10.17-3-17.82c3.34-.47.86-11.08,9.07-8.39-1.07-6.91-2.56-6.12-4.26-3.82s-3.71,6.12-5.76,5.46c-5.22-10.58-1.51-22.48,1.06-36.08.6-3.39,1.17-6.87,1.54-10.42a73.7,73.7,0,0,0,.16-10.82,51.08,51.08,0,0,0-2.14-11,45.16,45.16,0,0,0-5.37-10.79c-1.27-3.14-2.56-5.92-3.87-8.42a63.19,63.19,0,0,0-4.12-6.73c-1.41-2-2.76-3.85-4.21-5.55s-2.89-3.29-4.32-4.85c-2.81-3.13-5.76-6.1-8.62-9.59-.71-.87-1.42-1.77-2.13-2.72s-1.48-1.91-2.21-2.94c-1.48-2-2.9-4.31-4.41-6.83,1.34-4.44,4.69-3.91,7.76-2.11a27,27,0,0,1,5.62,4.85c1.11-13.79-3.14-23.28-11.47-33,3.61,1.16,4.92-2.13,6.78-7.19-2.55-4.44-6-4.68-8.94-5.54a9.78,9.78,0,0,1-2.09-.84,6.18,6.18,0,0,1-1.85-1.49c-1.11-1.32-1.94-3.39-2.38-6.87,4.28.23,10.9.06,16.51,2.92a104,104,0,0,0-14-13.14l-3.74-3-3.8-3q-1.88-1.49-3.69-3l-3.57-3.1c1.44-2.95,4.35-2.72,7.54-1.4s6.66,3.69,9.48,4.61l-3.92-4.31c-1.38-1.5-2.73-3.09-4.29-4.59s-3.08-3-4.65-4.49q-1.18-1.1-2.36-2.14c-.81-.68-1.65-1.33-2.47-2-1.64-1.26-3.28-2.41-4.87-3.41q-1.2-.75-2.36-1.38c-.79-.41-1.6-.75-2.37-1.06-3.11-1.21-5.95-1.64-8.35-.93l1.6,4.38,1.07,3c.3.8.46,1.37.46,1.37-1.71-1.76-.65-3.47,1.36-4.57s5-1.51,6.74-.53a15.05,15.05,0,0,1,6.75,4.66,7.79,7.79,0,0,1,1.4,2.74,9.47,9.47,0,0,1,.38,2.76,12.54,12.54,0,0,1-3.2,8L734.93,128l-2.29-2c-.62-.54-1-.89-1-.89-2.62,4.67-2.66,8.54-1,12a22.28,22.28,0,0,0,3.43,5,53.78,53.78,0,0,0,5.09,4.8c3.63,3.28,8.08,6.51,11.74,10.15a48.18,48.18,0,0,1,5.1,5.55,26.13,26.13,0,0,1,3.39,5.92s-4-.16-7.92-.23-7.83-.05-7.83-.05,4.4,2.49,8.9,5.17c2.26,1.33,4.37,2.77,6,3.84l2.75,1.81c-2,4.87-8.43,9.86-13.46,3.3-.93,6.65,1,8.54,2.93,10.36A7.36,7.36,0,0,1,753,196c.44,1.39.28,3.35-.78,6.3-.82,1.41-1.62,1.15-2.46.38l3.74,4.67,3.57,4.83c-3.46-1.3-9.1,4.5-9-2.57A29.08,29.08,0,0,0,749.76,223a35.19,35.19,0,0,0,2.5,5.27c.87,1.65,1.82,3.19,2.72,4.66s1.78,2.84,2.5,4.16a16.83,16.83,0,0,1,1.5,3.84,6.91,6.91,0,0,1-2.2,7s-.27-.38-.56-.75l-.58-.74c4.48,13.22,6.94,13.72,10.46,13.07,1.74-.31,3.68-.88,6.09-.12a11.65,11.65,0,0,1,4,2.37,27.48,27.48,0,0,1,4.89,5.68s-6,4.32-12.11,8.36-12.32,7.9-12.32,7.9l5.26,1.07,5.27,1.1c-.23,2.94-.82,8.72-5,7.79,3.77,5.25,4.8,4.82,5.89,3.75s2-2.71,5.47.4C769,305,770.13,314.7,770,323.12c0,4.19-.31,8-1.62,11s-3.67,4.94-7.85,5.47c3.76,2.75,5.52-.49,6.86-2.55.66-1,1.23-1.75,1.94-1.25s1.55,2.21,2.65,6.09c-9,1.59-8.51,5.91-7,11.49a45.45,45.45,0,0,1,2,9,12.76,12.76,0,0,1-2.73,9.36c-8.64-4.94-2.69-16.4-12.07-4.58,3.64,2.3,5.07,5,5.2,7.88s-1.12,5.94-2.77,9-3.71,6.1-5.38,9a23.41,23.41,0,0,0-2,4.28,10.12,10.12,0,0,0-.6,4.08,6.43,6.43,0,0,1,5.17,5.16A16,16,0,0,1,752,411a33.53,33.53,0,0,1-.84,5.38c-.44,1.9-.95,3.93-1.53,6s-1.28,4.2-1.88,6.39-1.32,4.34-1.84,6.56l-.78,3.3c-.24,1.1-.45,2.2-.61,3.31-.88-.66-2.37.82-4.54,3.33-1.09,1.26-2.2,2.87-3.55,4.57s-2.77,3.6-4.33,5.52l-2.44,2.88c-.83,1-1.62,2-2.54,2.9l-2.67,2.79-1.32,1.37-1.41,1.26a56.67,56.67,0,0,1-5.49,4.56c-.91.66-1.79,1.27-2.64,1.85l-1.24.82-1.25.68-1.21-1.72a10.91,10.91,0,0,1,2.06,7.73,16,16,0,0,1-3.4,7.3c-3.56,4.72-9.2,8.8-13.6,13-1.74-3.32-2.55-5.89-2.56-8.36a12.37,12.37,0,0,1,.58-3.7,29.77,29.77,0,0,1,1.58-4.14l-1.26.89-1.29.91-1.54,1c-1.06.67-2.09,1.36-2.89,1.84l-1.36.79a12,12,0,0,1-1.67,6.36,18,18,0,0,1-2.32,3,35.55,35.55,0,0,1-3.62,3.09l-.77-4.8-.85-4.76c-5.9,3.15-11.3,8.28-18.09,12.47s-14.81,7.33-24.75,5.91c.12,2.19,1.37,4.61,3,7.15s3.46,5.14,4.75,7.79,2,5.32,1,8-3.6,5.27-9,7.6c-1.58-4.54-3.5-12.32,1.68-15.16-.85.46-2.3,1.72-4.07,2.63s-3.83,1.58-5.82.81c0,0,1.89-2.22,3.69-4.52l2.45-3.13,1.09-1.43c-9.41-2.06-3.69,7.28-11.12,7.53-.67-6.68-5.93-4.16-5.46-9.57.87-.42,2.5.09,4.23.35s3.52.19,4.7-1.29c-8.14-.06-18.25-3.22-21.76-8.08,1,3.76.67,9-5.28,10.27-7.77.66-9.21-1.36-9.82-3.84s-.43-5.48-5-7.08c-3.6,4.8-13.72.12-13.87,10.15-4.67,0-5.56-4.67-7.39-7.37-4.08,2.25-13.84,2.6-21.35,3.73s-12.79,3-8.09,8.34l2.14.7c-.4.21-.87.22-1.36.44h0c-13.64,5-27.86,3.6-41.94,1.27s-28-5.5-41.51-3.83l.18-3.36c-16.16,3.17-35.56.41-47.56,6.52-4.76-.35-10.54-7.18-8.13-10.93-6.14.61-9.68,1.86-13.77,2s-8.75-1-17-4.9c12.81-4.17-3.42-5.65,12.87-2.63-3.78-1.22-6.78-2.49-9.42-3.6a55.1,55.1,0,0,0-7.28-2.83,20.92,20.92,0,0,0-7.82-.64,49.79,49.79,0,0,0-11,2.52c3.56-3.72,1.17-6.91-3-9a25,25,0,0,0-3.4-1.37,29.18,29.18,0,0,0-3.67-1,21.5,21.5,0,0,0-6.81-.44l9.23,8.29a63.23,63.23,0,0,1-11.6-1.87c-1.81-.47-3.61-.93-5.34-1.54L311.33,496l3.25-5,3.2-5a35.27,35.27,0,0,0-10.14-5.62c-1.73-.58-3.43-1.12-5.15-1.52a43.72,43.72,0,0,0-5.2-.88c-7.06-.74-14-.15-20.62,0-1.66,0-3.28,0-4.9,0q-1.21,0-2.41-.09c-.78-.06-1.55-.13-2.32-.22a39.93,39.93,0,0,1-4.49-.76,28.79,28.79,0,0,1-4.12-1.4,16.92,16.92,0,0,1-3.7-2.13,17.65,17.65,0,0,1-3.16-3,20.29,20.29,0,0,1-4-9c-2.49.85-3.18,2-2.88,3.36a12.2,12.2,0,0,0,2.9,4.56,15.17,15.17,0,0,1,3.2,4.83c.46,1.56-.05,3.07-2.67,4.38a24,24,0,0,1-7.12-7.77c-.47-.77-.91-1.56-1.33-2.36s-.75-1.65-1.1-2.47c-.67-1.66-1.27-3.29-1.75-4.88s-.8-3.18-1.12-4.6l-.45-2-.32-1.86c-.4-2.32-.81-3.9-1.44-4.43a10.85,10.85,0,0,0-2.73-3.9,6.66,6.66,0,0,0-3.11-1.77,15.78,15.78,0,0,0-3.63-.46c-1.28,0-2.66.05-4.07.11a31.62,31.62,0,0,1-4.14-.12,17.47,17.47,0,0,1-2.07-.34,8.44,8.44,0,0,1-2-.66,10.5,10.5,0,0,1-3.4-2.62,8.93,8.93,0,0,1-1.27-2.12,11.05,11.05,0,0,1-.9-2.72,15.18,15.18,0,0,1-7.72,5.52,9.34,9.34,0,0,1-6.1-.43,11.72,11.72,0,0,1-3.42-2.11,21,21,0,0,1-1.73-1.69q-.44-.48-.88-1c-.28-.37-.55-.75-.83-1.16a14.31,14.31,0,0,1,.44-9.11,12.09,12.09,0,0,1,4.82-5.61c4-2.37,8.87-2.13,11.37,1,1.18,2.56.35,4.26-1,4.59,1.38,1.54,2.8,3.34,4.35,3.86s2.92,0,4.12-2.76l-2.12.07-2.13,0c.86-3.27.28-8.58.57-13a11.89,11.89,0,0,1,1.25-5.32c.75-1.2,1.9-1.66,3.69-1.05-2.56-3.91-4.32-4.75-5.61-3.56a7,7,0,0,0-1.57,3,29.21,29.21,0,0,0-.89,4.78c1.45-8.07,1-14.09.44-20.56s-.93-13.21,1.58-22.13c-2.43,2.76-7.22,5.2-7.08,2.34,1.67-6.71,2-10.8,1.84-13.53a7,7,0,0,0-2.6-5.16c-2.59-2.19-6-3.39-5.77-13,3.83-5,7.32-3.44,9.56-3.2,1.12.13,1.93-.05,2.31-1.47a11.61,11.61,0,0,0,.23-3.17c0-1.45-.12-3.33-.36-5.77,3-5.34,5.8-5.43,8.05-3.61s4.15,5.55,5.4,8a24,24,0,0,1-.27-12.4,35.28,35.28,0,0,1,4.46-10.49c3.86-6.38,8.74-11.51,10.62-16.08l.51,4.75.58,4.71a28.76,28.76,0,0,1-.23-4,31.28,31.28,0,0,1,.32-3.62,63.76,63.76,0,0,1,1.44-6.65l-9.07,3.06c2.6-4.84,3.83-9.24,7-8.29-1.86-3.33-5.37-3.17-9-3.71s-7.24-1.79-9.28-8.15c5.82-6,1.79-22.83,12.82-22.31-5,10.65-2.16,10.74,1.35,10.63s7.8-.46,6,9.07c-.22-3.93,1-8.29,3.94-13.19,1.38-.46,1.91,1.36,2.08,3,7.65-9.21,5.49-12.5,2.23-16.24s-7.62-7.92-4.12-19c4.91,4.59,12.53-1.87,12.41-5.88-2.85,9-10.95,1.38-12.85-8.23,4.43-6.47,4.78-10.53,4.38-13.93s-1.54-6.1-.11-9.68l-4.77,7.7c-4.86-4.67-1.9-11.49-.43-21.77,2.37.35,2.38,2.78,2.21,4.8s-.52,3.61,1,2.21c-3.27-7,1.43-12.26,6.76-17.56s11.3-10.58,11-18.84c3.27-2.35,5.91-1.32,8.37-.29s4.71,2.05,7.19,0a21.29,21.29,0,0,1,.53-5.62,13.3,13.3,0,0,1,1.72-3.9c1.4-2.2,3.41-3.5,5.38-4.85s4.07-2.54,5.73-4.52a15.24,15.24,0,0,0,2.27-3.51,22.19,22.19,0,0,0,1.52-5.12c-4.59-.43-6.61,0-7.54-1.39s-.83-4.33-.78-11.25c0,0-.69,1.54-1.64,3.92-.49,1.17-1,2.59-1.6,4.08l-1.74,4.79c-.61,1.6-1.11,3.3-1.63,4.84s-1,3-1.34,4.25l-1.23,4.18-.33-3.28-.32-3.41-.26-3.88-.23-3.94-.11-3.42-.08-3.38a27.3,27.3,0,0,0-2.78,5.92c-.69,2.12-1.27,4.26-1.76,6.32s-.93,4-1.5,5.69a11.5,11.5,0,0,1-2.06,4.12c-1-5.4-1.06-7.69-1.93-8.54s-2.5-.31-6.49,0c8.25-2.59,9.43-8.49,10.83-14.94a37.43,37.43,0,0,1,2.8-9.52A13.32,13.32,0,0,1,276,84.69L291.52,97.4a24.33,24.33,0,0,0,9.61-7.61A86.69,86.69,0,0,0,307,80a35.35,35.35,0,0,1,7.48-9.78,24,24,0,0,1,6-3.75,26.64,26.64,0,0,1,7.89-2.11l-1.29-.14-2.81-.25c-1-.08-2-.13-2.8-.19l-1.27-.06c-.14-4.27,3.26-6,7.6-7s9.54-1.56,13.34-4.11c.81,6.7,6.44,7.87,10.82,11.27-.36-1.2.65-2,2.38-2.76s4.22-1.41,6.75-2.34c5.06-1.84,10.42-4.65,10.72-11.47l2.12,1.1,4.62,2.44c3.35,1.79,6.65,3.63,6.65,3.63,11.2.52,17.1-4.71,23.13-10.14S420.42,33.35,431.65,34c-3.21,3.78-2.22,6.76-2.27,9.52s-1.15,5.29-8.3,8.27c7.27-.32,13.88.67,13.83-4,2.22,2,7.22-.41,12.63-2.52s11.18-3.92,14.65-.77c3.09-3,4.06-10,12.47-9.49.91,1.36,0,3.31,0,3.31,0-3.33,13.12-4.4,5.85-11.9a34.73,34.73,0,0,0,9.36,6.09,44,44,0,0,0,10.52,3.16A78.32,78.32,0,0,0,511.6,37c3.83.22,7.7.36,11.57.42,7.7.24,15.33.48,22,2.12a42.31,42.31,0,0,1,4.86,1.42A33,33,0,0,1,554.45,43a22.75,22.75,0,0,1,7.13,6.22c3.85.19,8,.35,12.09.69l6.2.67c2.07.25,4.19.42,6.21.81l6.07,1.06c2,.36,4,.71,5.87,1.22s3.75.95,5.55,1.43,3.56.93,5.16,1.54c-1.52,1.58-1.17,3.08-3.37,1.57,3.88,3.1,6.79,3.85,9.48,3.37s5-2,7.44-3.5,5-2.89,8.09-2.93a10.81,10.81,0,0,1,2.41.24,12.49,12.49,0,0,1,2.55,1,23.56,23.56,0,0,1,5.74,4.4c1.24,3.67.86,5.58-.06,6.31s-2.58.44-4.22-.07c-3.3-1-6.61-3-4.54.39-1.89,5.25-1.43,8.4.44,10.46a12.19,12.19,0,0,0,3.64,2.59,36.18,36.18,0,0,0,5,1.85c.91.3,1.91.53,2.83.88s1.88.69,2.82,1.07,1.89.78,2.81,1.22c.46.22.92.45,1.36.69s.86.54,1.27.82a17.34,17.34,0,0,1,4.31,4.1,13,13,0,0,1,2.14,6L655.59,96a10.24,10.24,0,0,0,1.93,4,11.33,11.33,0,0,0,1.5,1.55,18.32,18.32,0,0,0,1.76,1.41,27.2,27.2,0,0,0,4.31,2.4c1.61.71,3.24,1.53,5,2.28A76.2,76.2,0,0,1,681,113.13a38,38,0,0,1,5,3.94,24.22,24.22,0,0,1,2.26,2.33,29.36,29.36,0,0,1,1.93,2.68s-2.07.52-2.7,2a32.33,32.33,0,0,1,6.13,1.61,48.49,48.49,0,0,1,6.07,2.93,47.77,47.77,0,0,1,6,4,59.72,59.72,0,0,1,5.73,4.86c1.82,1.77,3.72,3.56,5.41,5.51s3.4,3.91,5,5.9,3.08,4.07,4.56,6.06,2.78,4,4.11,5.95c-5.12-.81-7-2.15-8.42-2.48s-2.38.4-5.67,3.79c2.18,3.27,5.15,1.3,8.67.14a8.85,8.85,0,0,1,5.69-.27c2.06.65,4.15,2.4,6.31,6-1.1,3.37-1.71,8.23-3,12.7s-3.58,8.67-7.78,10.81l-.8-2.15c-.5-1.28-1.08-3-1.8-4.71L721,178c-4.37,5.72-2.62,9.81.09,13.89.69,1,1.46,2,2.24,3s1.47,2,2.12,3c1.29,2,2.34,3.93,2.31,5.94l-5.35.48a49.82,49.82,0,0,0,6.21,12.08c2.29,3.11,4.57,5.62,6.86,8.22,4.5,5.21,8.74,11,9.75,23.58l3.69-3.07c3.67,3.06,5.17,5.44,5.43,7.41s-.65,3.55-1.66,5.11c-2,3.14-4.52,6.15.82,12.86l-6.62,2.42-6.62,2.35,1.65,3.91,2,5c1.51,3.63,3.05,7.85,4.61,12.35,3,9,5.61,19.17,6.22,27.66a42.36,42.36,0,0,1-6-9.13c-1.83-3.43-3.34-7.16-4.88-10.91s-2.9-7.55-4.38-11.1c-.73-1.78-1.42-3.5-2.16-5.14s-1.5-3.17-2.26-4.6c0,2.2.14,5.15.28,8.45.09,1.65.21,3.37.37,5.13s.3,3.54.53,5.3a61.51,61.51,0,0,0,1.94,9.77c.92,2.85,2.06,5.15,3.63,6.43-1-3.73-4.14-8.41-1.88-11.88a49.74,49.74,0,0,1,6.46,9.29,51.73,51.73,0,0,1,4.14,10.73,56.18,56.18,0,0,1,.66,24.78,13.17,13.17,0,0,0-7.85-.31,11.05,11.05,0,0,0-5.36,3.74c-3,3.52-4.93,8.77-7.25,14s-5.09,10.41-8.8,13.77-8.36,5.11-13.77,3.67a30.79,30.79,0,0,1-4.4,8.57,50.5,50.5,0,0,1-7.09,7.74c-5.42,4.89-12.21,9.34-19.59,14-14.6,9.11-29,16.54-41.34,24,2.33,1.63,4,2.86,5.19,3.85a5.91,5.91,0,0,1,1.95,2.43c.39,1.31-.85,2.13-2.33,3a20.73,20.73,0,0,0-2.24,1.54,5.8,5.8,0,0,0-1.67,2.27c-.72,1.86-.48,4.69,2.16,9.19-6.7,4.51-9.89,5.13-11,4.11l-4.2-.57-4.29-.75L616.9,465l-2.47-.54c-6.56-1.38-13-3.31-13-3.31-3.33-2.42-1.71-3.91.43-5.33s4.76-2.92,3.89-5.09a25.39,25.39,0,0,1-5,.26,11.35,11.35,0,0,1-3.29-.66,6.35,6.35,0,0,1-3.33-3,26.47,26.47,0,0,0-2.41-4,11.9,11.9,0,0,0-5.48-3.54c1.61,3.53.63,6.35-2.06,8.13a12.89,12.89,0,0,1-5.23,1.7,23.5,23.5,0,0,1-7-.34s3.65,2.07,7.37,4.1l5.11,2.72,2.33,1.19a25.72,25.72,0,0,1-7.61,3.4,15.9,15.9,0,0,1-6.16.25c-3.71-.67-6.57-2.62-9.47-4.66s-5.75-4.06-9.48-4.85a17.53,17.53,0,0,0-6.44-.13,34.55,34.55,0,0,0-8.61,2.63l4.13-3.37,2.82-2.32,1.27-1.06c-6.7,2.15-19.32,2.35-31.68,3.85-3.09.36-6.15.77-9.15,1.37-1.5.29-3,.64-4.43,1s-2.84.75-4.21,1.2a38.31,38.31,0,0,0-7.66,3.43,25.81,25.81,0,0,0-6.19,5c-2.23-2.56-4.86-8.43,1-9.54a108.2,108.2,0,0,0-12-.9c-4.06-.1-8.26.11-12.4.22-2.09.08-4.19.2-6.31.35l-1.59.11-1.57.06-3.14.14-6.31.34c-2.11.13-4.14.09-6.22.14s-4.11,0-6.15,0-4-.2-5.95-.33-3.88-.35-5.77-.58a26.07,26.07,0,0,1-2.77-.46q-1.35-.28-2.68-.59c-7.12-1.55-13.17-4.54-17.6-8.87l1.94-2,1.94-2a15.2,15.2,0,0,0-4.28.5c-1.46.35-3,.79-4.42,1a8.43,8.43,0,0,1-4.25-.23,5.76,5.76,0,0,1-1-.47,6.28,6.28,0,0,1-.89-.75A8.82,8.82,0,0,1,382,437c1.22-1.74,4-3.66,2-5-.8.09-2.22.26-4,.37a30,30,0,0,1-6.06-.12,26.54,26.54,0,0,1-6.3-1.55,13.13,13.13,0,0,1-2.72-1.43,9.32,9.32,0,0,1-2-2.11l4-.8,4-1q-.94-.88-1.88-1.68c-.63-.52-1.19-1.11-1.79-1.62a37.55,37.55,0,0,0-3.59-2.81,42.23,42.23,0,0,0-3.69-2.24c-1.21-.74-2.44-1.34-3.69-2a111.6,111.6,0,0,0-15.92-5.91c-11.15-3.46-23.18-6.84-34.09-15.48a13,13,0,0,0,3.81-9.62,24.93,24.93,0,0,0-.73-5.8,43.76,43.76,0,0,0-1.88-6c-.8-2-1.65-4-2.61-6s-1.94-3.86-2.92-5.66l-2.86-5.1-2.49-4.31,1.84-1.11c-10.59-13.3-20-21.2-28.6-29.15a85.82,85.82,0,0,1-11.6-12.51c-.41-.57-.91-1.15-1.27-1.75L256,304.81l-1.14-1.88c-.36-.64-.66-1.29-1-2a41.8,41.8,0,0,1-3.05-9.17c4.07-4.24,6.83-9.66,9.35-16.76,1.25-3.54,2.43-7.5,3.6-11.87.6-2.18,1.18-4.43,1.74-6.71l1.71-6.89c2.29-9.26,4.71-18.76,7.84-27.57s6.93-16.94,11.76-23.38c-2.07,1.75-4.76.61-6.85-1.76a12.39,12.39,0,0,1-3.17-8.9c2.79-2.93,2.39-8.68,3-13s2-6.95,7.88-3.41l-1.36,2.24c7.27.38,11.62-2.93,15.05-7.4a40.49,40.49,0,0,0,2.4-3.57c.78-1.2,1.51-2.46,2.22-3.73s1.46-2.51,2.19-3.72,1.45-2.43,2.28-3.49l-6.9-5.79-6.86-5.87c9.76-2.66,17-7.59,23.35-13.51s11.94-12.82,17.8-19.08,11.94-11.78,18.15-14.63q1.16-.53,2.31-1l1.14-.4c.39-.1.78-.19,1.16-.27a19.7,19.7,0,0,1,4.52-.44,14.43,14.43,0,0,1,4.39.94,14.81,14.81,0,0,1,4.14,2.39,22.55,22.55,0,0,1,3.9-4.15C379,89,380.6,88,382.23,86.9s3.37-2,5-3.12A28,28,0,0,0,392,80.07l1.47,9.53c2.3-.15,4.5-.16,6.55-.27s4.09,0,6-.06,3.86,0,5.73,0,3.8,0,5.72,0c7.75,0,16.17-.33,28.76-.48L443.47,92c-1.39,1.6-2.72,3.26-2.72,3.26,6.77.77,11.78-5.7,17.12-12.19a58.18,58.18,0,0,1,8.32-8.84,17.27,17.27,0,0,1,4.62-2.71,10.83,10.83,0,0,1,5.05-.57l.84,7.43.74,7.45a87.49,87.49,0,0,1,18.46,5.74c6,2.46,11.77,5.39,17.56,8A121,121,0,0,0,531,106.44a62.43,62.43,0,0,0,19.42,2.47c-1.28,1.7-3.76,5.14-7.63,4a52.24,52.24,0,0,1,4.56,2.68c1.68,1.14,3.57,2.37,5.49,3.73,3.85,2.71,8,5.62,11.9,7.92,1,.57,2,1.09,2.92,1.54a25.42,25.42,0,0,0,2.8,1.23,14.7,14.7,0,0,0,5.23,1c3.25-.11,6.11-1.95,8-6.63a5.36,5.36,0,0,0,.45,7c1.79,2,4.89,3.77,8.68,5.4,1.86.85,3.93,1.63,6,2.41s4.31,1.56,6.47,2.34l6.36,2.28,5.7,2.15-4.06,2.69-4,2.72c8.19-.54,13.08-1,17.54-.31a21.23,21.23,0,0,1,3.35.82,26.23,26.23,0,0,1,3.45,1.53,49.1,49.1,0,0,1,8.41,5.86,3.57,3.57,0,0,1-1.53,4.46c-1.33.67-2.89.14-3.6-2.59,1.09,3.28,2.34,5.09,3.89,6.17a14.82,14.82,0,0,0,4.93,2,20.25,20.25,0,0,1,2.66.93A9.7,9.7,0,0,1,651,172a12.12,12.12,0,0,1,2.33,3,21.62,21.62,0,0,1,1.8,4.91L651,179l-2.79-.55-1.29-.22A37.16,37.16,0,0,0,651,184.4a10,10,0,0,0,3.58,2.88c2.56,1.17,5.49,1.32,10.39,3a15.94,15.94,0,0,1,4.39,6.46,27.24,27.24,0,0,1,1.2,4.28,23.3,23.3,0,0,1,.5,4.51c.19,6-1.82,11.76-5.52,14A15.68,15.68,0,0,1,674.8,223a13.57,13.57,0,0,1,3.57,4.3A10.54,10.54,0,0,1,679.6,233c-2.89,1.8-5.53-.51-6.81-1.63a41.13,41.13,0,0,0,2,14.5,100.4,100.4,0,0,0,4.8,11.3c.78,1.77,1.54,3.5,2.18,5.23a27.51,27.51,0,0,1,1.27,5.24,15.68,15.68,0,0,1-.19,5.38,17.49,17.49,0,0,1-.8,2.76,19.73,19.73,0,0,1-1.46,2.81c-3.14.31-4.72,1.26-5.67,2.46a215.87,215.87,0,0,0-.44-21.58c-.11-2.71-.34-4.85-.37-6.24s0-2,.25-1.74c-4.32.67-6.39,4.4-9.08,6.7a7.29,7.29,0,0,1-4.89,2c-2,0-4.41-.85-7.77-2.86,3.92,4.38,9.84,10.71,13.81,18.05s6.11,15.51,3.29,21.68a10,10,0,0,1-3.2,1.3l-.82-1.41A10.09,10.09,0,0,0,666,305c-2.16,3.69-3.66,5.9-4.71,9.5-3.64-.14-5.49,2.94-6.78,6.74-.71,1.87-1.15,4-1.78,5.9a28.67,28.67,0,0,1-1.79,5.07c4.51,1.61,5.61,4.13,6.84,5.83s2.59,2.55,7.83.35c-1.08.69-.47-1.57.67-5.86.08-1,.4-2.17.06-3,.21.21.44.46.65.71,1.1-4.24,2.74-9.69,4-16.09a37.85,37.85,0,0,1,2.31,4.76,15,15,0,0,1,1,4.82,10.9,10.9,0,0,1-.19,2.4,10,10,0,0,1-.89,2.31,11.65,11.65,0,0,1-4,4.28c2.25,2.68,4.53,5.59,6.36,8.25a69.86,69.86,0,0,1,4.18,6.78c-2,.51-4.07,1.11-6.05,1.8s-3.88,1.48-5.83,2.23-3.81,1.55-5.61,2.33-3.65,1.46-5.34,2.14c-6.88,2.65-12.74,4.17-16.63,2.45A47.67,47.67,0,0,1,634.48,370c-1.08,1.55-2.15,2.92-3.16,4.16s-1.95,2.33-2.91,3.43a80.93,80.93,0,0,1-8.83,7.75,58.81,58.81,0,0,0-11.14,11.22,5.13,5.13,0,0,1-6.67-1.81c-1.46-1.89-2.41-4.43-3.69-5.81A32.92,32.92,0,0,1,603.9,387c1.83-.54,3.37-1.19,4.25-2.53-2.95,1.32-7.12,2.11-11.44,2.82s-8.93,1.2-13.22,1.92c-8.57,1.43-16,3.67-17.78,9.87-8.42-3.1-5.87-5.95-4.24-7.78s2.47-2.74-9.08-2.28l3.29-3.67a56.9,56.9,0,0,0-30.73-6.2c-9.8.66-19.48,3.26-29.48,5.42s-20.18,3.87-30.61,2.53a59.7,59.7,0,0,1-7.82-1.62,49.62,49.62,0,0,1-22.56-14.18c2.63,2.59,4,3.75,4.06,6-6.27-3.42-12.4-6.75-18.58-9.83q-2.27-1.23-4.57-2.38l-2.3-1.15-2.25-1.21-4.55-2.33q-2.22-1.24-4.47-2.43l-2.25-1.19-2.19-1.26L393,353l-4.3-2.63c-.72-.44-1.46-.86-2.16-1.31l-2.09-1.4-4.2-2.79-4-3c-2.75-1.94-5.3-4.14-7.9-6.36A151.77,151.77,0,0,1,340.72,303a158.59,158.59,0,0,1-10.65-19.42,87.22,87.22,0,0,1-6.55-20.22,26.63,26.63,0,0,0-3.46-8.16,12.92,12.92,0,0,0-2.14-2.42,14.13,14.13,0,0,0-2.41-1.75c-3.43-2-7.67-3.06-12.06-6.33,0,0,2.17-1.6,4.37-3.13s4.41-3,4.41-3l-2.38-1.55c-1.47-1-3.29-2.28-5.18-3.71s-3.58-2.93-5-4.12c-.7-.59-1.23-1.11-1.6-1.47l-.59-.58a20.47,20.47,0,0,1-1.66-3.85,19.63,19.63,0,0,1-.55-3.92c0-.65,0-1.3,0-1.95s.17-1.29.29-1.93a27.9,27.9,0,0,1,1-3.78c.5-1.24,1.06-2.45,1.68-3.64.31-.59.62-1.18,1-1.76s.75-1.15,1.13-1.72c.77-1.13,1.56-2.24,2.35-3.33l2.6-3.18,1.26-1.56,1.33-1.53c.88-1,1.67-2,2.46-3.06a41.4,41.4,0,0,0,4.28-6.3c2.39-4.45,3.48-9.5,3.17-16.91,0,0-1.88-.19-3.8-.31s-3.87-.2-3.87-.2c2.79-4,6.21-10.89,10.2-15.76.49-.61,1-1.21,1.45-1.75s1-1,1.51-1.45a13.67,13.67,0,0,1,2.8-2c1.84-.82,3.34-.63,4.4,1.1a22.85,22.85,0,0,1-.68-4.3c.05-1.65.93-3,3.51-2.84l3.54,4,.5-.92c.34-.57.85-1.36,1.46-2.33s1.31-2.17,2.18-3.32l2.74-3.73c2-2.42,4.08-5,5.81-6.67l2.08-2.15c.25-.27.45-.47.6-.59l.22-.2a14.24,14.24,0,0,1,5.77-.15,7,7,0,0,1,3.41,2c1.66,1.75,2.37,4.23,3.3,6.54a16.33,16.33,0,0,0,1.65,3.24,8.29,8.29,0,0,0,2.62,2.45,9.25,9.25,0,0,0,4.23,1.18,16.7,16.7,0,0,0,3,.1c.55,0,1.12-.08,1.72-.14s1.25-.07,1.92-.14a13.77,13.77,0,0,0,1.49-.76l.79-.49.82-.48a41,41,0,0,0,3.52-2.46c1.22-.84,2.49-1.79,3.77-2.81s2.55-1.92,3.78-2.95l3.46-2.9a28.16,28.16,0,0,0,2.73-2.66c1.46-1.7,2.19-3.15,1.31-4.14a12.51,12.51,0,0,1-3.25-1,15.87,15.87,0,0,1-1.7-.9,16.43,16.43,0,0,1-1.65-1,8.93,8.93,0,0,1-4.06-6.38l5.09-1.28c1.29-.36,2.59-.51,3.57-.72l1.64-.3c.85-3.9,2.16-7.78,3.3-11.61a39.32,39.32,0,0,0,1.89-11.34,13.71,13.71,0,0,0-1.1-5.57,17.61,17.61,0,0,0-3.69-5.49,23.52,23.52,0,0,0-3.06-2.68,35.79,35.79,0,0,0-4-2.46,39.68,39.68,0,0,0-5.09-2.29c-1.88-.67-4-1.31-6.25-1.9,0,0-1.55.64-3.78,1.79l-3.78,1.93-2.09,1.09c-.7.39-1.41.82-2.11,1.23l-4.07,2.44-1.83,1.13-1.6,1.09-3.25,2.26-1.42-.91c-.86-.54-2-1.29-3.18-1.94-2.32-1.35-4.75-2.66-4.75-2.66l3.08-.94c1.84-.6,4.36-1.15,6.87-1.78,1.26-.29,2.51-.62,3.7-.86l3.27-.61,3.19-.58a19.2,19.2,0,0,0-8.59-1.72,16.67,16.67,0,0,0-6.81,2,27.3,27.3,0,0,0-5.43,4.29c-.83.81-1.64,1.64-2.43,2.48L346,78.15a14.61,14.61,0,0,0-12.62-4.31l-2.63,3.65c-1.51,2.26-3.44,5.28-5.24,8.25s-3.38,6.14-4.54,8.4c-.59,1.12-1,2.13-1.33,2.8L319.2,98c-2.81-1.89-2.25-5.87-2.74-8.77s-2.18-4.7-10.23-1.6c-1.45,3.13-1,5,.11,6.27s3,2,4.6,2.8c3.25,1.63,5.28,3.6-.32,10.49a50.26,50.26,0,0,1-7.83-.14,28,28,0,0,0-5.09-.3,5.51,5.51,0,0,0-3.72,2.07,21.06,21.06,0,0,0-3.61,7c-2.12-.73-3.18-2-3.34-3.87a12,12,0,0,1,2-6.72,76.89,76.89,0,0,1-5.72,9.34c-1.12,1.55-2.14,3.23-3.24,4.83s-2.19,3.19-3.08,4.84c-3.8,6.47-6.14,12.86-4.08,17.6-3.34,1.4-6.28,4.4-8.51,8.11-2.38,3.66-4,8-5.71,11.88-1.51,3.94-3.11,7.41-5,9.68s-4.38,3.24-7.92,2a19.09,19.09,0,0,1,.92,2.42c.34,1,.69,2.2,1,3.52.71,2.63,1.36,5.75,2.15,9.05.37,1.64.71,3.32,1,5s.7,3.35,1,5,.46,3.21.66,4.73a34.78,34.78,0,0,1,.33,4.31c-4.22-5.15-6.5-5.44-7.91-2.57a20.26,20.26,0,0,0-1.48,6.2c-.22,2.62-.33,5.67-.34,8.86l.23,9.66a63.06,63.06,0,0,1-.2,8.77c-.47,5.16-2.31,8.83-7.31,8.39a40.45,40.45,0,0,1,3.42,2.72,32.54,32.54,0,0,1,3.08,3.21c1,1.17,1.94,2.34,2.84,3.62s1.76,2.64,2.64,4c3.4,5.56,6.59,11.78,9.92,18.06,6.66,12.54,14.13,25,23.78,31.64-1.73-.34-5.23-.95-5.57-3.09a38.12,38.12,0,0,1,4,13.56c.4,3.77.3,7.16,1.18,11.15,5.93-3.13,12.06-1.39,18.39,1.61s12.91,7.21,19.28,8.72c-.26,4.91-1.42,7.58-3.24,8.92s-4.29,1.38-6.93,1.1-5.5-.85-8.11-.66a7.93,7.93,0,0,0-6.72,4c4.09-3.55,10.3.27,16.26,3.66,3,1.69,5.85,3.27,8.2,3.79s4.09,0,4.9-2.53c1,7.19,2.3,9.87,2.66,12.22a11.42,11.42,0,0,1,0,3.89c-.24,1.61-.73,3.7-1.4,6.89,3.34-2.57,5.66-3.46,7.5-3.35s3.28,1.2,4.77,2.61a34.23,34.23,0,0,0,5.3,4.38,12.81,12.81,0,0,0,3.69,1.53,15.11,15.11,0,0,0,4.86.17,39.32,39.32,0,0,1,2.64,5.78,22.16,22.16,0,0,1,1.11,4.2,25.4,25.4,0,0,1,0,5.38c-.05,2.63,1.08,4.35,11.35,7.55,1.47,2.4,1.45,3.85.51,4.79s-2.76,1.28-4.8,1.27A41.88,41.88,0,0,1,352.46,416.3ZM728.62,299.23l.19,0c-.19,3.9-.41,7.24-.55,9.38C728.38,306.67,728.53,304,728.62,299.23Zm.21-37.82c0,4.6.18,10.31.24,16.37-3.32,1.32-6.65-.12-6.55-3.78C724.76,276,726.55,267.24,728.84,261.41ZM656.9,321.32c-.17-4.28,2-5.06,4.06-5.12-.19,1-.37,2-.52,3.21l-.44,4.08c.3.22.61.59,1,.83A16.38,16.38,0,0,1,656.9,321.32Z" transform="translate(-17.87 30.58)"/><path class="cls-1" d="M666.27,332.56a6.72,6.72,0,0,1,0,2,19.8,19.8,0,0,0,3-1.73c-.76-.86-1.5-1.72-2.25-2.49C666.75,331.06,666.47,331.84,666.27,332.56Z" transform="translate(-17.87 30.58)"/><path class="cls-1" d="M532.7,524.08l-.71-.22a4.2,4.2,0,0,1,1.48,1.36C533,524.76,533,524.46,532.7,524.08Z" transform="translate(-17.87 30.58)"/><polygon class="cls-1" points="318.62 46.91 319.6 49.12 322.28 45.78 318.62 46.91"/><path class="cls-1" d="M722,518.44a5.21,5.21,0,0,0,3.7.26C725.26,518.27,723.77,518.32,722,518.44Z" transform="translate(-17.87 30.58)"/><path class="cls-1" d="M776.33,446.52l3.65-5.38c.94-1.36,1.75-2.73,2.41-3.76l1.07-1.72A107.88,107.88,0,0,0,776.33,446.52Z" transform="translate(-17.87 30.58)"/><path class="cls-1" d="M795.49,382.88a14.06,14.06,0,0,0-3.9-1.76s0,.08-.08.12Z" transform="translate(-17.87 30.58)"/><path class="cls-1" d="M179.56,166.13a9.85,9.85,0,0,0,.34-2.47C179.89,157.59,179.39,161.56,179.56,166.13Z" transform="translate(-17.87 30.58)"/><path class="cls-1" d="M180.58,466.7l-2.64-1.38c-.84-.51-1.67-1-2.49-1.58a41.89,41.89,0,0,1-4.74-3.64c1.35,2.8,2.68,5.26,4.22,6.63S178.36,468.24,180.58,466.7Z" transform="translate(-17.87 30.58)"/><path class="cls-1" d="M457.37-30.58c0,.06,0,.08,0,.17.72,0,1.35,0,2.07,0Z" transform="translate(-17.87 30.58)"/><path class="cls-1" d="M163.64,445.63a22.22,22.22,0,0,0,2.43,8.33,25.36,25.36,0,0,0,4.65,6.13C168.71,455.33,166.84,449.72,163.64,445.63Z" transform="translate(-17.87 30.58)"/><path class="cls-1" d="M743.17,107l-1.76-2.9a2.35,2.35,0,0,1-1.44.65Z" transform="translate(-17.87 30.58)"/><path class="cls-1" d="M740,104.74l-3.29-2.12C737.79,103.92,738.8,105,740,104.74Z" transform="translate(-17.87 30.58)"/><path class="cls-1" d="M729.79,98.29l6.88,4.33C734.94,100.55,733,97.8,729.79,98.29Z" transform="translate(-17.87 30.58)"/><path class="cls-1" d="M782.17,188.47l3.6-.14A6.13,6.13,0,0,0,782.17,188.47Z" transform="translate(-17.87 30.58)"/><path class="cls-1" d="M790.7,214.1a27,27,0,0,1,.11-5.57c.18-2.07.37-4.32.49-6.65a34,34,0,0,0-.27-7,18.86,18.86,0,0,0-2.37-6.59l-2.88.07c1.56.61,2.24,2.29,2.5,4.52a27.46,27.46,0,0,1,.12,3.68c-.06,1.32-.2,2.7-.31,4.1a40.09,40.09,0,0,0-.15,8C788.16,211,788.92,213,790.7,214.1Z" transform="translate(-17.87 30.58)"/><path class="cls-1" d="M758.26,322.3l.52-3.12c.34-1.88.68-4.37,1.05-6.88.78-5,1.36-10,1.36-10-3.64,3.58-8.54,8.06-9.55-.86-2.64,6.22-3.57,9-3.34,10s1.56.49,3.19-.08,3.56-1.11,5,.12S758.86,315.74,758.26,322.3Z" transform="translate(-17.87 30.58)"/><path class="cls-1" d="M747.69,383.63c-.29-10.69-5.3-.58-7.31-1.48C742.74,389.1,743.33,390.92,747.69,383.63Z" transform="translate(-17.87 30.58)"/><path class="cls-1" d="M390.34,511.06l2-8.53C384,502.91,391.88,505.87,390.34,511.06Z" transform="translate(-17.87 30.58)"/><path class="cls-1" d="M295,539.86l7.2,7.38,3-3.37,2.92-3.39Z" transform="translate(-17.87 30.58)"/><path class="cls-1" d="M266.27,465.5s.82,0,1.67,0h1.7l-1.93-.24-4.15-.64-2.23-.35-1.9-.35-1.86-.34,4.31,1Z" transform="translate(-17.87 30.58)"/><path class="cls-1" d="M543.64,57.05l-1.06-10.92C536.92,47.37,534.59,59.21,543.64,57.05Z" transform="translate(-17.87 30.58)"/><path class="cls-1" d="M738.88,246a14.38,14.38,0,0,0-4.82,8.58,9.75,9.75,0,0,0,3,9.26,59.12,59.12,0,0,1,1.7-10.26C739.39,250.42,739.77,247.69,738.88,246Z" transform="translate(-17.87 30.58)"/><path class="cls-1" d="M315.9,137.06l-.29,3.22c-.07.8-.14,1.59-.16,2.21l-.05,1L316,142l1.37-3.34c1-2.48,2.09-4.85,2.09-4.85l-1.79,1.6Z" transform="translate(-17.87 30.58)"/><g class="cls-2"><path class="cls-1" d="M939.63,192.29c-2-2.14-7.48-6-7.34-4l8.25,7.7Z" transform="translate(-17.87 30.58)"/><path class="cls-1" d="M917.34,186.75a80.3,80.3,0,0,0,6.79,8.76,61.33,61.33,0,0,0,10.8,9.71,59.71,59.71,0,0,1-5.38-7.26,56.77,56.77,0,0,0-6.63-8.18c-.1-1.87,4.33.39,7.41,3.19-1.94-2.2,3.35-.25-1.72-5.22-8-3.92-9.5-2.52-5.61,3.93C920.76,190.46,918.85,188.17,917.34,186.75Z" transform="translate(-17.87 30.58)"/><path class="cls-1" d="M801.65,235.7l1.15,1.06A2.24,2.24,0,0,0,801.65,235.7Z" transform="translate(-17.87 30.58)"/><path class="cls-1" d="M724.49,244.87c.56-.34.66-1.48.56-2.5A3.12,3.12,0,0,0,724.49,244.87Z" transform="translate(-17.87 30.58)"/><path class="cls-1" d="M709.67,234.23a6.68,6.68,0,0,0,.87.66C710.11,233.9,709.75,233.37,709.67,234.23Z" transform="translate(-17.87 30.58)"/><path class="cls-1" d="M801.65,235.7l-2.94-2.82C799.57,236.45,800.46,235.2,801.65,235.7Z" transform="translate(-17.87 30.58)"/><path class="cls-1" d="M923.66,219.58a7.53,7.53,0,0,0-1.08-3.09,7.48,7.48,0,0,1-.08,1.75Z" transform="translate(-17.87 30.58)"/><path class="cls-1" d="M829.89,216.15l.54-.24c-.33-1.25-.79-2.74-1.32-4.4Z" transform="translate(-17.87 30.58)"/><path class="cls-1" d="M851.1,204c-.67-.11,3.75,8.36,5.56,12.14-1.6-3.61-2.14-5.45-2.07-6.34C853.72,208.25,852.6,206.39,851.1,204Z" transform="translate(-17.87 30.58)"/><path class="cls-1" d="M892.73,195.39l-.35-1.48C892.52,194.35,892.54,194.85,892.73,195.39Z" transform="translate(-17.87 30.58)"/><path class="cls-1" d="M812.54,220.51c-.5-1.33-1-2.48-1.32-3.15A26.67,26.67,0,0,0,812.54,220.51Z" transform="translate(-17.87 30.58)"/><path class="cls-1" d="M54.88,240.83c.31-.61.46-1,.71-1.54C55,240.09,54.7,240.68,54.88,240.83Z" transform="translate(-17.87 30.58)"/><path class="cls-1" d="M46.56,184l.63-.26c.89-1.58,1.76-3.13,2.59-4.69Z" transform="translate(-17.87 30.58)"/><path class="cls-1" d="M684.23,224.71a1,1,0,0,0,.12.17C684.89,223.74,684.55,224,684.23,224.71Z" transform="translate(-17.87 30.58)"/><path class="cls-1" d="M460.44,235.8c2.18,8.65-4.71,10.75-1.27,20.42C459,252.47,463.38,241.48,460.44,235.8Z" transform="translate(-17.87 30.58)"/><path class="cls-1" d="M922.19,219.22a2.82,2.82,0,0,1-.89.95C922,220,922.22,219.7,922.19,219.22Z" transform="translate(-17.87 30.58)"/><path class="cls-1" d="M459.17,256.22v.07l.36.91Z" transform="translate(-17.87 30.58)"/><path class="cls-1" d="M629,234.65a32.58,32.58,0,0,0,.8,4.15A22,22,0,0,0,629,234.65Z" transform="translate(-17.87 30.58)"/><path class="cls-1" d="M671.77,245.29l-1.15-1.18C671.11,244.94,671.47,245.2,671.77,245.29Z" transform="translate(-17.87 30.58)"/><path class="cls-1" d="M607.76,249.1c-.6-.71-.84-2-1.57-.72a9.46,9.46,0,0,0,.28,1.16C606.7,248.24,607.05,247.61,607.76,249.1Z" transform="translate(-17.87 30.58)"/><path class="cls-1" d="M584.91,249.84c.14.73.31,1.27.46,1.91.22-.19.48-.35.71-.52Z" transform="translate(-17.87 30.58)"/><path class="cls-1" d="M126.83,264.21a79.38,79.38,0,0,1,1.63-8.49C126.68,262.28,122.47,263.47,126.83,264.21Z" transform="translate(-17.87 30.58)"/><path class="cls-1" d="M919.95,215.69c1.55,1.85,2.2,2.87,2.25,3.53a3.39,3.39,0,0,0,.31-1A15.23,15.23,0,0,0,919.95,215.69Z" transform="translate(-17.87 30.58)"/><path class="cls-1" d="M609.62,324.48l-3.87-1.28A5.84,5.84,0,0,0,609.62,324.48Z" transform="translate(-17.87 30.58)"/><path class="cls-1" d="M297.21,300.61l-1,1C296.49,301.89,296.84,301.66,297.21,300.61Z" transform="translate(-17.87 30.58)"/><path class="cls-1" d="M594.47,325a22.14,22.14,0,0,0-2.32-6.56,18.2,18.2,0,0,0-.38,2.47Z" transform="translate(-17.87 30.58)"/><path class="cls-1" d="M128.49,255.62a.56.56,0,0,1,0,.1A.56.56,0,0,0,128.49,255.62Z" transform="translate(-17.87 30.58)"/><path class="cls-1" d="M96.46,268.37c3.49,1.55,6-10.92,9.22-17.4,5.4-1.84-1.26,9.38-2,15.93,3.81-2.16,9.7-12.29,11.47-11.13-.54,2-.41,2.85-1.72,5.13,3-4.21,5.13-3.59,7.38-3.25s4.69.28,8.27-5.13a20.25,20.25,0,0,1-.57,3.1,162.26,162.26,0,0,1,5-16.51c1.61.29,5.33-6.62,3.34,1.36-.87-.53-2,2.59-3.23,4.88l2.73-2.86c-2.22,11.68-3.49,3.16-6.24,11.45,4.43-2.61,11.1-10.72,12.5-6.77-3,11.17-6.89,1.87-6.75,12.7l-2.45-5.43c-2.73,18.26-1.95-2-5.29,17.44,4.11,4.84,7.51-3.77,11.58,1.08,3-5.76,2.44-9.19,5.46-15,5.22-4.35,4.5,3,3.74,9.79s-1.58,13.15,3.26,6.53c3.55-7,8.11-20.88,9.7-12.39l-4.86,12.19c4.61,2.66,7.89-17.26,10.65-7.35-2.27,4.69-5,3.07-4.68,4.78.59,10.89,4.34-6.46,6.87-5.74l-2.5,11.31c2.87-.09,6.31-1.93,9.78-3.68s7-3.58,10.15-3.88c-1.15,3.26-3,6.51-2.52,10.29,4.39-1.9,8.2-.49,11.67,2.26s6.58,7,9.44,11.19l4.88-9.14c.61.25.22,4.67-.88,6.4,2,4.32,1.49-6.15,3.65-9.69,1.72-.33.88,6.07-.75,8.78,6.74-7.08,17.58-15,20.67-3.5l-1.57,2.71c3.29,4.77,8.37-19.21,10.32-9.35l-1,1.6c3.93,3,8.73,2.56,13,3.44s8.08,3,10.22,11c1.79-7,3.68-5,5.61-3.82s3.89,1.67,5.7-8.2c3.46,10.55,1.49,13.89,7.59,21.54,1.76,1.19,4.6-12,7.19-13.71L289,301.8l4.67-10.43,0,12.65,2.55-2.39c-.79-.72-1.21-4.9-.67-7.87,4-4.28,7.3,8.29,6.72,13.62l9.18-7.77c-.7,4.16-2.22,5.42-3.63,8,5.63-10.07-.57,11.06,4.59,1.83-.24-2.43,1-6.16,1.39-8.25.6,3.27,2,5.06,3.75,5.76a6.26,6.26,0,0,0,5.56-.91l-1.46,7.11c5.81,2.48,13-2.06,19.75-1.19-2.07-3.61-.22-16,1.85-17l-.34,11.1c2-6.68-1.62-4.37,1.81-12.44,2.35,1.5.42,12.69-1.38,16.15l3.42-3.54c-.15,3.31-1,5-1.64,9.15,1.92-6.73,4.2,11.56,7.16-.16l-.14,3.3c6.73.72,10.13-2.78,15.64-2.84.93-9.52,2.87-7.23,5.14-14.8,3.72,3.36,7.55,11.2,12.44,10.78,3.75-4.47,1.61-8,3.56-13.53-.42,8.7,4.45,8.27,1.49,14.31,5.88-1,7.51-1.22,15.28-7.77-.55-3.61-1.33-5.22-.66-8.16,1.41-1.34,2.75,3.85,2.28,8l-.41.88c4.52-6.25,8.79.44,13,6.4s8.19,11.28,12,2.41l-.42.87,7.27-9.05c3,1.66-2.22,6.44-.21,11.94,8.06-14.14,11.44,2.69,17.92-6.67,1.72,12.94,5.91,12.66,10.32,11.23s9.06-4,11.92,4.3l-.14-6.06c1.85-5.87,1.85,3.53,3,5,0-4.7-1.58-5.49-.45-8.74,7-3.43,14-.92,21.13,3s14.22,9.56,21.34,12.35c5.22,1.7,3.35-31.25,9.72-16.72l-2,11.2c5.32-6.64,10.67-6.56,16-6.16a30.48,30.48,0,0,0,8-.06,13.68,13.68,0,0,0,7.79-4.71c-.59,2.6-.59,6-1.59,5.93,2.24,8.14,8.06.32,8-6.33,1.61.74.44,6,1.47,9.39,2.26,4.8,5.33-10.46,6.61-2.38a5.15,5.15,0,0,1-1,3.3c1.36-4,6.67.86,5.12-8.52,4,4.41,7.29-4.34,10.5,1.16,1.72-10.55,6.76,4.89,7-10,.18,15.38,7.19,12.17,9.35,4.85-.65,4.67,2.3,4.74,1.58,11.21,2.8-.31,5.25-3.25,4.44-11.13,2.94,9.09,5.39,5.25,7.55,2.09s4-5.66,6.08,6c7.91-8.6,15.2-14.74,22.36-18.77.74,15.31-8.09,2-6.79,18.08,6.74-6.76,9.87-20.09,17.09-17,2,2-.53,6.72-1,9.37,3.3-3.42,6.73-3.34,10.05-3.5a13.66,13.66,0,0,0,4.85-.9,10,10,0,0,0,4.44-4.15,9.57,9.57,0,0,1-1,4.27c1.19-.61,3.08,2,2.32-4.95l-1,2c-2.83-9.9,3-21.5,2.68-26.84-.23,20.08,6.57,4.44,5.66,29.88.69-1.39,1.39-4.77.76-9.39,1.33,1.24,2,3.91,1.27,9.3,4.06-4.2,1.75-11.39,5.75-11.66.33,3.36-.34,4.75-.36,8.74,1.37-6.76,2.7-13.53,6.35-11.06,0,2,.69,4.63-.32,4.69,2.84-.82,4.83-5.45,7-9.16s4.4-6.5,7.92-3.75c-.11,14.79,2.72,4.52,4.6,17.08l3-4.19-2.13-5.94c3-.16,4.46-9.66,7.54-5.86l-1.53,5.46,5.26-3.09L729,285.79c2.13-6.86-2.43-15.87,1.95-12.88-.62,1.39,2.94-.26,5.53,6.94,0,0,0,0,0,0,.9-4.2,1.78-8.63,4.41-5.84,1.17,3.93,1.6,14,2.37,16.57-.11-10.69,6.6-4,6.64-15.45a49.49,49.49,0,0,0,1.26,10.62l-.16-8.71c1.82,2.51,2.24,3.78,2.88,9.06,4.43.85-4-15.66,2.09-9.65-.27.75.14,2-.45,3.42,2.78,1.37,4.94-.39,7-2.1s4.14-3.3,6.81-1.67c3.79,12.28-3.4,3.85.16,14.13,3.14-1.79,5.85-6.21,8.59-10s5.51-7,9-6.23l-1.49-1.11c-1.57-8.89.07-7,2.3-4s5.09,7,5.68,2.53c-.46,1.48,1.35,10,1.09,8,5.1,1.73,8-6.58,12.86-13.84l.46,4.68c3.69,3.24,7.4.34,10.78,1.48-.55-4.68,1.23-4.45-1.74-10.57,4.06,5.63,6.92,7.27,9,6.81s3.51-2.9,4.76-5.55,2.39-5.35,4.14-6.32,4.12-.21,8,4.17c-.86.39-.65,4.6.08,4.34l.76-1c.45-.6,1.06-1.41,1.65-2.24l2.35-3.29c-3.52-7-2.66-4-6.27-9.17-1-4.63-.72-8.66.73-9.26-.64,5.9,4.93,11.63,7.92,15.1-1.16-2.12-1.8-4.74-2.88-6.94,8.8,11.38-5.84-14.7,2.18-8l1.49,3.85c.75-2.62-.17-8.28,2-8,4.64,7.86.17,4.62,3.24,11.44,1.12-.82.46-5.28.24-8.62s0-5.6,3.09-2.09c.15,2.76-1.27,3.56-1.2,6.29,7.11,8.42,6.23,5.77,8.8,6.38l-.29-.12,3.22,1.06c1.62.54,3.25,1,3.25,1l-2.43-2c-4-11.31-3.1-13-1.5-14s3.84-1.16,1.79-8.95c1.9,7.41,2.75,9.37,3.84,10.56a19.25,19.25,0,0,1,4.79,6.17c2.49,1.85,5.77,3.63,6.8,6.39-1.14-4.14.51-3.24,2-2.85s3,.3,1-5.68c1.92,2.71,2.25-1,6.38,6.19,1.12-3.91-3.78-4.4-5.82-8.06-1.2-6,2.82-4.59,7-3.9,2,.32,4.08.46,5.38-.5s1.84-3,.75-7.14c.27-4.3-1.18-8.69-2.74-13s-3.16-8.44-3.21-12a16.22,16.22,0,0,1,5.24,6.08,22.7,22.7,0,0,1,1.66,3.9,9.81,9.81,0,0,0,3.21.72,2.44,2.44,0,0,0,1.83-.69c.82-.87.91-2.54.56-4.79,1.59,2.46,3.64,3.9,6.8,6.05,1-2.12-7.32-9.71-2-8.12,2.27,3,6,7.62,7.76,11.06a36.38,36.38,0,0,0-1.54-7.12,47.87,47.87,0,0,1-1.68-7c4.65,3.46,5.27,7.24,7.25,10.55.3-4,1.65-9.4-4.6-16.11l-1.83-.42-1.83-.44c.37-1,6.19,4.88,6.88,6.6,1.78,3.35.54,3.52-1.41,2.52a35.33,35.33,0,0,1-5.89-4.23l-.32-2.77c-7.75-6-8.23-4.22-7.44-.71s3,8.94,1.25,9.81l-4.34-5.63-4.39-5.6.89,1.7,1.9,3.75c1.36,2.73,2.68,5.51,2.68,5.51-3.08-2.16-8.76-7.69-9-10.34-3.25-1.76-2.76-.5-2.34.68s.79,2.28-2.54,0a4.45,4.45,0,0,1-1.56-1.89l.54,2.32.51,2.33c-1.6-2.54-6.8-7.32-4.43-6.65-4.17-1.81-3.61,1.18-3.12,3.83s.91,4.82-3,1.09l-.28-.89c-.66,3.56.78,5.73,3,8.49s5.12,6.14,6.95,12.39c0,0-4.48-4.65-8.87-9.38s-8.71-9.5-8.71-9.5l5.65,8.72c-.7,0-2.08.09-4.31-3.42,2.34,7.06,2.93,3.47,5.74,9.69-3.92-3.05-4.9-1.05-6.19.09s-2.89,1.33-7.59-5.46c3.37,7.2,5.6,3.66,6,9.92-5.15-7.27-5.45-6.18-5.33-3.92s.6,5.66-2.62,2.82c-4-8.3.49-5.31-5.86-11.06,3.35,7,1.81,6.95-.51,5.51s-5.45-4.27-5.63-2.48c3,5.42,2.55,7.11,1.27,8.11s-3.47,1.22-4.15,3.9c-1.68-3.76-9.09-3.06-13.89-5.84l-.77-1.92c4.58,11.6.45,10.94-.89,14.27-2.82-6.93-3.54-9.81-3.66-13.39l-2.08.93c1.05,3.9,1.19,6.12.33,8l-3-8.86c-1.28.83-1.68,3.92-2.54,6.3s-2.16,4-5.12,1.78c1.39,4.13,4.24,9.54,6.52,14.78s4,10.31,2.76,13.83c-1.77-4.36-4.66-11.88-4.23-14.09-.14.71.05,4.14-1.35,2.51l-1-8c-2.94-2.63,1.33,6.56-.36,6.38-2.22-6.34-2.65-4.14-4.22-9.23.13-.74,2.14,2.18,1.79-.5-2-.55-5.17-3.65-7.43-8.27,1.37,3.57,2.94,8.55,2.06,9.77-2.83,1.47-3.59-7.31-6.36-10,.74,4.66-2.61.65.39,10.23-.9.23-2.47-4.18-3.61-6.67-.18,4.74-6.81,3.37-2,13.1l.61.55c0,.22-.1.26-.14.5h0c-1.2,5.58-4.4,5-7.69,3.67s-6.72-3.39-8.81-.62l-.8-3.27c-2.21,4.47-6.4,3.89-7.1,11.42-1,.2-3.56-5.48-4-9.48-1.84,3-1.37,6.74-6,2.06,1.22-6.24-1.89-4.91,1.59-4.72-3.73-2.19-5.42-7.29-7,2.35-.54-8.65-4.4-10.18-5.38-7.36l3.33,5.62c-1.43,1.56-3,1.09-4.66.64L755.69,227c-4.37-6.19-6.1.07-8,5.15s-3.9,9-8.11-2c-.48,8.09,4.35,4.95,4.29,14.33-3.26-1-8.78-16.61-9.68-16.51-4.89-5.6-1.4,16.91-6.3,13.27,1.09,3.91,3.11,14.52.33,18.73-3.29-1.09-6-16.31-4.49-19.76.68-.43,1.2.79,1.35,2.16.79-1.57,1.83-3.46.06-7.64l.14,4c-2-3.89-6.14-2.94-6-9.63-1.78,4.1-.13,6.68,1.83,8.55-4.62-5.31-6.08.59-10.54-2.81.9,2.13,2.06,6.76,1.42,6.8-6.46-4.24-1.67,8-5.48,10.15-3-5.86-.87-14.68-4.3-9.12-2.91-3.87-1.71-10.58-1.12-14-2.76,8.12-7.32-4.35-9.5-5.55l1.55-3.44c-.92,2-1.86,2.09-2.8,2.18l1.92,7.91c-1.26-1.27-2.21-1.2-2.54-4.55-.61,5.38,2.27,13.25.7,20.7-1.91-3.9-4.18,4.83-5.74-5.77,5.09,3.18-1.57-10.65,2.23-12.75-.64,1.35-1.58,1.38-2.84.08a4.89,4.89,0,0,1,.19-2.86c-5.4-9.11-.88,12.24-5.59,12.43,0-6.06-2.14-11.3-2.77-9.95,1.88-.05,1.83,9.94.51,14.71-3.43-4.4-3,3.78-4.6,3.39l2,2c-.08,6.06-1.67,5.42-3.63,7.51-.58-4.66,1.65-3.4.72-5.39-1.47,10.79-6.22-10.53-8.89-3.14-1.83-4-1-11.29-2.57-14-3,8.08-4.54-7.94-7.86-1.2,1.67,8,1.74,6-.41,14.1l5.89-6.17-3.19,12.08c1.93,0,3.67-5.39,4.91-4.11-1.44,6.75-1.4,4.72,0,11.36-3.53-11.94-4.72,7.49-8.36-.5l-1.29-20c-5.1-8.66-7.37,10.78-13.59,6.1l2.1,3.37c-.32,8-3.59,1.34-5.32,4.69-.19-6.71-1.52-9.07-2.56-13.22.36,5-4.32-.25-4.19,13.17l-3.08-8.7c-4.92-3.39-4.57,19.37-9.32,17.31,1.09-7.36-1.2-12,1.65-17.37-1.53,0-3-1.15-2.79,3.49-1.06-4.17-3.91,9.18-5.57,2.86-.54,3-.5,10-2.26,9.5a17.25,17.25,0,0,1-.11-3.31c.11,3.31-2.57,4.6-.79,12-2.75-10.38-6-9.89-9.28-9s-6.4,2-8.67-6.94c-3.31,2.33-7.33,4.57-10.39,5.13.16-2,0-3.35.55-2.66-4.3-6.18-2.32,19.3-7.26,12.38-2.58-10.83,2.49-5.89.91-10-.91-22.08-5.77,3.07-9.1-9.8l.77-1.3c-2.49-7.48-6,8.43-10,6.83a18.47,18.47,0,0,0,0-3.34c-2.74,11.26-8,15-12,18.09,1.27-8.64,1.8-4.57,1.11-13.35-1.75,1.24.43,14.1-3.09,16.55-1.11-4.73-3.59-8.91-3.83-18.28l3.28-.46c-1.57-12.15-4.24.36-5.95-1.77l.28-5.29c-5,1.65-5.28,15-10.69,14l.49,4c-3.2,13.17-2.35-7.46-5.5,2.3l-.63-13.44c-2,3.19-7.12,12.81-10.71,15.25,2.25-9.9,6.46-14.9,9.1-20.74-1.92-.14-6.56.83-7.73,7.43.81-1.28,1.87-4.54,2.59-2.46-2.62,10.49-5.9,15.6-9.77,15.28,1.44-26-9.89-6.89-12-27.17-7.13,9.41-13.29-4.63-21.21-3.41,1.9,20.35-2.33.48-2.8,21.27-1.92,1.25-2.61.88-2.71-.48l-5-12.69c-1-6.11,2-4.49,2-9.16-3.94-1.8-1.25-8.89-3.63-14.54.17,7.45-1.94,10.56-4.08,7.61l2.73,9.74c-6.22,10.76-3.94-17.67-10.18-7l2.15-6.44c-3.12,3.7-10.67-.76-14.53,15.75-.37-2.43-.71-8.14.66-9.57-6.77-2.88-16.61,16.74-21.34,6.11l.88-5c-1.39,1.38-2.92,9.38-4.18,4.16.23-2.09.88-5,.3-5.36-.8,1.7-4.08,8.65-5.58,5.58l1.88-5.6c-6.25-7.11-11.39,13.08-17.39,16.11,1.21-14.92-3.69-20.19-6.12-22.81L378,221c-7.62-2.5-14.31,11.14-22.18,16.32-2.93-16.53-14.53-8.35-20.71-18.18.79,2.83-1.49,11.57-2.94,12.92-1.34-3.19-5.89,9.8-4-3.8l.57.32c.28-13.49-3.54-10.38-6.18-11.09l-2.64,17.76c-1.95-13.41-6.81-11.61-11.4-9.44s-8.85,4.68-9.11-7.19c-2.32,4.2-4.4,3.84-6.73,8l1.49-9.51c-4.31-3.12-6.43-4.65-12.54-3.23l2.24-6.63c-3.1-1.1-8.45,26.73-11.6,26.78l1.43-14.33c-2.85-.37-5.18-3.91-7.74-5.86s-5.39-2.31-9.34,3.59c.47-2.06,1.38-6.1,2.39-6.51-2.59-.87-8.31-11.53-11.09,8,2.36-12.62-5.53-2.36-9.73,2.59l2.35-9.2c-5,11.37-5.73,14.61-10,17.15-.61-1.39.81-7.58,1.44-5-1.81-5.49-4.07,8.29-6.48,2.58l2.55-5.63c-2.76-1.36-3.21,1.86-6.33,8.4-2.67,3.3-5.08-3.58-3.6-12-1.54,5-4.71,11.45-5.89,8.67a15.16,15.16,0,0,1,2.11-5.91c-1.71-3.69-4.15-1.38-6.32.55s-4.09,3.54-4.65-1.4a23,23,0,0,0,.78-5.63c3.76,1.2,6.73,2.47,6.29,3.05,2-8.48-.69-10.74,4.51-21.87-3.9,5.8-11.52,18.63-13.54,13.89a29.24,29.24,0,0,1,.34-3l.55-.87c-.48-1-1.29-.38-2.23.89-.6-1.63-.94-2.81-1.82-3.17,1.45-7.09-2.51-4.65-3.93-5.38-2.31,9.28-3.93,7.29-4.06,15.4-.07-.72.58-1,1.71-1.16a2.15,2.15,0,0,0,.91-.79l-.32.79a26,26,0,0,1,4,.35c-2.42,4.4-4.74,8-5.11,2.46-2.35,5.74-4.85,11.62-6.11,14.36,1.23-13.39-.87-21.52.76-29.59-6,3.85-11.74.32-19.79,16.7-2,1.83-.07-5.37.24-8.22,1.29-1.51,2.11-1,3.26-3.34-2,1.82-4.08,1.72-6.2,2.57s-4.28,2.69-6.45,8.58c-1.66-6.48,5.29-10.43.12-9.94L159,202.4c-1.42-11-7.37-4.49-13.47,1.21-3,2.83-6.1,5.57-8.46,5.68s-4.09-2.14-4.38-9.09a10.26,10.26,0,0,1-.31,4.58,11.47,11.47,0,0,0-7.37-6.28,22.88,22.88,0,0,0-4.6-.77l-2.4-.15-2.38-.2c-6.32-.59-12.48-2-14.41-12.48-1.66-4.56-5.09,2.61-9.39,7.36l3.43-9.71-7.94,9.41c-4,2.93-3.47-3.72-3.34-9.51s-.21-10.74-6.54-4.6l-2.23,6.59a2.82,2.82,0,0,0-1.87-.89A20.93,20.93,0,0,1,71,183c-1.39-.49-2.12-1.58-.21-5.07-.76,1-3.82,6.13-3,2.49l2.31-4.85-4.51,2.88-4.55,2.86c-1.06-2.71,1.52-7.38,3.7-11.85s4-8.73,1.53-10.56c-2.93.84-13.07,10.93-14,14.49.72.66.59,4-1.84,8.85l-3.25,1.5c-3.88,6.91-8.11,13.74-11.4,20.38s-5.63,13.1-5.61,19.3l8-6.8-2.35,7.41L32.6,223c-1.6,7.29,2.43,2.16,5.62-1.15-1.57,3.78-2.35,6.58-2.32,8.3l5.16-5.86,5.12-5.89c-2.32,5.76-7.05,10.2-6.2,14.46,4.75-5.47,4.6-13.23,9.33-16-1.49,7.29-4.54,12.33.14,7.8-1.5,3.81-3.05,5.93-4.64,7.14,3.94-3.51,5.64.56,10.2-6.66-2,8.85,7,.66.58,14.18,2.09-3,8.12-9.24,10-9.07-10.42,15,5.79,3.77-2.78,21,4.4-6.86,7.16-7.58,9.78-7.38s5.17,1.15,8.91-2.15c-.72,1.09-2.16,3.31-2.2,2.4,1.77,2.17.58,6.93.92,10.36,5.35-12.21,10-13.6,14.94-20.48C93.2,247,87.71,247.82,84,259.63c3.88-10.08,8.88-8,11.2-16.8-.77,8.27.42,4.33-2.45,15.09,6.37-15.4,3-1.79,8.47-10.73.21,8.81-4.7,14.9.54,11.41a12.53,12.53,0,0,1-2.68,6.91A18.37,18.37,0,0,1,96.46,268.37Zm91.52-1.9,0,.18-1.83.1C186.5,266.71,187,266.65,188,266.47Zm7,1.6A7,7,0,0,0,192,267c.54-3.26,1.61-6.5,2.26-6.16C193.39,262.85,194.56,265.1,194.94,268.07Zm2-67.8c1.35-1.06,1.21.85.87,2.78a5.6,5.6,0,0,0-2.06.66l-.41,1.1C195.89,203.07,196.43,201.44,196.94,200.27Z" transform="translate(-17.87 30.58)"/><path class="cls-1" d="M192,211.94c-.2.17-.39.53-.6.57,0,.87,0,1.61.07,2.23l1.12-2.81C192.34,211.94,192.14,211.92,192,211.94Z" transform="translate(-17.87 30.58)"/><path class="cls-1" d="M803,236.92l-.2-.17a6.85,6.85,0,0,1,.67,1.22C803.24,237.56,803.15,237.27,803,236.92Z" transform="translate(-17.87 30.58)"/><polygon class="cls-1" points="270.81 334.77 271.13 332.38 270.22 334.38 270.81 334.77"/><path class="cls-1" d="M850.25,254.75a8.46,8.46,0,0,0,1.47,2A11.47,11.47,0,0,0,850.25,254.75Z" transform="translate(-17.87 30.58)"/><path class="cls-1" d="M867.21,249.1,871,251A12.91,12.91,0,0,0,867.21,249.1Z" transform="translate(-17.87 30.58)"/><path class="cls-1" d="M881.72,246.55c-.69-1.54-1.29-2.65-1.83-3.67l-.06,0Z" transform="translate(-17.87 30.58)"/><path class="cls-1" d="M678.19,308.91a.92.92,0,0,0-.46.48C676.71,311.34,677.45,310.54,678.19,308.91Z" transform="translate(-17.87 30.58)"/><path class="cls-1" d="M736.51,279.89a27.19,27.19,0,0,1-1.32,4.74C736.37,285.21,737.24,285.28,736.51,279.89Z" transform="translate(-17.87 30.58)"/><path class="cls-1" d="M610,324.63v-.17a1.79,1.79,0,0,1-.43,0Z" transform="translate(-17.87 30.58)"/><path class="cls-1" d="M732.34,284.86c1.34,1.74,2.19,1.21,2.85-.23C734.22,284.12,733,283.3,732.34,284.86Z" transform="translate(-17.87 30.58)"/><path class="cls-1" d="M933.58,210.71l.78-.26a9.77,9.77,0,0,1-1.08-1.1Z" transform="translate(-17.87 30.58)"/><path class="cls-1" d="M933.28,209.35,933,208C932.73,208.28,932.58,208.56,933.28,209.35Z" transform="translate(-17.87 30.58)"/><path class="cls-1" d="M932.29,205.17l.36,1.43L933,208C933.4,207.61,934.09,207.27,932.29,205.17Z" transform="translate(-17.87 30.58)"/><path class="cls-1" d="M916.59,221.25l2.14,2.74A24.42,24.42,0,0,0,916.59,221.25Z" transform="translate(-17.87 30.58)"/><path class="cls-1" d="M912.83,225.83c1.54-.29,7.53,3.34,7.6.35L918.74,224c1.37,2.25-.84,1.43-3,.65S911.45,223.16,912.83,225.83Z" transform="translate(-17.87 30.58)"/><path class="cls-1" d="M869.72,204.66l4.82.07c-2.69-2.63-6.2-6.25-5.29-7.93-5.09-3.21-3.69-1.66-1.68.92S872.27,203.83,869.72,204.66Z" transform="translate(-17.87 30.58)"/><path class="cls-1" d="M856.68,206.43c.9-2.53-2.71-4.62-3.65-6.49C853.63,203.49,853.75,204.41,856.68,206.43Z" transform="translate(-17.87 30.58)"/><path class="cls-1" d="M773.42,236.6l-1.65-8.54C770.42,229.64,772.47,231.36,773.42,236.6Z" transform="translate(-17.87 30.58)"/><polygon class="cls-1" points="746.46 314.85 749.2 319.84 748.58 311.85 746.46 314.85"/><polygon class="cls-1" points="725.38 255.63 725.89 254.28 723.66 257.84 725.38 255.63"/><path class="cls-1" d="M588.76,241.3l.79,10.7C590.68,250.05,590.61,238,588.76,241.3Z" transform="translate(-17.87 30.58)"/><path class="cls-1" d="M520.75,252.44c-.66-5.36-2.51-8.83-3.79-3.59C518.48,249.61,519.94,253.81,520.75,252.44Z" transform="translate(-17.87 30.58)"/><polygon class="cls-1" points="300.39 252.03 302.17 248.64 299.28 251.28 300.39 252.03"/></g><g class="cls-2"><path class="cls-1" d="M218.27,266.44c.85-2.8,2.51-9.23,1.9-8l-3.1,10.81Z" transform="translate(-17.87 30.58)"/><path class="cls-1" d="M221.81,245.81c-1.73,5.18-4.58,14.35-7,24.39,3.11-10.36,2-6,5.69-18.33.61-1.19-.45,3.62-1.57,7.6.84-2.76-.21,2.5,1.76-4.28,1.89-8.51,1.53-9-.8-2.14C220.39,250.62,221.25,247.81,221.81,245.81Z" transform="translate(-17.87 30.58)"/><path class="cls-1" d="M199.83,221.66l-.19,1.33A6.09,6.09,0,0,0,199.83,221.66Z" transform="translate(-17.87 30.58)"/><path class="cls-1" d="M185.39,211.08a10.33,10.33,0,0,0,.87-2.25A11.83,11.83,0,0,0,185.39,211.08Z" transform="translate(-17.87 30.58)"/><path class="cls-1" d="M186.25,198.38c0,.36,0,.53-.06.78C186.43,198.15,186.53,197.58,186.25,198.38Z" transform="translate(-17.87 30.58)"/><path class="cls-1" d="M199.83,221.66l.52-3.53C199.33,221.65,199.83,220.82,199.83,221.66Z" transform="translate(-17.87 30.58)"/><path class="cls-1" d="M211.11,271c.23-.5.58-1.49,1-2.79-.2.45-.38.82-.53,1.09Z" transform="translate(-17.87 30.58)"/><path class="cls-1" d="M209.44,214.85l.14,0,1.32-4.38Z" transform="translate(-17.87 30.58)"/><path class="cls-1" d="M215.41,214.69c0-.43-2.56,8.78-3.7,12.79,1.1-3.78,1.68-5.56,2-6.25C214.18,219.48,214.73,217.38,215.41,214.69Z" transform="translate(-17.87 30.58)"/><path class="cls-1" d="M219.86,233.3l.5-1.24C220.22,232.45,220,232.8,219.86,233.3Z" transform="translate(-17.87 30.58)"/><path class="cls-1" d="M206.06,211.77l.86-3.3C206.6,209.62,206.31,210.73,206.06,211.77Z" transform="translate(-17.87 30.58)"/><path class="cls-1" d="M21.24,185.59l1.45-.89A6.93,6.93,0,0,0,21.24,185.59Z" transform="translate(-17.87 30.58)"/><path class="cls-1" d="M58.47,155.27l.5-.15,4.78-2.41Z" transform="translate(-17.87 30.58)"/><path class="cls-1" d="M185,185.19l0,.18C185.41,184.38,185.28,184.54,185,185.19Z" transform="translate(-17.87 30.58)"/><path class="cls-1" d="M140.81,176.73c-3,8-5.13,9.74-8.23,18.73C134,192,139.15,182.06,140.81,176.73Z" transform="translate(-17.87 30.58)"/><path class="cls-1" d="M211.29,269.79c-.1.08-.2.14-.26,0C211.05,270.16,211.13,270.14,211.29,269.79Z" transform="translate(-17.87 30.58)"/><path class="cls-1" d="M132.58,195.46l0,.07-.28.85Z" transform="translate(-17.87 30.58)"/><path class="cls-1" d="M172.32,187.17c-.51,1.6-.87,2.83-1.2,4C171.42,190.24,171.77,189.09,172.32,187.17Z" transform="translate(-17.87 30.58)"/><path class="cls-1" d="M176.39,202.77l.18-1.28A4.39,4.39,0,0,0,176.39,202.77Z" transform="translate(-17.87 30.58)"/><path class="cls-1" d="M163.77,198.52c.13-.73.51-2,0-.83l-.33,1.12C163.87,197.6,164.14,197,163.77,198.52Z" transform="translate(-17.87 30.58)"/><path class="cls-1" d="M159.31,197l-.56,1.84.31-.43Z" transform="translate(-17.87 30.58)"/><path class="cls-1" d="M37.91,200.63c1.94-1.87,4.13-3.86,6.32-5.82C39.14,199.3,36.62,200.1,37.91,200.63Z" transform="translate(-17.87 30.58)"/><path class="cls-1" d="M212.49,265.86c-.65,2.32-1,3.46-1.21,3.94a2.66,2.66,0,0,0,.29-.45C212,268,212.31,266.68,212.49,265.86Z" transform="translate(-17.87 30.58)"/><path class="cls-1" d="M139.21,269.8l-.36-1.61C138.78,269.15,138.92,269.7,139.21,269.8Z" transform="translate(-17.87 30.58)"/><path class="cls-1" d="M74.38,230.12l-.81.84C73.53,231.19,73.74,231,74.38,230.12Z" transform="translate(-17.87 30.58)"/><path class="cls-1" d="M136,268.69c1-3.23,1.46-5.13,1.72-6.39-.28.7-.52,1.26-.91,2.29Z" transform="translate(-17.87 30.58)"/><path class="cls-1" d="M44.3,194.74l-.07.07Z" transform="translate(-17.87 30.58)"/><path class="cls-1" d="M21.94,203.18c.5,1.11,10.06-7.07,15.91-11.29,3.56-1.22-6.94,6.14-11.72,10.48,3.16-1.36,12.51-8.08,12.49-7.35-1.58,1.33-2.09,1.9-4.19,3.43,4.15-2.83,4.62-2.46,5.36-2.27s1.74.18,6.8-3.55c-.8.77-1.58,1.48-2.3,2.12,4.69-4.2,9.55-8.36,13-11.29.42.16,6.47-4.65.35.83,0-.34-2.49,1.81-4.51,3.4l3-2c-8.66,8-3.46,2.23-10.09,7.92,3.52-1.8,11.46-7.55,9.37-4.87-8.51,7.81-3.92,1.41-11,8.9L47,193.89c-13.19,12.61.5-1.35-13.67,12-1.46,3.42,5.55-2.58,4.06.83,5-4.07,6.95-6.48,11.89-10.57,4.9-3.21-.18,2-4.88,6.86s-9.06,9.43-2.95,4.7c5.85-5,16.44-15.08,11.59-9l-9.6,8.86c.1,2,13.93-12.6,8.67-5.41-3.8,3.46-3.81,2.28-4.77,3.53-6.63,8,5.72-4.75,6.19-4.26l-8,8.33c2.36-.15,9.33-5.17,11.86-5.68a81.25,81.25,0,0,0-7.19,7.78c2.72-1.42,3.26-.44,2.79,1.74a58.11,58.11,0,0,1-3.4,8.81l7-7.11a33.18,33.18,0,0,1-4.06,5c-1.84,3.39,4.11-4.81,6.92-7.58.77-.27-3.25,4.76-5.38,6.88a64.63,64.63,0,0,1,8.94-6.82c2.08-1.1,2.61-.34-.15,4.28l-2,2.17c-1.61,3.87,13.51-15.43,8.55-7.51l-1.22,1.29c-.43,2.38,1.24,2.13,2,2.9s.74,2.6-2.9,9.23c4.3-5.76,3.82-4.15,3.75-3.12s.25,1.48,6-6.73C72.46,224.23,70.13,227,68,233.58c-.08,1.06,7.57-10,9.2-11.41l-5.76,8.76,6.71-8.73-6.48,10.73,1.94-2a47.05,47.05,0,0,1,3.83-6.71c3.28-3.55-2.18,7.24-5,11.81l3.26-3.19,3.22-3.21a62,62,0,0,1-5,6.73c6.61-8.49-5.65,9.49.41,1.72,1.13-2.1,3.34-5.27,4.47-7.06-2.9,5.66-1.9,6.35.2,4.51l-3.86,6.11c.44,2.39,4.63-1.32,6.06-.34,1.12-3.23,7.5-14,8.5-14.83l-5.32,9.72c3.66-5.79,1.63-3.88,6.33-10.85-.12,1.41-5.85,11.16-8,14.12l2.57-3c-1.58,2.9-2.6,4.33-4.72,8,3.64-5.84-4.21,10.39,2,.2L81,247.59c1.5.92,4-2.06,5.51-1.9,4.53-8.43,4-6.3,8-12.94-.59,3.15-3.07,10.34-1.61,10.18,2.91-3.87,3.9-7.11,6.8-12-3.9,7.78-2.47,7.58-5.84,12.89,1.91-.64,2.44-.73,7.13-6.3a77.68,77.68,0,0,1,3.3-7.4c.9-1.15-1,3.59-2.84,7.34l-.47.78c3.73-5.44,2,.77.52,6.39s-2.57,10.69,1.95,2.78l-.46.78,5.41-7.92c.06,1.68-3.11,5.77-4.83,10.92,3.81-6.25,4.21-5.48,4.35-4.19s0,3.13,2.6-1c-4.63,12-3.48,12-1.88,10.93s3.68-3.18,1.24,4.67l2.24-5.62c2.63-5.33-.89,3.37-1.15,4.77,1.76-4.36,1.69-5.18,3.17-8.13,5.75-5.53,2.94,10.74,4.12,17,.57,2,11.82-29,8.06-15L121.92,265c3.53-5.85,4.62-5.34,5.63-4.56s1.94,1.79,5-3.18c-1,2.39-2.17,5.55-2.37,5.43-2.32,7.84,1.59,1,3.85-5.27.08.83-2,5.69-2.9,9-1.15,4.7,4.68-9.39,2.2-1.66a19,19,0,0,1-1.32,3c1.63-3.61,1.09,1.46,3.94-7.52-.67,4.53,3-3.38,1.76,2.1,3.89-9.79-.26,5.27,4.75-8.75-5.1,14.51-2.61,12.22.25,5.55-1.68,4.34-1.11,4.72-3.39,10.73.67,0,2.13-2.51,4.57-10-4.79,17.82,6.88-13.31,0,9.25,4.38-7.26,7.72-12,10.37-15-4.79,14.57-2.18.9-7.12,16.21,3.48-5.5,8.36-17.77,8.68-13.78-.26,2.12-2.25,6.27-3.18,8.72,3.4-5.55,2.46,2.26,6.27-5.3a37.42,37.42,0,0,1-1.53,3.88c.41-.39-.07,2.33,2-4.32l-.82,1.72c2.63-9.78,7.34-19.85,9-24.94-6.39,18.94-.23,5.19-8.43,29.08a76.2,76.2,0,0,0,3.1-8.75c-.15,1.37-.88,4-2.71,9,2.05-3.34,3.91-10.52,4.7-10.11-1,3.23-1.55,4.42-2.81,8.18,2.37-6.15,4.72-12.32,4.58-9.37-.64,1.93-1.33,4.49-1.53,4.37,1.51-.6,7.15-16.15,6.6-9.67-4.62,13.92-.95,4.75-4.54,16.93l1.8-3.41,1.49-6c.56.4,3.75-8.3,3.09-4.16l-2,4.87,1.85-2,.72-4.81c2.49-6.09,4.52-15.41,4.32-11.79-.53,1.19.56.32-1.25,7.59v0c1.45-3.79,3-7.77,2.52-4.62-1,3.93-4.06,13.44-4.75,16.05,3.3-10.09,2.28-2.4,5.83-13.14-.87,2.51-2.75,8.91-3.09,10.23l2.67-8.21a67.39,67.39,0,0,1-2.36,9.11c.42,1.77,4.24-15.54,3.3-8.58-.27.65-.6,1.9-1.13,3.1,0,3.77,3.48-4.69,3.24-.34-3.26,12.36-1.68,2.77-4.35,13.21,2-1.83,7-13.9,7.5-10.65l.14-1.43c5.1-17.29-1.47,8.85,1.51.86-.52,1.23-2.93,9.57-2.34,7.64.11,3,3-3.75,5.91-8.83l-1.42,4.41c-.59,4.13.75,2.69.75,4.87,1.41-4.41,1.53-3.6,3.14-10.14-5.3,25.91,7.09-12.71,2.79,8.9a16.33,16.33,0,0,0-1.37,3.84l2.45-3.75c2-7.6,1.08-4.63,2.42-10.61,1.4-4.45,2.72-7.83,3-7.74-2,4.86-3.33,12.17-4.23,16.47.59-2.33,1.38-4.87,2-7.24-3,13.67,4.28-15.22,2.73-5.88l-1.14,4c.91-1.94,2.66-7.11,2.73-5.87-2.23,8.81-1.49,4-3.48,11.2.67-.36,5.57-16.33,3.67-7.46-.89,2.38-1.22,2.33-2.11,4.7-2.28,10.44-1.5,7.84-1.56,9.58l0-.24-.36,4.91.53-2.85c6.87-22.69,2.49-3.81,7.44-18.56-4.7,13.95-2.36,8.17-5.12,18.09a78.63,78.63,0,0,1-1.86,8.78c2.59-7.91-1,6.51,2.77-5.06-.84,3.2.37.43-1.89,8.45,1.23-2.37,1.37-5.61,2.5-9.61,3.79-10.7-1.57,13.8,3.69-.87,2.71-5.9,5.8-16.65,8.21-21.77a94,94,0,0,1-3.39,11.59c-.73,4.86-.1,4.1,1.38.57-.85,2.76-1.38,5.16-2.19,8.79.62-.73,3.39-11.59,2.65-6.72-1,3.55-2.69,9.23-3.84,12.76,1.26-2.82,3.33-8.68,4.59-11.44-1.36,5.62-2.56,8.39-3.71,12,1.22-2.37,2.78-4.68,5.31-13.47l.49-3.25c.31-.36-1.93,7.62-2.51,9.19-2.32,6.8.14-3.24,1-6.47l.9-2c4.67-18.88-2.2,2.64-2.61,1.36l3.95-13.59-3.75,11.15c.8-3.59,2.74-11.26,3.63-13.21,1.31-6.88-1.74,4.74-.16-2.9a19.33,19.33,0,0,1,.65-2.36l-1.58,3.93c.87-2.84,2.5-9.67,2.27-7.61,1.24-8.12-4.16,9.87-1.72-.57l.3-.82c-2.46,4.29-2.81,10-6.89,21.52l6-24.9-2.81,10c0-.39-.08-1.21,1-5.21-2.31,6.74-1.09,4.38-3.11,10.79,1.85-9.29-2.82,3.82,1.35-12.18-2.27,7.55-1,6-3.08,11.15,4.45-17.22-1.54,2.74,0-5.29,2.56-8.82,1.82-4,3.4-12-4.38,14.89-.18-3.57-1.42-.83-3.25,11.92-2.36,4.7-4.21,8.46,1.14-4,.32-7,.78-11.46l.57-2c-3.43,12-3.55,9.53-4.78,11.88,2-7.21,2.87-10,4-13.17l-.52-.08A41.34,41.34,0,0,1,207,222l2.6-9c-.81.31-4.27,10.22-3.48,4-2.37,8.38-5.74,23.57-8.22,28.91,1.22-4.55,3.33-12.32,4.08-14.11-.24.57-1.32,3.69-.95,1.71l2.48-7.53c.53-3.46-2,6.32-2.09,5.52,1.79-6.47,1-4.68,2.51-9.81.25-.6-.46,2.75.36.24a55.7,55.7,0,0,1,1.81-10.15c-1,3.69-2.41,8.71-2.91,9.48-.81.28,1.93-7.85,2.46-11.28-1.41,4.44-.54-.33-3.24,9.34-.18-.1,1-4.62,1.69-7.26-1.53,4.17-2,.76-4.44,11.16l-.1.7c-.07.2-.1.2-.18.41h0c-3.84,9.29-.85-6.14-3.14-2.32l.92-3.24c-1.72,3.5-2.12,1.76-4.58,8.57-.2-.07,1.2-6,2.39-9.85-1.2,2.28-2.3,5.89-1.52.35,2.13-5.48,1.25-5,1.71-4,.13-3,1.47-8.19-1.78.43,2.62-8.19,2.5-10.55,1.47-8.17l-1.24,6c-.7,1.1-.8.28-.91-.51l3.31-10.82c2.5-13.6-9,21.78-3.54-.63-2.58,7.49-.84,5.56-3.75,14.35-.1-.82.83-5.18,1.77-9.34l1.28-5.63.4-1.83a3,3,0,0,0,.11-.71c.94-6.26-5.47,15.62-5.14,11.25-1,3.89-4,14.26-5.75,17.7-.21-1.62,4.06-16.45,5.38-19.43.25-.28,0,1-.44,2.28a31.89,31.89,0,0,0,2.38-7.19l-1.23,3.84c.86-4-.1-3.88,2-10.16A28.57,28.57,0,0,0,187,203.7c.89-5.84-1.18-.54-.86-4.54a66.14,66.14,0,0,1-1.88,6.66c.25-5.14-2.74,7.17-4.07,8.61,1.32-6,4.43-14,2.12-9.32.72-4.13,3-10.27,4.17-13.36-3,7.22.13-5.3.15-6.79l1.33-3c-.79,1.78-1,1.67-1.14,1.59l-2.16,7.78a17.21,17.21,0,0,1,1-4.71c-1.79,5-3.77,12.88-6.37,19.65.91-4-2.23,3.91.84-6.34-.13,3.77,3.08-10.31,4.39-11.71-.53,1.17-.7,1.07-.5-.36a22.23,22.23,0,0,1,.93-2.68c2-9.42-4,11.44-4.86,10.91,1.92-5.72,3.2-11,2.66-9.81.33.23-2.82,9.67-4.55,14,.8-4.67-1.7,3.13-1.86,2.51l-.3,2.22c-1.93,5.71-2,4.87-3,6.54,1.38-4.49,1.36-3,1.83-5-3.67,10,2.26-10.81-.55-4.2.94-4,3.41-10.81,4-13.54-3.1,7.22,1.75-8.12-1-2.2a82.63,82.63,0,0,1-4.58,13.26l3-5-4.41,11c.35.23,2.36-4.59,2.17-3.21a71.35,71.35,0,0,0-3.62,10.74c3.19-11.76-3.22,6.41-1.32-1.61l6.2-19.1c1.88-8.8-4.77,9.29-4.36,4.09l-.72,3.44c-2.65,7.53-1.07.82-2.46,3.77,2.14-6.36,2.67-8.75,3.83-12.78-1.55,4.73-.69-.71-5,12l2.28-8.56c.23-3.74-7.17,17.78-7.36,15.29,2.61-6.82,3.74-11.46,6-16.2-.27-.17-.15-1.42-1.65,3,1.18-4-3.74,8.27-2,2.14-1.08,2.75-3.4,9.38-3.56,8.74.4-1.3,1.08-3.13,1.08-3.13-1.07,3.13-2,4.08-4.12,11.21,5.89-20.13-3.18.53,2-16.75-1.4,1.9-2.91,3.65-3.67,3.9.71-1.88,1.13-3.15,1-2.45,1.29-6.17-7,18-5.61,11.06,3.2-10.38,2.49-5.34,3.58-9.31,7.37-20.83-2.15,2.44,1.63-9.92l.59-1.16c2.12-7.22-4,7.44-4.25,5.66,0,0,.72-1.82,1.16-3.13-4.43,10.37-6.77,13.48-8.64,16.12,3.28-8,2-4.15,4.9-12.43-.78,1-4.86,13.24-6.42,15.28,1.44-4.51,2.42-8.56,5.68-17.35l.8-.24c4-11.46-.94.08-.53-2l1.93-4.93c-1.54,1.25-6.35,13.71-7,12.41l-1.34,3.79c-5.36,12.1,2.22-7.13-1.92,1.82l4.71-12.57c-1.54,2.87-6,11.58-7.65,13.64,4.06-9.09,6.69-13.53,9.32-18.84-.33-.23-1.58.45-4.2,6.53.62-1.15,2-4.13,1.39-2.15-4.31,9.64-6.84,14.21-7.5,13.69,9.85-24.08.55-6.86,7.73-25.74-4.92,8.4-.77-4.78-2.69-3.93-7.53,18.8-.63.36-8.81,19.47-.87,1.07-.87.7-.36-.55l4-11.81c2.21-5.64,2.15-4.06,4-8.35,0-1.75,3.27-8.18,5.07-13.42-2.92,6.83-4.56,9.64-3.77,6.87l-3.37,9c-5.49,9.67,6.33-16.29.92-6.72l3-5.82c-2.07,3.3-1.6-.88-9.15,14a92.72,92.72,0,0,1,4.07-8.68c0-1.4-2.56,2.35-4.66,5.18s-3.79,4.78-2-.05l2.32-4.52c-.85,1.22-4.59,8.39-2.58,3.67.95-1.88,2.33-4.51,2.37-4.82-.88,1.52-4.52,7.7-3.48,4.91l2.8-5c1.95-6.46-8,11.62-10.55,14.18,6.89-13.29,8.34-18,9.09-20.37l1-1.86c-.14-1.12-2.08,1.36-4.53,4.66s-5.38,7.45-7.39,9.67c3.61-7.29,3.9-9.09,3.69-10.14s-.92-1.36.9-5.57a128.65,128.65,0,0,1-7,11.18c1.31-2.74-6.08,8.45,1.07-3.27l0,.28c6.79-11.63,4.49-8.85,4.31-9.4l-9.52,15.23c6.34-11.44,4.48-9.77,2.36-7.86s-4.39,4.11,1.82-5.82c-2.71,3.59-3,3.35-5.71,6.91l5.39-8c.76-2.46,1.17-3.64-.9-2.27l4.1-5.54c0-.76-16.52,22.33-17.34,22.46l8.24-11.78c-.44-.19,1-3,1.56-4.45s.15-1.63-4.15,3.29c1.29-1.67,3.82-5,4.28-5.34-.12-.57,4.73-8.6-7.3,7,7.88-10.12.08-1.54-3.91,2.5l6-7.33c-7.92,9.16-10,11.71-12.68,13.87.66-1,4.72-5.93,3.33-3.94,2.78-4.14-6,6.65-3.31,2.36L99,166.2c.07-.89-2,1.63-6.78,6.82-2.74,2.66.72-2.51,6.29-9-3.47,3.91-8.29,9-6.9,6.89,2.11-2.46,3.52-3.89,4.2-4.59,1.82-2.71-.22-.85-2,.73s-3.39,2.91-.48-.74c2.11-2.32,3.15-3.51,3.74-4.24a1.53,1.53,0,0,1-.13,1.84c5.8-6.53,6.51-8,14.81-16.72-2.31,2.34-6,6.07-8.79,8.75s-4.78,4.35-3.56,2.68l2-2.26.7-.68c.51-.71-.11-.18-1.18.83a11.48,11.48,0,0,0,1.51-2.17c4.93-5.29,2.31-3.17,2.38-3.58-6.62,6.9-5.81,5.56-11.06,11.45a3.21,3.21,0,0,1,1.24-1,6.93,6.93,0,0,0,.77-.64l-.59.59a2,2,0,0,1,.93,0c-3.48,3.39-6.49,6.18-3,2.14-4.36,4.34-8.87,8.76-11,10.82,8.94-9.89,13.57-15.49,19.32-21.36-4.29,3.27-3.61,1.36-17,13.3-1.86,1.4,3.54-3.74,5.54-5.73a40.07,40.07,0,0,0,3.24-2.56c-3.66,2.83-2.24.3-11.57,8.64,3.79-4.28,8.76-7.52,6.72-6.76l2.92-2.49c7-7.25.72-2.27-5.29,1.93-3,2.12-5.89,4.07-6.89,4.36s-.1-1,4.64-5.43c-1.16,1.09-1.69,1.6-3.3,2.94,3.79-4.4,1.13-3.51-1-3.3-1.06.12-2,.09-1.77-.71s1.58-2.41,5.05-5.31c2.73-2.46-4,2-9.26,5l8.53-5.72-5.13,3-5.15,2.94c-3.92,1.94,1.17-1.8,5.5-4.91a57.39,57.39,0,0,0,4.64-3.53c.53-.55-.38-.24-4,1.62l-5.89,3.64c.94-1-4.17.88,2.78-3-1.11.59-6.33,3.43-3.26,1.52L76,149.55l-4.25,1.83-4.28,1.77c1.51-1.29,6.22-3.77,10.6-6.15s8.42-4.6,8.68-5.21c-1,.35-4.57,2-8.32,3.66s-7.65,3.5-9.22,4.39c-.15.27-2.77,1.91-7.54,4.4l-2.71.89c-7.07,3.56-14.27,7.07-20.86,10.47a135.62,135.62,0,0,0-17.06,10l4.57-1.74,4.55-1.78L23.56,176l-.89-.63c-6.13,3.86-.29,1.21,3.75-.55a73.74,73.74,0,0,0-7.21,4.45l6.91-3.12L33,173c-5.34,3.13-11,5.5-13.6,7.85,6.38-3,11.9-7.18,16.31-8.72-6,4-11.18,6.76-5.54,4.25a52.17,52.17,0,0,1-7.5,3.94c4.53-1.92,2.55.33,9.95-3.69-3.69,2.49-3,2.62-2.92,3.05s-.59,1.19-7,5.07c3.17-1.69,10.57-5.3,11.36-5.23-15.71,8.73.14,2.16-16.17,12.35,7-4,8.84-4.48,10-4.37s1.58.78,5.6-1.25c-1.09.67-3.31,2-2.69,1.46C30,189,26.17,192,23.94,194.1c11-7.53,14.09-8.46,21.06-12.85a115.6,115.6,0,0,1-11.46,8.37c-3.24,2.09-6.49,4.06-11.42,7.77,8.76-6.31,9.66-5.08,16.74-10.62-6,5.21-2.79,2.71-11.46,9.56,13.44-9.84,2.65-1.18,11.15-6.9-6,5.69-12.27,9.64-7.61,7.42a40.94,40.94,0,0,1-5.89,4.5C23.27,202.49,21.94,203.18,21.94,203.18Zm37.62-1.38-.13.14-.69.1A7.06,7.06,0,0,0,59.56,201.8ZM61,202.91a.66.66,0,0,0-.32-.8c2.18-2.47,4.52-4.94,4.53-4.7A48.88,48.88,0,0,0,61,202.91ZM103.9,152.4c1-.88-.21.51-1.54,1.95a5.85,5.85,0,0,0-1,.65l-.82.83Z" transform="translate(-17.87 30.58)"/><path class="cls-1" d="M95,161.26c-.17.14-.45.41-.54.45l-1.41,1.62,2.12-2.12A1.5,1.5,0,0,0,95,161.26Z" transform="translate(-17.87 30.58)"/><path class="cls-1" d="M199.61,223.21l0-.22c-.08.37-.15.73-.3,1.33Z" transform="translate(-17.87 30.58)"/><polygon class="cls-1" points="52.2 263.52 53.53 261.5 52.23 263.17 52.2 263.52"/><path class="cls-1" d="M198.71,257c-.21.81-.41,1.66-.54,2.39C198.33,258.77,198.52,257.93,198.71,257Z" transform="translate(-17.87 30.58)"/><path class="cls-1" d="M201.57,260l-.41,3.42A31.85,31.85,0,0,0,201.57,260Z" transform="translate(-17.87 30.58)"/><path class="cls-1" d="M203,265.28l1.12-3.94v-.06Z" transform="translate(-17.87 30.58)"/><path class="cls-1" d="M157.36,263.83a1.14,1.14,0,0,0-.23.38C156.33,265.9,156.71,265.25,157.36,263.83Z" transform="translate(-17.87 30.58)"/><path class="cls-1" d="M176.52,246.32c-.62,1.62-1.24,3.22-1.68,4.21C174.85,251.3,175,251.53,176.52,246.32Z" transform="translate(-17.87 30.58)"/><path class="cls-1" d="M139.25,270l.06-.16s-.06,0-.09,0Z" transform="translate(-17.87 30.58)"/><path class="cls-1" d="M174.3,250.2c-.32,1.9,0,1.55.53.33C174.83,249.86,174.89,248.86,174.3,250.2Z" transform="translate(-17.87 30.58)"/><path class="cls-1" d="M213.21,272.53l0,.41.41-1.48Z" transform="translate(-17.87 30.58)"/><path class="cls-1" d="M213.64,271.46l.43-1.05C214,270.39,213.94,270.44,213.64,271.46Z" transform="translate(-17.87 30.58)"/><path class="cls-1" d="M215,268.16l-.92,2.25C214.17,270.45,214.22,270.78,215,268.16Z" transform="translate(-17.87 30.58)"/><path class="cls-1" d="M210.89,267.33l-.94,3.34C210.16,270,210.46,268.9,210.89,267.33Z" transform="translate(-17.87 30.58)"/><path class="cls-1" d="M209.57,268c0,.83-1.28,7.31-.37,5.31l.75-2.65C208.45,275.6,211.33,262.43,209.57,268Z" transform="translate(-17.87 30.58)"/><path class="cls-1" d="M216.31,225.46l.15,2.9c.8-3.6,1.89-8.45,2.52-9.2C220.75,208.24,217.07,227.21,216.31,225.46Z" transform="translate(-17.87 30.58)"/><path class="cls-1" d="M215,219.56c.92-1.53,1.39-5.18,2-7.18A27.79,27.79,0,0,0,215,219.56Z" transform="translate(-17.87 30.58)"/><path class="cls-1" d="M195.65,214.17l2.43-8.34C197.38,206.92,197.15,209.06,195.65,214.17Z" transform="translate(-17.87 30.58)"/><polygon class="cls-1" points="161.62 286.88 160.48 292.17 162.86 284.57 161.62 286.88"/><polygon class="cls-1" points="176.72 226.75 177.21 225.6 175.75 228.46 176.72 226.75"/><path class="cls-1" d="M162.89,189.35l-3.44,10.15C160.32,197.76,164.33,186.41,162.89,189.35Z" transform="translate(-17.87 30.58)"/><path class="cls-1" d="M146.17,194.81c1.79-5,2.68-8.4.55-3.58C146.74,192,145.52,196,146.17,194.81Z" transform="translate(-17.87 30.58)"/><polygon class="cls-1" points="101.96 193.37 104.04 190.44 102.11 192.76 101.96 193.37"/></g><g class="cls-2"><path class="cls-1" d="M647.29,303c-.47-2.89-2-9.35-2.17-8l2.07,11.05Z" transform="translate(-17.87 30.58)"/><path class="cls-1" d="M639.75,283.26a200.09,200.09,0,0,0,4.46,25c-1.69-10.68-.62-6.3-2.74-19,.18-1.37,1.57,3.37,2.36,7.43-.45-2.85,1.25,2.27,0-4.68-2.46-8.39-3.26-8.59-2.55-1.39C640.59,288.2,640.14,285.3,639.75,283.26Z" transform="translate(-17.87 30.58)"/><path class="cls-1" d="M593,273.26l.44,1.29A4,4,0,0,0,593,273.26Z" transform="translate(-17.87 30.58)"/><path class="cls-1" d="M565.62,269.67a6.62,6.62,0,0,0,.14-2.43A7.57,7.57,0,0,0,565.62,269.67Z" transform="translate(-17.87 30.58)"/><path class="cls-1" d="M560.35,257.6a8.12,8.12,0,0,0,.31.75C560.5,257.32,560.36,256.76,560.35,257.6Z" transform="translate(-17.87 30.58)"/><path class="cls-1" d="M593,273.26l-1.14-3.43C592.24,273.48,592.54,272.49,593,273.26Z" transform="translate(-17.87 30.58)"/><path class="cls-1" d="M639,311.09a18,18,0,0,0-.16-3,8.78,8.78,0,0,1-.16,1.25Z" transform="translate(-17.87 30.58)"/><path class="cls-1" d="M603.5,262.68l.21-.05-.49-4.55Z" transform="translate(-17.87 30.58)"/><path class="cls-1" d="M612.1,259.57c-.27-.38,1.22,9.06,1.82,13.19a44.53,44.53,0,0,1-.62-6.53C613,264.43,612.62,262.29,612.1,259.57Z" transform="translate(-17.87 30.58)"/><path class="cls-1" d="M629.31,273.53v-1.35C629.32,272.6,629.28,273,629.31,273.53Z" transform="translate(-17.87 30.58)"/><path class="cls-1" d="M596.86,261.53c-.2-1.4-.4-2.64-.53-3.37C596.49,259.35,596.67,260.47,596.86,261.53Z" transform="translate(-17.87 30.58)"/><path class="cls-1" d="M324.14,297.52l.63-1.58A5.85,5.85,0,0,0,324.14,297.52Z" transform="translate(-17.87 30.58)"/><path class="cls-1" d="M331.64,249.51l.34-.42,2.13-4.91Z" transform="translate(-17.87 30.58)"/><path class="cls-1" d="M551.71,245.7c0,.11,0,.11,0,.18C551.92,244.78,551.81,245,551.71,245.7Z" transform="translate(-17.87 30.58)"/><path class="cls-1" d="M478.05,250c-.12,8.58-2.64,10.74-2.43,20.32C475.94,266.6,478.47,255.64,478.05,250Z" transform="translate(-17.87 30.58)"/><path class="cls-1" d="M638.47,309.91c-.11.13-.23.24-.38.18C638.33,310.36,638.45,310.3,638.47,309.91Z" transform="translate(-17.87 30.58)"/><path class="cls-1" d="M475.62,270.33v.07l0,.91Z" transform="translate(-17.87 30.58)"/><path class="cls-1" d="M533.42,251.82c0,1.68.12,3,.2,4.18C533.6,255,533.56,253.82,533.42,251.82Z" transform="translate(-17.87 30.58)"/><path class="cls-1" d="M547.63,265.22l-.39-1.26A3,3,0,0,0,547.63,265.22Z" transform="translate(-17.87 30.58)"/><path class="cls-1" d="M526.06,265.33c-.18-.73-.23-2-.51-.77,0,.49,0,.83.06,1.17C525.73,264.43,525.87,263.81,526.06,265.33Z" transform="translate(-17.87 30.58)"/><path class="cls-1" d="M518.39,265.17l.09,1.92c.08-.18.18-.33.26-.5Z" transform="translate(-17.87 30.58)"/><path class="cls-1" d="M350.75,302.57c.7-2.61,1.55-5.45,2.43-8.25C351.09,300.78,349.08,302.64,350.75,302.57Z" transform="translate(-17.87 30.58)"/><path class="cls-1" d="M637.91,305.83a25.22,25.22,0,0,1,.56,4.09,2,2,0,0,0,.18-.56C638.39,308,638.13,306.64,637.91,305.83Z" transform="translate(-17.87 30.58)"/><path class="cls-1" d="M524.68,340.72l-1.38-1.41C523.68,340.24,524.18,340.72,524.68,340.72Z" transform="translate(-17.87 30.58)"/><path class="cls-1" d="M411.34,318.26l-.56,1C410.86,319.55,411,319.3,411.34,318.26Z" transform="translate(-17.87 30.58)"/><path class="cls-1" d="M519.11,340.58a52.94,52.94,0,0,0-.62-6.63c-.08.75-.16,1.36-.22,2.46Z" transform="translate(-17.87 30.58)"/><path class="cls-1" d="M353.21,294.22l0,.09Z" transform="translate(-17.87 30.58)"/><path class="cls-1" d="M336.95,312.51c1.19.71,4.8-11.34,7.52-18,2.69-2.83-2.46,8.94-4.13,15.17,2.08-2.79,6.67-13.39,7.19-12.69a43.27,43.27,0,0,1-1.78,5.11c4.31-9.06,3.09.58,8.33-10.86-.28,1.08-.58,2.09-.87,3,1.88-6,3.94-12.07,5.47-16.35.61,0,3.57-7.15,1.1.69-.25-.34-1.35,2.78-2.34,5.15l1.72-3.17c-3.32,11.34-2.1,3.58-4.95,11.84,2.38-3.23,6.81-12,6.57-8.56-3.52,11-3.24,3-5.4,13.1l.09-4.66c-4.88,17.6-.41-1.49-5.78,17.28.74,3.8,3.9-4.83,4.63-1.05,2.44-6,2.88-9,5.31-15,6.1-10.16-7.11,28.2-.41,14.18,2.88-7.16,7.55-21,6.48-13.24l-4.45,12.29c1.36,1.79,6.71-17.56,5.84-8.63-1.87,4.79-2.67,3.7-2.87,5.26-1.94,10.2,3.08-6.8,4-6.52l-3.29,11.09c2.42-1.15,6.91-8.49,9.53-9.88-1.1,3.26-2.51,6.61-3,10.14,2.13-2.36,3.4-1.59,4.22.69s1.24,6,1.58,9.64l3.7-9.33c.19.17-.81,4.45-1.58,6.25,0,3.91,1.77-6.07,3.31-9.72.74-.52-.82,5.72-2,8.51,4.07-7.66,9.74-16.24,8.77-5.42l-1.12,2.77c.39,4.3,6.85-19.34,5.76-10l-.7,1.64c1,2.5,2.88,1.78,4.36,2.32s2.55,2.28,1.94,9.89c3.85-13.86,1.59,6.95,6.46-12.5-.55,10.07-1.88,13.44-.86,20.53.48,1.06,3.82-12,5.1-13.82L408,319.85l3.55-10.46-2.16,12.36,1.37-2.44c-.18-.67.37-4.74,1.08-7.67,2.22-4.36,1.35,7.8.25,13.05l4.75-8a45.52,45.52,0,0,1-2.67,8c3.78-10.11-2,10.86,1.45,1.6.3-2.37,1.39-6.08,1.86-8.15-.61,6.34,1,6.71,2.75,4.32l-1.68,7c1.83,2.22,5.28-2.52,7.69-1.92-.24-3.47,2.34-15.73,3.26-16.78l-1.8,10.93c1.74-6.64.06-4.24,2.55-12.3.64,1.42-1.75,12.49-2.95,15.93l1.81-3.57c-.55,3.26-1.13,4.92-2,9.05,1.72-6.68-.11,11.29,2.73-.32l-.53,3.25c2.45.56,4.23-3,6.31-3.15,1.68-9.42,2.09-7.18,4-14.68.91,3.23,1.29,10.89,3.18,10.35,2-4.51,1.65-7.94,3.1-13.46-1.3,8.6.58,8.07-1.31,14.11,2.32-1.08,3-1.3,6.66-7.9a51.58,51.58,0,0,1,.76-8.07c.68-1.34.53,3.77-.15,7.9l-.26.88c2.42-6.24,3.18.3,4,6.2s1.8,11.19,4.18,2.33l-.25.87,3.67-9.1c.94,1.62-1.5,6.41-1.34,11.86,2.25-7.06,3.22-6.42,4.08-5.18s1.6,3.07,3.25-1.61c-.62,12.86,1,12.58,2.77,11.16s3.72-4,4.07,4.29l.47-6c1.18-5.83.38,3.53.7,5,.39-4.68-.12-5.48.57-8.71,2.87-3.31,5.24-1,7.56,3s4.59,9.57,7.07,12.48c1.85,1.77,3.21-31.14,4.63-16.55l-1.41,11.16c2.38-6.58,4.31-6.31,6.25-5.81s3.88,1.14,6-4.5c-.34,2.58-.5,5.95-.86,5.89.44,8.18,3,.51,3.22-6.15.55.78-.11,6,.12,9.42.63,4.84,2.4-10.34,2.53-2.21a11.9,11.9,0,0,1-.49,3.26c.66-3.93,2.42,1.09,2.22-8.33,1.28,4.54,2.81-4.08,3.78,1.52,1-10.5,2.31,5.15,2.85-9.72-.43,15.37,2.25,12.51,3.24,5.24-.37,4.65.71,4.82.27,11.25,1-.22,2-3.07,1.92-11,.84,9.2,1.84,5.49,2.69,2.44s1.58-5.46,2.09,6.33c3.07-8.27,5.78-13.87,8.4-17.48.1,15.33-2.94,1.53-2.69,17.63,2.57-6.32,3.81-19.49,6.38-15.8.7,2.1-.24,6.66-.41,9.27,1.23-3.14,2.46-2.85,3.67-2.81s2.37-.16,3.37-4.38a22.91,22.91,0,0,1-.35,4.18c.43-.51,1.12,2.21.84-4.75l-.37,1.9c-1-10.09,1.05-21.19.92-26.54,0,20,2.35,4.93,2.11,30.21a46.2,46.2,0,0,0,.24-9.3c.48,1.33.73,4.05.49,9.37,1.46-3.86.58-11.24,2-11.14.14,3.38-.09,4.69-.08,8.66.46-6.6.88-13.21,2.22-10.41,0,2,.29,4.67-.08,4.64,2.07-1.11,2.63-17.65,5.21-11.39.17,14.66,1,4.78,1.91,17.45l1-3.85-.87-6.11c1.09.13,1.44-9.17,2.61-5.09l-.45,5.28,1.84-2.56L568,310.78c.63-6.61-1.18-16,.44-12.6-.19,1.31,1,.07,2.11,7.49,0,0,0,0,0,0,.23-4.07.44-8.35,1.44-5.28.51,4,.89,14,1.22,16.7-.28-10.62,2.27-3.13,2-14.45,0,2.66.52,9.31.7,10.66l-.26-8.63c.71,2.71.89,4,1.25,9.33,1.61,1.45-1.8-16,.51-9.23-.08.71.1,2-.08,3.31,2.07,3.46,2.89-5.72,4.87-1.62,1.67,12.68-1.12,3.23.41,13.91,1.08-1.25,1.94-5.16,2.83-8.4s1.8-5.9,3.07-4.54l-.56-1.35c-1.59-18,2.6,8.67,2.83.08-.13,1.35.72,10,.58,8,1.87,2.7,2.69-4.78,4.32-10.68l.26,4.63c1.4,4,2.67,2.08,3.92,4.06-.28-4.62.36-3.95-.82-10.58,3.16,12.91,4.2,9.22,5,5s1.5-9,4.39,1.67c-.31.1-.19,4.13.07,4.11l1.67-4.58c-1.32-7.74-1-4.66-2.34-10.64-.39-4.65-.29-8.33.25-8.41-.23,5.31,1.85,12.48,2.94,16.75-.43-2.37-.67-5-1.07-7.43,3.24,13.64-2.15-15.66.82-6.6l.54,4.09c.28-2.18,0-7.65.79-6.59,1.67,8.94,0,4.29,1.13,11.69.84-.66-.9-17.3,1.32-8.47,0,2.56-.52,2.69-.51,5.23,2.55,10.4,2.25,7.7,3.18,9.27l-.1-.23,2.33,4.52-.86-2.79c-2.69-23.57,1.63-4.65.56-20.19,1,14.72,1.18,8.42,2.79,18.59a47.51,47.51,0,0,1,2.34,8.7c-.67-8.31,2.37,6.25,1.32-5.88.62,3.25.85.19,2.13,8.42.52-2.72-1.24-5.64-1.88-9.75-.25-5.68,1.2-2.46,2.66.21s2.94,4.81,2.56-3c.62-6.65-1.16-17.7-.62-23.48a57.25,57.25,0,0,1,1.86,11.94c1.83,4.61,2.35,3.59,2.45-.29a65.2,65.2,0,0,0,2,8.83c.52-1-1.92-11.92-.06-7.31.58,3.66,1.56,9.49,2,13.19.22-3.16-.22-9.38,0-12.48,1.39,5.61,1.27,8.68,1.72,12.45.43-2.75,1.41-5.62-.19-14.63l-1.27-3.08c.25-.49,1.79,7.66,1.88,9.34.65,7.18-1.81-2.87-2.53-6.12l.16-2.2c-4.54-18.93-1.7,3.52-3.15,2.66l-2.3-14,1.11,11.75c-1-3.56-2.68-11.27-2.53-13.46-2.18-6.69.24,5.08-2-2.43a12.07,12.07,0,0,1-.44-2.41v4.29c-.41-2.95-2-9.78-1.16-7.87-3-7.73-.29,10.88-2.84.46l0-.88c-1.09,5.09,1.75,10.25,2.46,22.52l-5.67-25,1.68,10.24c-.27-.33-.82-1-1.49-5.11.51,7.14.94,4.42,1.69,11.1-2.66-9.08-2,4.85-5.09-11.4,1,7.82,2,5.84,1.89,11.41-3.36-17.48-.72,3.2-3-4.7-1.26-9.09.4-4.44-1.88-12.37,2.06,15.38-2.31-3.08-2.55,0,2,12.19-.8,5.35-1.42,9.61-.58-4.11-3.46-6.33-5.29-10.56l-.28-2c1.65,12.38.07,10.24-.44,12.94-1.05-7.4-1.32-10.34-1.34-13.73l-.81.19c.39,4,.44,6.12.1,7.62L602.69,261c-1,.67-.65,11.25-2.93,5.26,1.09,8.64,4.49,23.88,3.7,29.82-.7-4.66-1.84-12.63-1.7-14.58,0,.63.06,3.93-.48,2l-.46-7.92c-1.13-3.37.55,6.6-.08,5.93-.89-6.66-1-4.7-1.67-10,0-.66.83,2.7.67.06-.75-1.12-2-5-2.88-10,.55,3.78,1.19,9,.87,9.88-1,.62-1.43-8-2.51-11.31.33,4.65-1-.06.28,9.9-.33,0-1-4.65-1.44-7.33,0,4.46-2.49,1.57-.55,12.09l.23.68c0,.21,0,.22,0,.45h0c-.73,10.13-4.61-5.18-6-.68l-.37-3.34c-.7,3.95-2.24,2.55-2.3,9.83-.34,0-1.42-6-1.68-10-.59,2.6-.32,6.4-2.1,1,.28-5.9-.8-5.13.45-4.35-1.39-2.77-2.14-8.12-2.45,1.11-.41-8.59-1.83-10.72-2.11-8.12l1.33,6.06c-.47,1.3-1.06.57-1.64-.11L576.11,256c-1.71-6.77-2.16-.86-2.71,3.89s-1.15,8.35-2.9-3.07c0,7.93,1.65,5.46,1.86,14.72-.58-.72-1.46-5.1-2.22-9.31l-1-5.7a13.52,13.52,0,0,0-.56-2.54c-1.83-6.14-.09,16.59-1.88,12.43.46,4,1.41,14.73.52,18.62-1.18-1.4-2.41-16.78-2-20.07.22-.36.43.91.51,2.27a20.2,20.2,0,0,0-.15-7.58l.14,4c-.79-4.07-2.15-3.52-2.25-10.15a18.06,18.06,0,0,0,.8,8.67c-1.68-5.74-2.06,0-3.64-3.86.34,2.21.82,6.94.6,6.9-2.28-4.91-.44,7.68-1.73,9.5-1.11-6.11-.51-14.67-1.6-9.47-1-4.13-.72-10.69-.57-14-.82,7.82-2.51-5-3.24-6.42l.47-3.28c-.28,1.95-.59,1.9-.9,1.9l.72,8a11.12,11.12,0,0,1-.89-4.77c-.15,5.3.89,13.4.43,20.65-.68-4.08-1.39,4.46-2-6.23,1.74,3.57-.6-10.74.65-12.52-.2,1.29-.51,1.25-.94-.15a14,14,0,0,1,0-2.84c-1.85-9.5-.2,12.13-1.79,11.95,0-6-.76-11.43-1-10.13.62.1.66,10,.22,14.69-1.17-4.65-1,3.54-1.55,3l.68,2.19c0,6-.56,5.27-1.23,7.2-.2-4.69.56-3.26.24-5.32-.51,10.64-2.1-10.9-3-3.71-.6-4.06-.32-11.33-.82-14.09-1,7.87-1.47-8.25-2.6-1.78.5,8.11.55,6.13-.23,14l2-5.7-1.14,11.79c.66.11,1.27-5.1,1.68-3.72-.52,6.62-.5,4.6,0,11.33-1.13-12.16-1.66,7.09-2.86-1.12l-.27-20.08c-1.61-9-2.56,10.31-4.6,5.25l.66,3.49c-.22,8-1.23,1.11-1.86,4.35a132.86,132.86,0,0,0-.65-13.33c0,5-1.43-.45-1.63,13l-.87-8.84c-1.56-3.62-1.94,19.13-3.52,16.85.54-7.3-.11-12.05,1-17.27-.51-.07-1-1.29-1,3.36-.25-4.2-1.54,9-1.94,2.67-.26,2.95-.44,10-1,9.42,0-1.36.06-3.31.06-3.31-.05,3.32-1,4.49-.61,11.93-.64-10.5-1.76-10.16-2.89-9.45s-2.25,1.79-2.68-7.23c-1.19,2.22-2.64,4.32-3.69,4.78.14-2,.12-3.34.29-2.64-1.18-6.29-1.6,19.23-3,12.2-.4-10.87,1.11-5.83.75-10,.68-22.08-2.08,2.94-2.6-10l.32-1.28c-.46-7.52-2.39,8.29-3.69,6.66,0,0,.17-2,.18-3.33-1.51,11.24-3.52,14.83-5,17.84.93-8.59.87-4.52,1.15-13.31-.66,1.2-.66,14.09-2,16.46-.1-4.75-.7-8.94-.21-18.3l1.13-.42c.2-12.15-1.44.31-1.88-1.84l.42-5.28c-1.76,1.59-2.72,14.91-4.49,13.82l-.1,4c-2,13.11-.29-7.49-2,2.25l.73-13.41c-.89,3.18-3.32,12.76-4.75,15.19,1.52-9.87,3.3-14.84,4.6-20.67-.63-.15-2.24.83-3.13,7.4.37-1.27,1-4.52,1.05-2.45-1.65,10.46-3.17,15.55-4.48,15.22,2.53-25.9-2.84-6.77-1.83-27-3.18,9.32-4-4.59-6.69-3.34-1.32,20.23-.82.49-3,21.16-.77,1.25-1,.89-.88-.46l-.43-12.54c.28-6.06,1.11-4.49,1.6-9.13-1.12-1.73.49-8.81.3-14.39-.71,7.4-1.72,10.52-2.12,7.62l-.11,9.63c-3.2,10.77.56-17.49-2.62-6.82l1.4-6.43c-.71,1.86-1.56,1.73-2.62,3.2s-2.33,4.45-3.92,12.66c.15-2.4.71-8.07,1.32-9.5-.94-1.41-2.79,2.8-4.48,6.05s-3.21,5.55-3.33.33l.93-5c-.63,1.39-2.16,9.34-1.92,4.19a38.87,38.87,0,0,0,.79-5.31c-.48,1.7-2.47,8.63-2.58,5.62l1.36-5.58c-1.13-6.9-5.55,13.25-8,16.4,2.45-14.77,1.54-19.79,1.12-22.35l.39-2.08c-2.15-2.3-6.39,11.4-9.89,16.71,1.53-16.25-3.72-7.63-4.26-17a68.67,68.67,0,0,1-3.1,12.81c.06-3.07-3.64,9.88-.78-3.55l.15.29c2.31-13.27.48-9.94-.31-10.51l-3.87,17.53c1.55-13-.41-11-2.39-8.68s-3.93,5.06-1.94-6.48c-1.55,4.25-2.23,4-3.8,8.28l2.21-9.37c-1-2.75-1.42-4.09-3.83-2.29l2-6.6c-.88-.84-7.89,26.67-9.06,27l3.14-14c-2-.18-.65-13-5.73-.83.56-2,1.66-6,2.1-6.52-.78-.61-.82-10.31-5.59,8.84,3.29-12.41-1.57-1.73-4.1,3.45l2.65-9.1c-4,11.45-5,14.63-7.07,17.53,0-1.26,1.78-7.37,1.51-4.93.38-5-3.16,8.44-3,3.26l2.07-5.71c-.78-1-1.58,2.18-4.05,8.82-1.67,3.48-1.24-2.81,1-11.08-1.58,5-4.07,11.54-4,9a43,43,0,0,1,2-5.91c.19-6.63-5.55,9.82-4,.56.88-3,1.26-4.55,1.43-5.48,1.21.63,2.1,1.45,1.81,2.08,2.46-8.38,1.89-10.17,6.11-21.49-2.64,6.07-8.15,19.33-8,15.08.2-.83.39-1.63.74-2.93l.39-.9c0-.91-.42-.19-1,1.15.1-1.47.21-2.55-.05-2.77,2-6.95,0-4.09-.41-4.59-2.79,9.15-3,7.47-4.72,15.21a1.78,1.78,0,0,1,.9-1.34,3.62,3.62,0,0,0,.51-.88l-.28.79a4,4,0,0,1,1.47-.21c-1.82,4.52-3.47,8.28-2.48,3-2.08,5.79-4.25,11.72-5.3,14.5,3.22-13,4-20.26,6.33-28.15-3.17,4.62-4.7,2.23-11.29,19-1.18,2,1.08-5.06,1.79-7.79.83-1.64,1-1.27,2-3.68-2.33,4.1-3.21.87-7.41,12.7.65-5.74,4.3-10.73,2.09-9.31l1.43-3.56c1.7-10-2-2.88-5.72,3.55s-7.24,12.15-4.62-.59a26.52,26.52,0,0,1-1.08,4.3c0-6-2.9-4.24-5.54-3.24s-5,1.25-3.65-7.94c.25-3.81-2.75,3.62-5.62,9l3.5-9.66-5.44,10.58c-2.39,3.71-.79-2.43.46-7.68s2.11-9.61-2-2.41l-2.34,6.52c-.23-1.5-3.85,2.84-.71-4.46-.55,1.14-3,6.56-1.89,3.11l2-5-5.31,7.79c.12-4.14,8.42-19.6,6.87-21.35-1.51,1.62-8.19,13.56-9.33,17,.2.37-.54,3.4-2.61,8.36l-1.8,2.29c-6.32,14.52-13.3,29.18-15.74,40.11l5.06-8.39-2.56,7.25h-1.28c-2.18,6.91.7,1.19,2.83-2.69a64.76,64.76,0,0,0-2.71,8L324.65,280c-2.21,5.78-5.28,11.12-5.72,14.63,3.28-6.25,4.74-13.06,7.47-16.92-2.13,6.89-4.53,12.25-1.47,6.85a43.83,43.83,0,0,1-3.55,7.69c2.51-4.26,2.51-1.21,6-8.88-2.69,8.49,3-1.27-2.61,12.61,1.55-3.24,5.52-10.46,6.33-10.8-7.7,16.24,1.83,1.88-5.48,19.66,6.7-14.69,5.57-5.48,10.22-13.26-.54,1.16-1.62,3.52-1.45,2.7.33,1.58-1.17,6.23-1.72,9.27,4.84-12.41,7.18-14.81,10.73-22.27-3.52,12.39-6.09,14.44-10.13,26.1,3.75-10.12,5.54-9.47,8.33-18-2,7.73-.69,3.85-4.13,14.36,5.91-15.58,1.7-2.39,5.87-11.77-1.72,8.1-5.08,14.76-2.11,10.44A40.59,40.59,0,0,1,336.95,312.51ZM375.35,295l-.06.18-.75.33A7.22,7.22,0,0,0,375.35,295Zm2.45.61a1.1,1.1,0,0,0-.94-.69c.86-3.18,1.93-6.41,2.12-6.17C378.22,290.81,378.24,292.8,377.8,295.59Zm14.39-64.9c.73-1.19.29.64-.24,2.53a3.42,3.42,0,0,0-.93.91l-.38,1.11C391.22,233.5,391.76,231.88,392.19,230.69Z" transform="translate(-17.87 30.58)"/><path class="cls-1" d="M387.89,242.48a3.92,3.92,0,0,1-.35.62c-.18.83-.32,1.53-.43,2.12l1-2.82A1.83,1.83,0,0,0,387.89,242.48Z" transform="translate(-17.87 30.58)"/><path class="cls-1" d="M593.51,274.76l-.08-.21c.09.37.17.73.27,1.34Z" transform="translate(-17.87 30.58)"/><polygon class="cls-1" points="389.61 352.79 390.15 350.43 389.46 352.44 389.61 352.79"/><path class="cls-1" d="M611.11,305.5a23.71,23.71,0,0,0,.54,2.39C611.55,307.27,611.35,306.43,611.11,305.5Z" transform="translate(-17.87 30.58)"/><path class="cls-1" d="M617.32,306.68l1.38,3.23A20.54,20.54,0,0,0,617.32,306.68Z" transform="translate(-17.87 30.58)"/><path class="cls-1" d="M622.64,310.63c-.22-1.66-.42-2.91-.6-4.05l0-.06Z" transform="translate(-17.87 30.58)"/><path class="cls-1" d="M549.9,329.13a.83.83,0,0,0-.17.44C549.36,331.44,549.63,330.69,549.9,329.13Z" transform="translate(-17.87 30.58)"/><path class="cls-1" d="M570.6,305.71c-.1,1.75-.21,3.46-.37,4.56C570.66,311,571,311.13,570.6,305.71Z" transform="translate(-17.87 30.58)"/><path class="cls-1" d="M524.83,340.89v-.17c-.05,0-.1,0-.16,0Z" transform="translate(-17.87 30.58)"/><path class="cls-1" d="M569.21,310.18c.51,1.88.81,1.44,1,.09C569.87,309.65,569.43,308.7,569.21,310.18Z" transform="translate(-17.87 30.58)"/><path class="cls-1" d="M643.22,311.15l.3.34c-.13-.62-.23-1.12-.29-1.51Z" transform="translate(-17.87 30.58)"/><path class="cls-1" d="M643.24,310v-1.15C643.14,308.85,643.05,308.94,643.24,310Z" transform="translate(-17.87 30.58)"/><path class="cls-1" d="M643.26,306.37l0,2.46C643.43,308.81,643.71,309.06,643.26,306.37Z" transform="translate(-17.87 30.58)"/><path class="cls-1" d="M636.31,308l.6,3.42C636.81,310.73,636.62,309.62,636.31,308Z" transform="translate(-17.87 30.58)"/><path class="cls-1" d="M634.68,309.37c.58.69,2.51,7,2.71,4.79l-.47-2.72C637.61,316.55,634,303.55,634.68,309.37Z" transform="translate(-17.87 30.58)"/><path class="cls-1" d="M619.54,268.69l1.9,2.46c-.9-3.58-2.1-8.4-1.63-9.4C616.11,251.25,621.65,269.82,619.54,268.69Z" transform="translate(-17.87 30.58)"/><path class="cls-1" d="M614.25,264.1c.47-1.81-.9-5.29-1.21-7.35A17.88,17.88,0,0,0,614.25,264.1Z" transform="translate(-17.87 30.58)"/><path class="cls-1" d="M582.71,268.36l-.8-8.65C581.46,261,582.24,263.06,582.71,268.36Z" transform="translate(-17.87 30.58)"/><polygon class="cls-1" points="562.77 344.26 563.88 349.59 563.46 341.63 562.77 344.26"/><polygon class="cls-1" points="553.8 282.82 553.95 281.56 553.26 284.79 553.8 282.82"/><path class="cls-1" d="M520,256.78l-.11,10.72C520.32,265.58,520.7,253.56,520,256.78Z" transform="translate(-17.87 30.58)"/><path class="cls-1" d="M496.76,266.52c.14-5.36-.24-8.84-1-3.62C496.18,263.67,496.39,267.88,496.76,266.52Z" transform="translate(-17.87 30.58)"/><polygon class="cls-1" points="414.42 270.36 415.6 266.95 414.16 269.69 414.42 270.36"/></g></svg>